<?xml version="1.0" encoding="UTF-8" standalone="no"?>
<svg xmlns:xlink="http://www.w3.org/1999/xlink" height="18.8px" width="41.55px" xmlns="http://www.w3.org/2000/svg">
  <g transform="matrix(1.0, 0.0, 0.0, 1.0, -23.7, 11.7)">
    <path d="M25.3 -9.0 Q26.8 -11.7 29.0 -11.7 31.2 -11.7 32.7 -9.0 34.3 -6.2 34.3 -2.3 34.3 1.5 32.7 4.3 31.2 7.1 29.0 7.1 26.8 7.1 25.3 4.3 23.7 1.5 23.7 -2.3 23.7 -6.2 25.3 -9.0" fill="url(#gradient0)" fill-rule="evenodd" stroke="none"/>
    <path d="M65.25 -2.2 Q65.25 0.5 56.35 2.4 47.45 4.3 34.85 4.3 L30.75 4.3 30.75 -8.7 34.85 -8.85 Q47.45 -8.85 56.35 -6.95 65.25 -5.05 65.25 -2.2" fill="url(#gradient1)" fill-rule="evenodd" stroke="none"/>
  </g>
  <defs>
    <radialGradient cx="0" cy="0" gradientTransform="matrix(0.0066, 0.0, 0.0, 0.0117, 29.0, -2.3)" gradientUnits="userSpaceOnUse" id="gradient0" r="819.2" spreadMethod="pad">
      <stop offset="0.36470588235294116" stop-color="#ffffff"/>
      <stop offset="1.0" stop-color="#00ccff" stop-opacity="0.0"/>
    </radialGradient>
    <radialGradient cx="0" cy="0" gradientTransform="matrix(0.0372, 0.0, 0.0, 0.008, 34.95, -2.35)" gradientUnits="userSpaceOnUse" id="gradient1" r="819.2" spreadMethod="pad">
      <stop offset="0.36470588235294116" stop-color="#ffffff"/>
      <stop offset="1.0" stop-color="#00e6ff" stop-opacity="0.0"/>
    </radialGradient>
  </defs>
</svg>
