<?xml version="1.0" encoding="UTF-8" standalone="no"?>
<svg xmlns:xlink="http://www.w3.org/1999/xlink" height="23.1px" width="16.75px" xmlns="http://www.w3.org/2000/svg">
  <g transform="matrix(1.0, 0.0, 0.0, 1.0, 9.5, 5.15)">
    <path d="M-6.05 5.4 L1.05 8.75 Q1.4 16.65 -0.95 15.1 -4.7 12.75 -8.25 12.75 -7.35 10.1 -8.65 9.35 -9.95 8.55 -6.05 5.4 M-1.3 10.15 L-4.95 8.85 -5.55 11.5 -2.35 12.6 -1.3 10.15" fill="#4b3c37" fill-rule="evenodd" stroke="none"/>
    <path d="M-1.3 10.15 L-2.35 12.6 -5.55 11.5 -4.95 8.85 -1.3 10.15" fill="#826d5a" fill-rule="evenodd" stroke="none"/>
    <path d="M-0.95 15.1 L-2.0 16.5 Q-4.85 18.45 -6.85 16.45 -7.85 15.45 -8.25 12.75 -4.7 12.75 -0.95 15.1" fill="#362b27" fill-rule="evenodd" stroke="none"/>
    <path d="M-6.05 5.4 L-8.55 4.3 Q-7.95 0.1 -5.05 -2.4 -2.2 -4.9 0.7 -4.6 3.55 -4.35 5.55 -1.8 7.55 0.75 6.15 4.55 4.75 8.3 2.8 9.6 L1.05 8.75 -6.05 5.4" fill="url(#gradient0)" fill-rule="evenodd" stroke="none"/>
    <path d="M1.05 8.75 L2.8 9.6 Q4.75 8.3 6.15 4.55 7.55 0.75 5.55 -1.8 3.55 -4.35 0.7 -4.6 -2.2 -4.9 -5.05 -2.4 -7.95 0.1 -8.55 4.3 L-6.05 5.4 1.05 8.75 Q1.4 16.65 -0.95 15.1 L-2.0 16.5 Q-4.85 18.45 -6.85 16.45 -7.85 15.45 -8.25 12.75 -7.35 10.1 -8.65 9.35 -9.95 8.55 -6.05 5.4 M-1.3 10.15 L-2.35 12.6 -5.55 11.5 -4.95 8.85 -1.3 10.15 M-8.25 12.75 Q-4.7 12.75 -0.95 15.1" fill="none" stroke="#232018" stroke-linecap="round" stroke-linejoin="round" stroke-width="1.0"/>
  </g>
  <defs>
    <radialGradient cx="0" cy="0" gradientTransform="matrix(0.0104, 0.0, 0.0, 0.0104, -0.9, 2.45)" gradientUnits="userSpaceOnUse" id="gradient0" r="819.2" spreadMethod="pad">
      <stop offset="0.0" stop-color="#796b51"/>
      <stop offset="0.5529411764705883" stop-color="#6a5d48"/>
      <stop offset="0.8980392156862745" stop-color="#463c30"/>
    </radialGradient>
  </defs>
</svg>
