<?xml version="1.0" encoding="UTF-8" standalone="no"?>
<svg xmlns:xlink="http://www.w3.org/1999/xlink" height="22.7px" width="14.3px" xmlns="http://www.w3.org/2000/svg">
  <g transform="matrix(1.0, 0.0, 0.0, 1.0, 5.0, 1.5)">
    <path d="M6.9 10.8 L5.9 11.2 6.9 10.8 5.9 11.2 1.85 12.75 -0.95 12.1 -2.75 9.7 -3.85 7.45 1.1 4.95 5.7 6.2 6.9 9.45 6.9 10.8 M4.45 2.9 L0.75 2.3 -4.4 5.0 Q-4.6 3.3 -4.4 1.3 -1.45 -2.35 3.25 -0.25 L4.45 2.9" fill="#6a5e48" fill-rule="evenodd" stroke="none"/>
    <path d="M5.7 6.2 L1.1 4.95 -3.85 7.45 -4.4 5.0 0.75 2.3 4.45 2.9 5.7 6.2" fill="#baa27c" fill-rule="evenodd" stroke="none"/>
    <path d="M8.6 17.95 L8.15 20.15 Q6.25 22.1 3.55 16.85 L3.55 14.75 4.1 14.8 Q5.85 14.9 6.85 16.85 7.8 18.75 8.6 17.95" fill="#322721" fill-rule="evenodd" stroke="none"/>
    <path d="M1.85 12.75 L5.9 11.2 8.6 16.0 Q8.95 16.75 8.7 17.7 L8.6 17.95 Q7.8 18.75 6.85 16.85 5.85 14.9 4.1 14.8 L3.55 14.75 Q2.25 14.6 1.9 13.95 1.45 13.15 1.85 12.75" fill="#514637" fill-rule="evenodd" stroke="none"/>
    <path d="M5.9 11.2 L6.9 10.8 6.9 9.45 5.7 6.2 1.1 4.95 -3.85 7.45 -2.75 9.7 -0.95 12.1 1.85 12.75 5.9 11.2 6.9 10.8 M5.7 6.2 L4.45 2.9 0.75 2.3 -4.4 5.0 -3.85 7.45 M5.9 11.2 L8.6 16.0 Q8.95 16.75 8.7 17.7 L8.6 17.95 8.15 20.15 Q6.25 22.1 3.55 16.85 L3.55 14.75 Q2.25 14.6 1.9 13.95 1.45 13.15 1.85 12.75 M8.6 17.95 Q7.8 18.75 6.85 16.85 5.85 14.9 4.1 14.8 L3.55 14.75 M-4.4 5.0 Q-4.6 3.3 -4.4 1.3 -1.45 -2.35 3.25 -0.25 L4.45 2.9" fill="none" stroke="#232018" stroke-linecap="round" stroke-linejoin="round" stroke-width="1.0"/>
  </g>
</svg>
