<?xml version="1.0" encoding="UTF-8" standalone="no"?>
<svg xmlns:xlink="http://www.w3.org/1999/xlink" height="29.5px" width="41.7px" xmlns="http://www.w3.org/2000/svg">
  <g transform="matrix(1.0, 0.0, 0.0, 1.0, 21.05, 14.75)">
    <path d="M0.95 -1.0 Q1.35 -0.65 1.35 -0.05 1.35 0.5 0.95 0.9 L0.0 1.3 -0.95 0.9 Q-1.35 0.5 -1.35 -0.05 -1.35 -0.65 -0.95 -1.0 -0.6 -1.45 0.0 -1.4 0.5 -1.45 0.95 -1.0" fill="#4d95ff" fill-opacity="0.0" fill-rule="evenodd" stroke="none"/>
    <path d="M-0.2 -9.25 Q3.6 -9.25 6.35 -6.55 9.05 -3.85 9.05 0.0 9.05 3.85 6.35 6.55 3.6 9.25 -0.2 9.25 -4.05 9.25 -6.75 6.55 -9.45 3.85 -9.45 0.0 -9.45 -3.85 -6.75 -6.55 -4.05 -9.25 -0.2 -9.25" fill="url(#gradient0)" fill-rule="evenodd" stroke="none"/>
    <path d="M-0.2 -0.6 L14.65 -0.4 20.65 0.0 14.65 0.4 -0.2 0.6 -14.9 0.4 -21.05 0.0 -14.9 -0.4 -0.2 -0.6" fill="url(#gradient1)" fill-rule="evenodd" stroke="none"/>
    <path d="M14.55 -14.75 Q14.75 -14.55 10.6 -10.2 L0.2 0.4 -10.3 10.7 Q-14.75 14.95 -14.95 14.75 -15.15 14.55 -10.9 10.1 L-0.6 -0.4 10.0 -10.8 Q14.35 -14.95 14.55 -14.75" fill="url(#gradient2)" fill-rule="evenodd" stroke="none"/>
  </g>
  <defs>
    <radialGradient cx="0" cy="0" gradientTransform="matrix(0.011, 0.0, 0.0, 0.011, -0.2, 0.0)" gradientUnits="userSpaceOnUse" id="gradient0" r="819.2" spreadMethod="pad">
      <stop offset="0.0" stop-color="#ccebff" stop-opacity="0.0"/>
      <stop offset="1.0" stop-color="#bccafe" stop-opacity="0.0"/>
    </radialGradient>
    <radialGradient cx="0" cy="0" gradientTransform="matrix(0.0247, 0.0, 0.0, 7.0E-4, -0.2, 0.0)" gradientUnits="userSpaceOnUse" id="gradient1" r="819.2" spreadMethod="pad">
      <stop offset="0.0" stop-color="#ffffff" stop-opacity="0.0"/>
      <stop offset="1.0" stop-color="#ffffff" stop-opacity="0.0"/>
    </radialGradient>
    <radialGradient cx="0" cy="0" gradientTransform="matrix(0.0175, -0.0175, 5.0E-4, 5.0E-4, -0.2, 0.0)" gradientUnits="userSpaceOnUse" id="gradient2" r="819.2" spreadMethod="pad">
      <stop offset="0.0" stop-color="#ffffff" stop-opacity="0.0"/>
      <stop offset="1.0" stop-color="#ffffff" stop-opacity="0.0"/>
    </radialGradient>
  </defs>
</svg>
