<?xml version="1.0" encoding="UTF-8" standalone="no"?>
<svg xmlns:xlink="http://www.w3.org/1999/xlink" height="90.6px" width="216.05px" xmlns="http://www.w3.org/2000/svg">
  <g transform="matrix(1.0, 0.0, 0.0, 1.0, 99.6, 37.7)">
    <path d="M-87.85 -4.2 L-93.05 -5.6 -98.6 -7.1 -95.35 -19.25 -89.8 -17.75 -84.6 -16.35 -79.1 -14.9 -73.9 -13.5 -68.2 -12.0 -63.05 -10.6 -66.3 1.55 -71.45 0.15 -77.15 -1.35 -82.35 -2.75 -87.85 -4.2 -84.6 -16.35 -87.85 -4.2 M-79.1 -14.9 L-82.35 -2.75 -79.1 -14.9 M-77.15 -1.35 L-73.9 -13.5 -77.15 -1.35 M-89.8 -17.75 L-93.05 -5.6 -89.8 -17.75 M-68.2 -12.0 L-71.45 0.15 -68.2 -12.0" fill="url(#gradient0)" fill-rule="evenodd" stroke="none"/>
    <path d="M-52.25 16.15 L-45.95 27.05 -50.5 29.7 -55.65 32.65 -60.3 35.35 -65.25 38.2 -69.9 40.9 -74.85 43.75 -81.15 32.85 -76.2 30.0 -71.55 27.3 -66.6 24.45 -61.95 21.75 -56.8 18.8 -52.25 16.15 M-66.6 24.45 L-60.3 35.35 -66.6 24.45 M-55.65 32.65 L-61.95 21.75 -55.65 32.65 M-56.8 18.8 L-50.5 29.7 -56.8 18.8 M-69.9 40.9 L-76.2 30.0 -69.9 40.9 M-71.55 27.3 L-65.25 38.2 -71.55 27.3" fill="url(#gradient1)" fill-rule="evenodd" stroke="none"/>
    <path d="M-64.15 3.5 L-57.85 14.45 -62.45 17.1 -67.55 20.05 -72.2 22.75 -77.15 25.6 -81.85 28.3 -86.75 31.15 -93.05 20.2 -88.15 17.35 -83.45 14.65 -78.5 11.8 -73.85 9.1 -68.75 6.15 -64.15 3.5 M-68.75 6.15 L-62.45 17.1 -68.75 6.15 M-67.55 20.05 L-73.85 9.1 -67.55 20.05 M-78.5 11.8 L-72.2 22.75 -78.5 11.8 M-83.45 14.65 L-77.15 25.6 -83.45 14.65 M-81.85 28.3 L-88.15 17.35 -81.85 28.3" fill="url(#gradient2)" fill-rule="evenodd" stroke="none"/>
    <path d="M-87.85 -4.2 L-93.05 -5.6 -98.6 -7.1 -95.35 -19.25 -89.8 -17.75 -84.6 -16.35 -79.1 -14.9 -73.9 -13.5 -68.2 -12.0 -63.05 -10.6 -66.3 1.55 -71.45 0.15 -77.15 -1.35 -82.35 -2.75 -87.85 -4.2 -84.6 -16.35 M-93.05 -5.6 L-89.8 -17.75 M-73.9 -13.5 L-77.15 -1.35 M-82.35 -2.75 L-79.1 -14.9 M-52.25 16.15 L-45.95 27.05 -50.5 29.7 -55.65 32.65 -60.3 35.35 -65.25 38.2 -69.9 40.9 -74.85 43.75 -81.15 32.85 -76.2 30.0 -71.55 27.3 -66.6 24.45 -61.95 21.75 -56.8 18.8 -52.25 16.15 M-64.15 3.5 L-57.85 14.45 -62.45 17.1 -67.55 20.05 -72.2 22.75 -77.15 25.6 -81.85 28.3 -86.75 31.15 -93.05 20.2 -88.15 17.35 -83.45 14.65 -78.5 11.8 -73.85 9.1 -68.75 6.15 -64.15 3.5 M-72.2 22.75 L-78.5 11.8 M-73.85 9.1 L-67.55 20.05 M-62.45 17.1 L-68.75 6.15 M-65.25 38.2 L-71.55 27.3 M-76.2 30.0 L-69.9 40.9 M-50.5 29.7 L-56.8 18.8 M-61.95 21.75 L-55.65 32.65 M-60.3 35.35 L-66.6 24.45 M-88.15 17.35 L-81.85 28.3 M-77.15 25.6 L-83.45 14.65 M-71.45 0.15 L-68.2 -12.0" fill="none" stroke="#000000" stroke-linecap="round" stroke-linejoin="round" stroke-width="2.0"/>
    <path d="M-13.55 -22.95 Q3.95 -23.1 14.15 -19.5 16.35 -18.7 18.2 -17.75 L21.8 -15.5 22.5 -14.75 20.8 -14.5 Q19.85 -14.1 19.5 -13.7 L10.95 -17.9 6.25 -20.65 4.2 -20.2 Q2.65 -19.6 1.3 -19.6 L-12.55 -19.75 Q-12.85 -21.85 -13.55 -22.95 M-43.85 -25.9 L-28.2 -24.25 -18.1 -23.3 -20.4 -21.6 -22.6 -19.5 -22.65 -19.5 -25.0 -16.4 Q-27.0 -13.35 -27.0 -11.7 -27.0 -11.1 -26.6 -10.4 -25.9 -9.25 -24.5 -9.25 -23.3 -9.25 -21.1 -10.75 L-19.05 -12.25 -15.35 -11.35 -10.35 -10.5 -7.0 -11.25 -5.25 -11.0 Q-5.25 -7.9 -4.75 -6.65 -3.55 -3.5 0.6 -3.5 3.35 -3.5 7.6 -5.1 11.85 -6.75 13.5 -6.75 15.4 -6.75 22.0 -5.1 28.65 -3.5 30.5 -3.5 33.35 -3.5 36.7 -6.0 L36.75 -6.05 36.75 -4.6 39.2 -6.8 Q44.95 -9.0 45.8 -10.35 46.9 -12.0 44.5 -13.25 L53.9 -14.65 Q47.8 -9.25 49.25 2.0 L47.65 2.0 Q10.45 3.1 -26.65 -6.8 -31.45 -9.0 -34.85 -12.1 -41.75 -17.5 -43.85 -25.9 M35.75 -3.7 L21.85 -0.8 35.75 -3.7" fill="url(#gradient3)" fill-rule="evenodd" stroke="none"/>
    <path d="M21.8 -15.5 L18.2 -17.75 Q16.35 -18.7 14.15 -19.5 3.95 -23.1 -13.55 -22.95 -14.95 -24.95 -18.1 -23.3 L-28.2 -24.25 -43.85 -25.9 Q-44.65 -29.0 -44.65 -32.5 L-34.85 -32.5 -28.1 -32.35 Q-3.15 -35.45 21.2 -19.5 L21.9 -19.0 28.25 -14.45 Q25.15 -14.4 21.8 -15.5" fill="url(#gradient4)" fill-rule="evenodd" stroke="none"/>
    <path d="M21.9 -19.0 L21.2 -19.5 22.25 -19.5 21.9 -19.0" fill="url(#gradient5)" fill-rule="evenodd" stroke="none"/>
    <path d="M22.5 -14.75 L21.8 -15.5 Q25.15 -14.4 28.25 -14.45 L30.2 -13.2 29.2 -12.9 28.4 -13.4 Q27.55 -13.95 26.9 -14.1 L22.5 -14.75 M53.9 -14.65 Q57.65 -9.5 60.7 -3.9 L67.05 2.3 49.25 2.0 Q47.8 -9.25 53.9 -14.65" fill="url(#gradient6)" fill-rule="evenodd" stroke="none"/>
    <path d="M80.55 6.0 L87.85 -1.3 Q104.35 13.6 115.45 35.8 L98.35 33.2 Q79.35 34.5 79.35 49.5 67.95 55.8 48.15 45.4 54.75 37.9 62.65 22.1 68.75 9.4 80.55 6.0" fill="url(#gradient7)" fill-rule="evenodd" stroke="none"/>
    <path d="M49.25 2.0 L67.05 2.3 80.55 6.0 Q68.75 9.4 62.65 22.1 54.75 37.9 48.15 45.4 L12.95 45.4 Q24.25 41.9 14.85 21.9 -17.35 15.2 -26.65 -6.8 10.45 3.1 47.65 2.0 L49.25 2.0 M62.65 11.6 L65.15 8.6 62.65 11.6 M38.95 40.4 L38.95 42.6 35.45 42.6 35.45 35.6 38.95 35.6 35.45 35.6 35.45 42.6 38.95 42.6 38.95 40.4 M32.35 35.9 L30.05 35.9 30.05 42.5 30.05 35.9 27.75 35.9 30.05 35.9 32.35 35.9 M26.65 13.6 L10.85 13.6 7.55 9.4 10.85 13.6 26.65 13.6 M58.25 11.1 L62.45 6.4 58.25 11.1 M42.25 42.5 L46.25 42.5 46.25 39.3 42.25 39.3 42.25 35.7 46.25 35.7 42.25 35.7 42.25 39.3 46.25 39.3 46.25 42.5 42.25 42.5" fill="url(#gradient8)" fill-rule="evenodd" stroke="none"/>
    <path d="M-44.65 -32.5 Q-44.65 -29.0 -43.85 -25.9 -41.75 -17.5 -34.85 -12.1 -31.45 -9.0 -26.65 -6.8 -17.35 15.2 14.85 21.9 24.25 41.9 12.95 45.4 -12.55 55.1 -36.45 46.0 -40.75 29.1 -53.65 29.5 L-74.65 29.5 Q-71.75 5.9 -76.75 -8.0 -62.85 -8.4 -48.65 1.6 -44.15 -26.9 -54.75 -31.8 L-44.65 -32.5 M-28.05 8.3 Q-29.35 7.0 -31.15 7.0 -32.95 7.0 -34.25 8.3 -35.55 9.6 -35.55 11.4 -35.55 13.2 -34.25 14.5 -32.95 15.8 -31.15 15.8 -29.35 15.8 -28.05 14.5 -26.75 13.2 -26.75 11.4 -26.75 9.6 -28.05 8.3 M-17.15 46.2 L-17.15 38.3 -17.15 46.2 M-8.95 42.5 L-8.95 36.8 -8.95 42.5 M-13.15 44.7 L-13.15 37.5 -13.15 44.7" fill="url(#gradient9)" fill-rule="evenodd" stroke="none"/>
    <path d="M-76.75 -8.0 Q-89.0 -19.85 -97.7 -29.75 L-96.9 -29.75 Q-92.05 -26.8 -86.8 -29.75 -82.95 -23.45 -79.95 -29.75 -71.8 -30.2 -79.95 -36.0 L-79.95 -36.7 Q-72.75 -33.8 -64.65 -31.2 -64.75 -24.0 -73.85 -19.8 -73.25 -13.4 -76.75 -8.0" fill="url(#gradient10)" fill-rule="evenodd" stroke="none"/>
    <path d="M-64.65 -31.2 L-54.75 -31.8 Q-44.15 -26.9 -48.65 1.6 -62.85 -8.4 -76.75 -8.0 -73.25 -13.4 -73.85 -19.8 -64.75 -24.0 -64.65 -31.2 M-67.15 -15.8 L-64.85 -19.6 -62.65 -23.5 -64.85 -19.6 -60.25 -17.6 -64.85 -19.6 -67.15 -15.8" fill="url(#gradient11)" fill-rule="evenodd" stroke="none"/>
    <path d="M-28.05 8.3 Q-26.75 9.6 -26.75 11.4 -26.75 13.2 -28.05 14.5 -29.35 15.8 -31.15 15.8 -32.95 15.8 -34.25 14.5 -35.55 13.2 -35.55 11.4 -35.55 9.6 -34.25 8.3 -32.95 7.0 -31.15 7.0 -29.35 7.0 -28.05 8.3" fill="#000000" fill-rule="evenodd" stroke="none"/>
    <path d="M21.8 -15.5 L18.2 -17.75 Q16.35 -18.7 14.15 -19.5 3.95 -23.1 -13.55 -22.95 -12.85 -21.85 -12.55 -19.75 L1.3 -19.6 Q2.65 -19.6 4.2 -20.2 L6.25 -20.65 10.95 -17.9 19.5 -13.7 Q19.85 -14.1 20.8 -14.5 L22.5 -14.75 21.8 -15.5 Q25.15 -14.4 28.25 -14.45 L21.9 -19.0 21.2 -19.5 Q-3.15 -35.45 -28.1 -32.35 L-34.85 -32.5 -44.65 -32.5 Q-44.65 -29.0 -43.85 -25.9 L-28.2 -24.25 -18.1 -23.3 -20.4 -21.6 -22.6 -19.5 -22.65 -19.5 -25.0 -16.4 Q-27.0 -13.35 -27.0 -11.7 -27.0 -11.1 -26.6 -10.4 -25.9 -9.25 -24.5 -9.25 -23.3 -9.25 -21.1 -10.75 L-19.05 -12.25 -15.35 -11.35 -10.35 -10.5 -7.0 -11.25 -5.25 -11.0 Q-5.25 -7.9 -4.75 -6.65 -3.55 -3.5 0.6 -3.5 3.35 -3.5 7.6 -5.1 11.85 -6.75 13.5 -6.75 15.4 -6.75 22.0 -5.1 28.65 -3.5 30.5 -3.5 33.35 -3.5 36.7 -6.0 L36.75 -6.05 36.75 -4.6 39.2 -6.8 Q44.95 -9.0 45.8 -10.35 46.9 -12.0 44.5 -13.25 L53.9 -14.65 Q47.8 -9.25 49.25 2.0 L67.05 2.3 60.7 -3.9 Q57.65 -9.5 53.9 -14.65 M30.2 -13.2 L28.25 -14.45 M21.85 -0.8 L35.75 -3.7 M80.55 6.0 L87.85 -1.3 Q104.35 13.6 115.45 35.8 L98.35 33.2 Q79.35 34.5 79.35 49.5 67.95 55.8 48.15 45.4 L12.95 45.4 Q-12.55 55.1 -36.45 46.0 -40.75 29.1 -53.65 29.5 L-74.65 29.5 Q-71.75 5.9 -76.75 -8.0 -89.0 -19.85 -97.7 -29.75 L-96.9 -29.75 Q-92.05 -26.8 -86.8 -29.75 -82.95 -23.45 -79.95 -29.75 -71.8 -30.2 -79.95 -36.0 L-79.95 -36.7 Q-72.75 -33.8 -64.65 -31.2 L-54.75 -31.8 -44.65 -32.5 M48.15 45.4 Q54.75 37.9 62.65 22.1 68.75 9.4 80.55 6.0 L67.05 2.3 M65.15 8.6 L62.65 11.6 M49.25 2.0 L47.65 2.0 Q10.45 3.1 -26.65 -6.8 -17.35 15.2 14.85 21.9 24.25 41.9 12.95 45.4 M46.25 35.7 L42.25 35.7 42.25 39.3 46.25 39.3 46.25 42.5 42.25 42.5 M62.45 6.4 L58.25 11.1 M7.55 9.4 L10.85 13.6 26.65 13.6 M30.05 42.5 L30.05 35.9 27.75 35.9 M30.05 35.9 L32.35 35.9 M38.95 35.6 L35.45 35.6 35.45 42.6 38.95 42.6 38.95 40.4 M-64.65 -31.2 Q-64.75 -24.0 -73.85 -19.8 -73.25 -13.4 -76.75 -8.0 -62.85 -8.4 -48.65 1.6 -44.15 -26.9 -54.75 -31.8 M-62.65 -23.5 L-64.85 -19.6 -60.25 -17.6 M-64.85 -19.6 L-67.15 -15.8 M-26.65 -6.8 Q-31.45 -9.0 -34.85 -12.1 -41.75 -17.5 -43.85 -25.9 M-28.05 8.3 Q-26.75 9.6 -26.75 11.4 -26.75 13.2 -28.05 14.5 -29.35 15.8 -31.15 15.8 -32.95 15.8 -34.25 14.5 -35.55 13.2 -35.55 11.4 -35.55 9.6 -34.25 8.3 -32.95 7.0 -31.15 7.0 -29.35 7.0 -28.05 8.3 M-13.15 37.5 L-13.15 44.7 M-8.95 36.8 L-8.95 42.5 M-17.15 38.3 L-17.15 46.2" fill="none" stroke="#000000" stroke-linecap="round" stroke-linejoin="round" stroke-width="2.0"/>
  </g>
  <defs>
    <linearGradient gradientTransform="matrix(-0.0019, 0.007, -0.0197, -0.0053, -80.85, -8.8)" gradientUnits="userSpaceOnUse" id="gradient0" spreadMethod="pad" x1="-819.2" x2="819.2">
      <stop offset="0.0" stop-color="#9d9d9d"/>
      <stop offset="0.33725490196078434" stop-color="#555555"/>
      <stop offset="1.0" stop-color="#777777"/>
    </linearGradient>
    <linearGradient gradientTransform="matrix(0.0036, 0.0063, -0.0177, 0.0102, -63.5, 30.05)" gradientUnits="userSpaceOnUse" id="gradient1" spreadMethod="pad" x1="-819.2" x2="819.2">
      <stop offset="0.0" stop-color="#9d9d9d"/>
      <stop offset="0.33725490196078434" stop-color="#555555"/>
      <stop offset="1.0" stop-color="#777777"/>
    </linearGradient>
    <linearGradient gradientTransform="matrix(0.0036, 0.0063, -0.0177, 0.0102, -75.4, 17.4)" gradientUnits="userSpaceOnUse" id="gradient2" spreadMethod="pad" x1="-819.2" x2="819.2">
      <stop offset="0.0" stop-color="#9d9d9d"/>
      <stop offset="0.33725490196078434" stop-color="#555555"/>
      <stop offset="1.0" stop-color="#777777"/>
    </linearGradient>
    <radialGradient cx="0" cy="0" gradientTransform="matrix(0.0114, -0.0429, 0.0963, 0.0256, 15.65, 6.9)" gradientUnits="userSpaceOnUse" id="gradient3" r="819.2" spreadMethod="pad">
      <stop offset="0.0" stop-color="#2f2f2f" stop-opacity="0.101960786"/>
      <stop offset="0.8392156862745098" stop-color="#1d302c" stop-opacity="0.2"/>
      <stop offset="1.0" stop-color="#000000"/>
    </radialGradient>
    <radialGradient cx="0" cy="0" gradientTransform="matrix(-0.002, 0.0202, -0.0833, -0.0085, -18.45, -30.9)" gradientUnits="userSpaceOnUse" id="gradient4" r="819.2" spreadMethod="pad">
      <stop offset="0.0" stop-color="#333333"/>
      <stop offset="1.0" stop-color="#222222"/>
    </radialGradient>
    <radialGradient cx="0" cy="0" gradientTransform="matrix(0.0114, -0.0429, 0.0963, 0.0256, 15.65, 6.9)" gradientUnits="userSpaceOnUse" id="gradient5" r="819.2" spreadMethod="pad">
      <stop offset="0.0" stop-color="#ffffff"/>
      <stop offset="0.7725490196078432" stop-color="#bfd9d3"/>
      <stop offset="1.0" stop-color="#fef5b4"/>
    </radialGradient>
    <radialGradient cx="0" cy="0" gradientTransform="matrix(0.0232, -0.0286, 0.0417, 0.0339, 24.95, 1.7)" gradientUnits="userSpaceOnUse" id="gradient6" r="819.2" spreadMethod="pad">
      <stop offset="0.0" stop-color="#ffffff"/>
      <stop offset="1.0" stop-color="#626262"/>
    </radialGradient>
    <radialGradient cx="0" cy="0" gradientTransform="matrix(0.0454, -0.0454, 0.0703, 0.0703, 45.55, -15.3)" gradientUnits="userSpaceOnUse" id="gradient7" r="819.2" spreadMethod="pad">
      <stop offset="0.5019607843137255" stop-color="#848484"/>
      <stop offset="1.0" stop-color="#333333"/>
    </radialGradient>
    <radialGradient cx="0" cy="0" gradientTransform="matrix(0.0, 0.0739, -0.1393, 0.0, 29.55, -2.4)" gradientUnits="userSpaceOnUse" id="gradient8" r="819.2" spreadMethod="pad">
      <stop offset="0.0" stop-color="#555555"/>
      <stop offset="1.0" stop-color="#000000"/>
    </radialGradient>
    <radialGradient cx="0" cy="0" gradientTransform="matrix(0.1069, 0.0, 0.0, 0.1069, -6.45, -30.6)" gradientUnits="userSpaceOnUse" id="gradient9" r="819.2" spreadMethod="pad">
      <stop offset="0.5215686274509804" stop-color="#959595"/>
      <stop offset="0.8313725490196079" stop-color="#5a5a5a"/>
      <stop offset="1.0" stop-color="#373737"/>
    </radialGradient>
    <radialGradient cx="0" cy="0" gradientTransform="matrix(0.0372, -0.0443, 0.105, 0.0883, -80.45, -52.9)" gradientUnits="userSpaceOnUse" id="gradient10" r="819.2" spreadMethod="pad">
      <stop offset="0.0" stop-color="#565656"/>
      <stop offset="1.0" stop-color="#000000"/>
    </radialGradient>
    <radialGradient cx="0" cy="0" gradientTransform="matrix(0.0351, -0.0351, 0.0417, 0.0417, -42.45, 3.1)" gradientUnits="userSpaceOnUse" id="gradient11" r="819.2" spreadMethod="pad">
      <stop offset="0.0" stop-color="#555555"/>
      <stop offset="0.6313725490196078" stop-color="#393939"/>
      <stop offset="1.0" stop-color="#333333"/>
    </radialGradient>
  </defs>
</svg>
