<?xml version="1.0" encoding="UTF-8" standalone="no"?>
<svg xmlns:xlink="http://www.w3.org/1999/xlink" height="56.95px" width="66.3px" xmlns="http://www.w3.org/2000/svg">
  <g transform="matrix(1.0, 0.0, 0.0, 1.0, 33.25, 26.1)">
    <path d="M11.0 -8.5 Q13.05 -6.65 13.1 -4.15 13.0 -1.5 10.85 0.4 8.55 2.2 5.4 2.6 2.1 2.75 -0.25 1.05 -2.8 -0.7 -2.75 -3.4 -2.8 -5.95 -0.2 -7.85 2.3 -9.6 5.55 -9.9 8.8 -10.2 11.0 -8.5" fill="#1a1a1a" fill-rule="evenodd" stroke="none"/>
    <path d="M22.05 -1.25 Q21.35 -8.45 15.8 -12.6 11.15 -17.0 3.85 -16.95 -4.45 -17.15 -11.3 -13.75 -17.8 -9.35 -17.9 -1.7 -18.45 6.15 -12.75 11.35 -5.7 15.8 3.2 15.05 11.35 15.9 16.7 12.35 22.0 7.05 22.05 -1.25 M18.6 -15.75 Q28.05 -10.2 30.1 0.15 30.1 15.45 22.05 24.95 14.05 28.75 1.85 24.75 -12.9 26.85 -24.25 20.9 -32.05 12.6 -29.8 -0.35 -29.85 -13.3 -20.1 -20.2 -9.9 -25.05 2.75 -23.25 12.6 -22.9 18.6 -15.75" fill="url(#gradient0)" fill-rule="evenodd" stroke="none"/>
    <path d="M22.05 -1.25 Q22.0 7.05 16.7 12.35 11.35 15.9 3.2 15.05 -5.7 15.8 -12.75 11.35 -18.45 6.15 -17.9 -1.7 -17.8 -9.35 -11.3 -13.75 -4.45 -17.15 3.85 -16.95 11.15 -17.0 15.8 -12.6 21.35 -8.45 22.05 -1.25 M11.0 -8.5 Q8.8 -10.2 5.55 -9.9 2.3 -9.6 -0.2 -7.85 -2.8 -5.95 -2.75 -3.4 -2.8 -0.7 -0.25 1.05 2.1 2.75 5.4 2.6 8.55 2.2 10.85 0.4 13.0 -1.5 13.1 -4.15 13.05 -6.65 11.0 -8.5" fill="url(#gradient1)" fill-rule="evenodd" stroke="none"/>
    <path d="M16.8 -18.8 Q18.95 -16.5 21.9 -14.4 M22.05 -1.25 Q22.0 7.05 16.7 12.35 11.35 15.9 3.2 15.05 -5.7 15.8 -12.75 11.35 -18.45 6.15 -17.9 -1.7 -17.8 -9.35 -11.3 -13.75 -4.45 -17.15 3.85 -16.95 11.15 -17.0 15.8 -12.6 21.35 -8.45 22.05 -1.25 M25.35 -11.55 L30.05 -6.65 M11.0 -8.5 Q13.05 -6.65 13.1 -4.15 13.0 -1.5 10.85 0.4 8.55 2.2 5.4 2.6 2.1 2.75 -0.25 1.05 -2.8 -0.7 -2.75 -3.4 -2.8 -5.95 -0.2 -7.85 2.3 -9.6 5.55 -9.9 8.8 -10.2 11.0 -8.5 M18.6 -15.75 Q28.05 -10.2 30.1 0.15 30.1 15.45 22.05 24.95 14.05 28.75 1.85 24.75 -12.9 26.85 -24.25 20.9 -32.05 12.6 -29.8 -0.35 -29.85 -13.3 -20.1 -20.2 -9.9 -25.05 2.75 -23.25 12.6 -22.9 18.6 -15.75 M9.85 -23.65 L14.4 -20.75 M25.85 24.95 Q23.25 27.95 20.6 29.55 M16.6 29.85 L9.6 28.05 M31.0 10.9 L28.0 20.75 M31.65 -3.55 Q32.15 -0.35 32.0 4.45 M-18.65 -23.65 L-24.95 -19.5 M-27.4 -16.3 L-30.85 -9.15 M-5.7 -25.1 L-13.9 -24.85 M-29.5 20.35 Q-26.75 22.95 -23.4 25.1 M-18.85 26.3 L-8.9 27.0 M-32.25 8.2 L-31.4 16.0 M-31.9 -4.05 Q-31.8 -0.15 -32.25 3.95 M-1.3 -25.0 L6.25 -24.65 M-2.55 26.7 L5.65 27.0" fill="none" stroke="#000000" stroke-linecap="round" stroke-linejoin="round" stroke-width="2.0"/>
  </g>
  <defs>
    <radialGradient cx="0" cy="0" gradientTransform="matrix(0.0369, 0.0, 0.0, 0.0369, 0.0, 0.0)" gradientUnits="userSpaceOnUse" id="gradient0" r="819.2" spreadMethod="pad">
      <stop offset="0.6588235294117647" stop-color="#321a01"/>
      <stop offset="0.9098039215686274" stop-color="#542b01"/>
      <stop offset="1.0" stop-color="#221100"/>
    </radialGradient>
    <radialGradient cx="0" cy="0" gradientTransform="matrix(0.0249, 0.0, 0.0, 0.0249, 0.3, 0.0)" gradientUnits="userSpaceOnUse" id="gradient1" r="819.2" spreadMethod="pad">
      <stop offset="0.6588235294117647" stop-color="#333333"/>
      <stop offset="1.0" stop-color="#1e1e1e"/>
    </radialGradient>
  </defs>
</svg>
