<?xml version="1.0" encoding="UTF-8" standalone="no"?>
<svg xmlns:xlink="http://www.w3.org/1999/xlink" height="13.95px" width="3.4px" xmlns="http://www.w3.org/2000/svg">
  <g transform="matrix(1.0, 0.0, 0.0, 1.0, 1.95, 7.0)">
    <path d="M0.55 -0.65 L-0.15 -0.7 Q0.35 0.4 0.05 1.7 L0.25 2.8 Q0.4 3.4 -0.15 3.9 L0.35 4.85 Q0.8 6.15 0.2 6.4 -0.3 6.55 -0.45 6.1 L-0.6 5.2 -1.4 3.7 Q-1.65 3.1 -0.8 2.9 -1.2 2.15 -0.9 0.55 L-1.2 -0.75 Q-1.35 -1.45 -0.25 -1.65 L-0.5 -2.7 -0.3 -3.85 -0.6 -4.5 -0.45 -5.5 Q-0.35 -6.4 -0.05 -6.45 0.4 -6.65 0.6 -6.05 L0.35 -4.75 0.7 -4.1 Q1.0 -3.25 0.5 -2.6 L0.8 -2.0 Q1.15 -0.9 0.55 -0.65" fill="#ffffff" fill-rule="evenodd" stroke="none"/>
    <path d="M0.55 -0.65 L-0.15 -0.7 Q0.35 0.4 0.05 1.7 L0.25 2.8 Q0.4 3.4 -0.15 3.9 L0.35 4.85 Q0.8 6.15 0.2 6.4 -0.3 6.55 -0.45 6.1 L-0.6 5.2 -1.4 3.7 Q-1.65 3.1 -0.8 2.9 -1.2 2.15 -0.9 0.55 L-1.2 -0.75 Q-1.35 -1.45 -0.25 -1.65 L-0.5 -2.7 -0.3 -3.85 -0.6 -4.5 -0.45 -5.5 Q-0.35 -6.4 -0.05 -6.45 0.4 -6.65 0.6 -6.05 L0.35 -4.75 0.7 -4.1 Q1.0 -3.25 0.5 -2.6 L0.8 -2.0 Q1.15 -0.9 0.55 -0.65 Z" fill="none" stroke="#63a3e0" stroke-linecap="round" stroke-linejoin="round" stroke-opacity="0.5019608" stroke-width="1.0"/>
  </g>
</svg>
