<?xml version="1.0" encoding="UTF-8" standalone="no"?>
<svg xmlns:xlink="http://www.w3.org/1999/xlink" height="13.75px" width="3.4px" xmlns="http://www.w3.org/2000/svg">
  <g transform="matrix(1.0, 0.0, 0.0, 1.0, 1.35, 7.0)">
    <path d="M1.45 -5.15 Q0.95 -5.0 0.95 -4.3 L1.05 -3.8 0.95 -3.3 Q1.55 -2.35 1.55 -1.7 1.55 -1.15 0.7 -0.85 L0.6 -0.8 0.65 -0.8 1.5 0.4 Q1.5 0.95 0.75 0.95 L0.65 1.05 0.8 1.65 0.7 2.3 0.8 2.7 Q0.8 3.15 0.45 3.3 L0.9 4.15 Q0.9 4.65 0.4 4.9 L0.5 5.45 Q0.5 6.25 -0.2 6.25 -0.7 6.25 -0.7 5.8 L-0.5 5.25 -0.7 4.2 -0.55 3.6 -0.85 2.85 Q-0.85 2.3 -0.35 2.3 L-0.25 1.95 -0.3 1.35 -0.4 1.0 0.15 0.1 Q-0.55 -0.3 -0.55 -0.95 L-0.5 -1.2 Q-0.5 -1.7 0.55 -1.85 -0.2 -2.95 -0.2 -3.5 L0.0 -4.05 -0.2 -4.9 0.05 -5.25 -0.35 -5.85 Q-0.35 -6.5 0.4 -6.5 1.45 -6.5 1.45 -5.15" fill="#ffffff" fill-rule="evenodd" stroke="none"/>
    <path d="M1.45 -5.15 Q0.95 -5.0 0.95 -4.3 L1.05 -3.8 0.95 -3.3 Q1.55 -2.35 1.55 -1.7 1.55 -1.15 0.7 -0.85 L0.6 -0.8 0.65 -0.8 1.5 0.4 Q1.5 0.95 0.75 0.95 L0.65 1.05 0.8 1.65 0.7 2.3 0.8 2.7 Q0.8 3.15 0.45 3.3 L0.9 4.15 Q0.9 4.65 0.4 4.9 L0.5 5.45 Q0.5 6.25 -0.2 6.25 -0.7 6.25 -0.7 5.8 L-0.5 5.25 -0.7 4.2 -0.55 3.6 -0.85 2.85 Q-0.85 2.3 -0.35 2.3 L-0.25 1.95 -0.3 1.35 -0.4 1.0 0.15 0.1 Q-0.55 -0.3 -0.55 -0.95 L-0.5 -1.2 Q-0.5 -1.7 0.55 -1.85 -0.2 -2.95 -0.2 -3.5 L0.0 -4.05 -0.2 -4.9 0.05 -5.25 -0.35 -5.85 Q-0.35 -6.5 0.4 -6.5 1.45 -6.5 1.45 -5.15 Z" fill="none" stroke="#63a3e0" stroke-linecap="round" stroke-linejoin="round" stroke-opacity="0.5019608" stroke-width="1.0"/>
  </g>
</svg>
