<?xml version="1.0" encoding="UTF-8" standalone="no"?>
<svg xmlns:xlink="http://www.w3.org/1999/xlink" height="14.25px" width="4.45px" xmlns="http://www.w3.org/2000/svg">
  <g transform="matrix(1.0, 0.0, 0.0, 1.0, 1.95, 6.7)">
    <path d="M0.35 -3.1 Q0.4 -2.95 0.9 -2.95 L1.6 -2.9 Q2.0 -2.9 2.0 -2.45 2.0 -1.9 1.05 -0.85 L-0.25 0.3 0.45 0.4 0.6 0.45 1.0 0.9 0.9 1.3 1.7 3.45 Q1.7 4.0 1.2 4.0 L0.85 3.95 0.8 3.9 0.95 4.3 0.25 4.8 0.85 6.45 Q0.85 7.05 0.4 7.05 -0.15 7.05 -0.2 6.5 L-0.95 4.35 Q-0.6 3.9 -0.6 3.3 -0.6 2.45 0.35 2.6 L-0.2 1.4 -0.85 1.25 Q-1.45 1.25 -1.45 0.25 -1.45 -0.85 0.05 -2.0 -0.9 -2.4 -0.9 -3.25 -0.9 -3.65 0.05 -4.3 L-0.15 -4.55 Q-0.45 -4.55 -0.7 -5.65 -0.7 -6.2 -0.2 -6.2 0.25 -6.2 0.65 -5.25 L1.3 -4.2 Q1.3 -3.6 0.55 -3.4 0.0 -3.1 0.35 -3.1" fill="#ffffff" fill-rule="evenodd" stroke="none"/>
    <path d="M0.35 -3.1 Q0.4 -2.95 0.9 -2.95 L1.6 -2.9 Q2.0 -2.9 2.0 -2.45 2.0 -1.9 1.05 -0.85 L-0.25 0.3 0.45 0.4 0.6 0.45 1.0 0.9 0.9 1.3 1.7 3.45 Q1.7 4.0 1.2 4.0 L0.85 3.95 0.8 3.9 0.95 4.3 0.25 4.8 0.85 6.45 Q0.85 7.05 0.4 7.05 -0.15 7.05 -0.2 6.5 L-0.95 4.35 Q-0.6 3.9 -0.6 3.3 -0.6 2.45 0.35 2.6 L-0.2 1.4 -0.85 1.25 Q-1.45 1.25 -1.45 0.25 -1.45 -0.85 0.05 -2.0 -0.9 -2.4 -0.9 -3.25 -0.9 -3.65 0.05 -4.3 L-0.15 -4.55 Q-0.45 -4.55 -0.7 -5.65 -0.7 -6.2 -0.2 -6.2 0.25 -6.2 0.65 -5.25 L1.3 -4.2 Q1.3 -3.6 0.55 -3.4 0.0 -3.1 0.35 -3.1 Z" fill="none" stroke="#63a3e0" stroke-linecap="round" stroke-linejoin="round" stroke-opacity="0.5019608" stroke-width="1.0"/>
  </g>
</svg>
