<?xml version="1.0" encoding="UTF-8" standalone="no"?>
<svg xmlns:xlink="http://www.w3.org/1999/xlink" height="14.25px" width="3.85px" xmlns="http://www.w3.org/2000/svg">
  <g transform="matrix(1.0, 0.0, 0.0, 1.0, 2.1, 6.75)">
    <path d="M0.85 -5.55 L1.1 -5.0 1.05 -4.8 Q1.05 -4.45 0.5 -4.45 L0.25 -4.5 Q-0.1 -4.5 -0.45 -5.15 L-0.55 -4.9 0.0 -4.1 0.75 -1.35 1.1 0.0 0.9 0.75 1.05 1.0 1.0 1.45 0.2 2.75 Q1.25 3.55 1.25 4.05 1.25 4.6 0.7 4.6 L0.3 4.4 0.15 4.4 1.0 6.4 Q1.0 7.0 0.5 7.0 0.0 7.0 -1.05 4.1 L-0.55 3.4 -0.9 2.75 -0.85 2.45 0.0 1.15 -0.15 0.65 0.05 0.0 -0.05 -0.35 -0.2 -1.2 Q-0.2 -1.7 -1.6 -5.05 -1.2 -6.25 -0.4 -6.25 0.25 -6.25 0.65 -5.6 L0.85 -5.55" fill="#ffffff" fill-rule="evenodd" stroke="none"/>
    <path d="M0.85 -5.55 L1.1 -5.0 1.05 -4.8 Q1.05 -4.45 0.5 -4.45 L0.25 -4.5 Q-0.1 -4.5 -0.45 -5.15 L-0.55 -4.9 0.0 -4.1 0.75 -1.35 1.1 0.0 0.9 0.75 1.05 1.0 1.0 1.45 0.2 2.75 Q1.25 3.55 1.25 4.05 1.25 4.6 0.7 4.6 L0.3 4.4 0.15 4.4 1.0 6.4 Q1.0 7.0 0.5 7.0 0.0 7.0 -1.05 4.1 L-0.55 3.4 -0.9 2.75 -0.85 2.45 0.0 1.15 -0.15 0.65 0.05 0.0 -0.05 -0.35 -0.2 -1.2 Q-0.2 -1.7 -1.6 -5.05 -1.2 -6.25 -0.4 -6.25 0.25 -6.25 0.65 -5.6 L0.85 -5.55 Z" fill="none" stroke="#63a3e0" stroke-linecap="round" stroke-linejoin="round" stroke-opacity="0.5019608" stroke-width="1.0"/>
  </g>
</svg>
