<?xml version="1.0" encoding="UTF-8" standalone="no"?>
<svg xmlns:xlink="http://www.w3.org/1999/xlink" height="21.5px" width="13.25px" xmlns="http://www.w3.org/2000/svg">
  <g transform="matrix(1.0, 0.0, 0.0, 1.0, 8.85, 4.0)">
    <path d="M-0.35 -1.65 L-1.3 -0.45 -0.35 -1.65 M-4.15 -1.15 L-4.2 -2.2 Q-3.0 -3.0 -1.25 -3.5 0.95 -3.45 3.0 -2.0 3.85 -0.7 3.9 0.7 3.95 1.85 3.5 3.15 L-0.75 12.35 Q-1.95 15.5 -3.0 16.3 -4.05 17.05 -4.8 16.1 L-6.3 14.95 Q-7.1 14.3 -7.0 12.25 L-3.2 1.7 -4.15 -1.15 M1.45 -1.15 L0.65 0.0 1.45 -1.15 M-4.15 13.1 L-2.9 13.0 -4.15 13.1 M-4.5 14.6 L-3.1 14.4 -4.5 14.6" fill="#ffffff" fill-rule="evenodd" stroke="none"/>
    <path d="M-4.8 16.1 Q-8.7 18.7 -8.3 13.6 L-7.5 10.25 Q-7.3 5.45 -4.15 -1.15 L-3.2 1.7 -7.0 12.25 Q-7.1 14.3 -6.3 14.95 L-4.8 16.1" fill="#333333" fill-rule="evenodd" stroke="none"/>
    <path d="M-4.8 16.1 Q-8.7 18.7 -8.3 13.6 L-7.5 10.25 Q-7.3 5.45 -4.15 -1.15" fill="none" stroke="#000000" stroke-linecap="round" stroke-linejoin="round" stroke-width="1.0"/>
    <path d="M-1.3 -0.45 L-0.35 -1.65 M-3.1 14.4 L-4.5 14.6 M-2.9 13.0 L-4.15 13.1 M0.65 0.0 L1.45 -1.15" fill="none" stroke="#999999" stroke-linecap="round" stroke-linejoin="round" stroke-width="1.0"/>
    <path d="M-4.15 -1.15 L-4.2 -2.2 Q-3.0 -3.0 -1.25 -3.5 0.95 -3.45 3.0 -2.0 3.85 -0.7 3.9 0.7 3.95 1.85 3.5 3.15 L-0.75 12.35 Q-1.95 15.5 -3.0 16.3 -4.05 17.05 -4.8 16.1 L-6.3 14.95 Q-7.1 14.3 -7.0 12.25 L-3.2 1.7 -4.15 -1.15 Z" fill="none" stroke="#666666" stroke-linecap="round" stroke-linejoin="round" stroke-width="1.0"/>
  </g>
</svg>
