<?xml version="1.0" encoding="UTF-8" standalone="no"?>
<svg xmlns:xlink="http://www.w3.org/1999/xlink" height="7.55px" width="8.9px" xmlns="http://www.w3.org/2000/svg">
  <g transform="matrix(1.0, 0.0, 0.0, 1.0, 4.55, 4.3)">
    <path d="M-0.1 -3.8 Q1.55 -3.8 2.7 -2.65 3.85 -1.5 3.85 0.15 3.85 1.35 2.7 2.75 L-3.45 2.25 Q-4.05 1.35 -4.05 0.15 -4.05 -1.5 -2.9 -2.65 -1.75 -3.8 -0.1 -3.8" fill="#ffffff" fill-rule="evenodd" stroke="none"/>
    <path d="M-0.1 -3.8 Q1.55 -3.8 2.7 -2.65 3.85 -1.5 3.85 0.15 3.85 1.35 2.7 2.75 L-3.45 2.25 Q-4.05 1.35 -4.05 0.15 -4.05 -1.5 -2.9 -2.65 -1.75 -3.8 -0.1 -3.8 Z" fill="none" stroke="#000000" stroke-linecap="round" stroke-linejoin="round" stroke-width="1.0"/>
  </g>
</svg>
