<?xml version="1.0" encoding="UTF-8" standalone="no"?>
<svg xmlns:xlink="http://www.w3.org/1999/xlink" height="19.65px" width="17.9px" xmlns="http://www.w3.org/2000/svg">
  <g transform="matrix(1.0, 0.0, 0.0, 1.0, 6.25, -0.65)">
    <path d="M5.55 9.85 Q5.55 10.35 6.0 10.35 6.55 10.35 6.55 9.85 6.55 9.35 6.1 9.35 5.55 9.35 5.55 9.85 M4.05 8.7 Q3.5 8.7 3.5 9.2 3.5 9.75 4.0 9.75 4.55 9.75 4.55 9.25 4.55 8.7 4.05 8.7 M4.9 7.25 Q4.35 7.25 4.35 7.75 4.35 8.25 4.8 8.25 5.35 8.25 5.35 7.75 5.35 7.25 4.9 7.25 M2.3 1.6 Q3.1 1.8 6.25 6.35 8.7 9.85 8.7 11.55 8.7 15.1 4.7 15.1 0.1 15.1 -1.95 8.35 -2.6 6.2 -4.05 4.9 -5.5 3.55 -5.7 2.65 -5.9 1.7 -4.85 2.05 L-2.65 2.9 Q-0.15 3.45 2.3 1.6" fill="#ffffff" fill-rule="evenodd" stroke="none"/>
    <path d="M4.9 7.25 Q5.35 7.25 5.35 7.75 5.35 8.25 4.8 8.25 4.35 8.25 4.35 7.75 4.35 7.25 4.9 7.25 M4.05 8.7 Q4.55 8.7 4.55 9.25 4.55 9.75 4.0 9.75 3.5 9.75 3.5 9.2 3.5 8.7 4.05 8.7 M5.55 9.85 Q5.55 9.35 6.1 9.35 6.55 9.35 6.55 9.85 6.55 10.35 6.0 10.35 5.55 10.35 5.55 9.85" fill="#000000" fill-rule="evenodd" stroke="none"/>
    <path d="M-2.65 2.9 Q-1.3 0.25 2.3 1.6 -0.15 3.45 -2.65 2.9" fill="#2263b2" fill-rule="evenodd" stroke="none"/>
    <path d="M-2.65 2.9 Q-1.3 0.25 2.3 1.6" fill="none" stroke="#9cd7fc" stroke-linecap="round" stroke-linejoin="round" stroke-width="1.0"/>
    <path d="M2.3 1.6 Q3.1 1.8 6.25 6.35 8.7 9.85 8.7 11.55 8.7 15.1 4.7 15.1 0.1 15.1 -1.95 8.35 -2.6 6.2 -4.05 4.9 -5.5 3.55 -5.7 2.65 -5.9 1.7 -4.85 2.05 L-2.65 2.9" fill="none" stroke="#000000" stroke-linecap="round" stroke-linejoin="round" stroke-width="1.0"/>
    <path d="M7.8 12.55 L10.0 13.9 11.15 16.6 M6.3 13.95 L8.75 14.95 9.75 18.4 M5.2 15.7 L5.75 17.5 8.8 19.8" fill="none" stroke="#000000" stroke-linecap="round" stroke-linejoin="round" stroke-width="1.0"/>
  </g>
</svg>
