<?xml version="1.0" encoding="UTF-8" standalone="no"?>
<svg xmlns:xlink="http://www.w3.org/1999/xlink" height="14.55px" width="38.65px" xmlns="http://www.w3.org/2000/svg">
  <g transform="matrix(1.0, 0.0, 0.0, 1.0, 3.2, 6.65)">
    <path d="M-1.55 -1.6 L2.65 -0.9 3.45 2.1 2.25 3.25 0.45 7.4 -2.35 6.6 -1.55 3.8 -2.7 2.35 -1.55 -1.6 M28.8 -2.1 L34.95 -2.15 32.95 0.3 Q28.9 1.15 28.8 -2.1" fill="#404040" fill-rule="evenodd" stroke="none"/>
    <path d="M15.4 -0.75 Q18.75 -1.35 23.35 -3.2 L28.8 -2.1 Q28.9 1.15 32.95 0.3 L32.95 2.8 17.5 2.8 Q15.8 1.55 15.4 -0.75 M22.8 0.4 L20.7 1.3 22.8 0.4 M18.05 0.45 L21.7 -0.85 18.05 0.45" fill="#a6a6a6" fill-rule="evenodd" stroke="none"/>
    <path d="M5.0 -2.95 L7.85 -0.8 11.25 -0.45 15.4 -0.75 Q15.8 1.55 17.5 2.8 L6.45 2.8 3.45 2.1 2.65 -0.9 -1.55 -1.6 -0.1 -2.95 5.0 -2.95 M6.25 1.15 L6.65 0.2 6.25 1.15 M4.75 1.05 L5.25 -0.35 4.75 1.05" fill="#6f6f6f" fill-rule="evenodd" stroke="none"/>
    <path d="M9.15 -3.2 L5.0 -2.95 -0.1 -2.95 1.95 -6.15 7.25 -5.1 9.15 -3.2" fill="#a2a2a2" fill-rule="evenodd" stroke="none"/>
    <path d="M15.4 -0.75 L11.25 -0.45 7.85 -0.8 5.0 -2.95 9.15 -3.2 23.35 -3.2 Q18.75 -1.35 15.4 -0.75" fill="#62c8f2" fill-rule="evenodd" stroke="none"/>
    <path d="M5.0 -2.95 L7.85 -0.8 11.25 -0.45 15.4 -0.75 Q18.75 -1.35 23.35 -3.2 L9.15 -3.2 5.0 -2.95 -0.1 -2.95 -1.55 -1.6 2.65 -0.9 3.45 2.1 6.45 2.8 17.5 2.8 Q15.8 1.55 15.4 -0.75 M-0.1 -2.95 L1.95 -6.15 7.25 -5.1 9.15 -3.2 M28.8 -2.1 L23.35 -3.2 M28.8 -2.1 L34.95 -2.15 32.95 0.3 32.95 2.8 17.5 2.8 M20.7 1.3 L22.8 0.4 M6.65 0.2 L6.25 1.15 M3.45 2.1 L2.25 3.25 0.45 7.4 -2.35 6.6 -1.55 3.8 -2.7 2.35 -1.55 -1.6 M32.95 0.3 Q28.9 1.15 28.8 -2.1 M21.7 -0.85 L18.05 0.45 M5.25 -0.35 L4.75 1.05" fill="none" stroke="#333333" stroke-linecap="round" stroke-linejoin="round" stroke-width="1.0"/>
  </g>
</svg>
