<?xml version="1.0" encoding="UTF-8" standalone="no"?>
<svg xmlns:xlink="http://www.w3.org/1999/xlink" height="19.45px" width="24.25px" xmlns="http://www.w3.org/2000/svg">
  <g transform="matrix(1.0, 0.0, 0.0, 1.0, 12.5, 16.25)">
    <path d="M-3.6 -9.25 L-4.5 -8.05 Q-5.6 -5.6 -3.65 -3.7 L-2.4 -2.6 0.05 -3.4 2.35 -0.4 -0.9 -0.4 -3.15 -0.75 Q-4.65 -2.0 -4.8 -2.75 L-9.35 -3.5 Q-8.9 -5.8 -11.15 -7.5 -12.75 -8.3 -11.3 -9.65 -8.35 -10.45 -8.2 -11.1 L-7.45 -12.4 Q-6.95 -13.0 -5.35 -13.6 L-2.45 -14.45 Q-4.6 -12.95 -4.5 -11.1 -2.85 -10.55 -3.6 -9.25" fill="#453f2f" fill-rule="evenodd" stroke="none"/>
    <path d="M10.65 -8.65 L7.3 -8.5 Q6.8 -9.25 8.25 -10.15 L10.65 -8.65" fill="#564b39" fill-rule="evenodd" stroke="none"/>
    <path d="M5.5 -13.6 L2.55 -10.2 Q1.25 -8.85 1.5 -8.05 L3.65 -8.0 Q2.25 -7.45 2.1 -5.45 L3.45 -3.05 6.2 -2.3 Q7.2 -1.6 8.6 -1.8 L9.5 -1.8 Q11.25 -1.45 10.45 1.9 5.75 1.35 2.35 -0.4 L0.05 -3.4 -2.4 -2.6 -3.65 -3.7 Q-5.6 -5.6 -4.5 -8.05 L-3.6 -9.25 -1.7 -9.25 Q1.4 -12.4 2.6 -15.0 L3.45 -14.75 Q4.5 -14.45 5.5 -13.6" fill="#5e563f" fill-rule="evenodd" stroke="none"/>
    <path d="M5.5 -13.6 L6.4 -12.65 7.3 -10.9 8.25 -10.15 Q6.8 -9.25 7.3 -8.5 L10.65 -8.65 Q11.5 -7.55 11.15 -7.05 10.8 -6.55 10.3 -6.75 L8.8 -6.7 8.05 -6.55 Q6.2 -6.2 4.35 -4.95 5.05 -3.1 6.2 -2.3 L3.45 -3.05 2.1 -5.45 Q2.25 -7.45 3.65 -8.0 L1.5 -8.05 Q1.25 -8.85 2.55 -10.2 L5.5 -13.6 M2.6 -15.0 Q1.4 -12.4 -1.7 -9.25 L-3.6 -9.25 Q-2.85 -10.55 -4.5 -11.1 -4.6 -12.95 -2.45 -14.45 L-1.85 -15.65 Q-0.8 -15.85 0.1 -15.65 L2.6 -15.0" fill="#4d4433" fill-rule="evenodd" stroke="none"/>
    <path d="M2.35 -0.4 L3.0 1.1 Q0.3 3.85 -3.15 1.05 L-3.15 -0.75 -0.9 -0.4 2.35 -0.4" fill="#333333" fill-rule="evenodd" stroke="none"/>
    <path d="M6.2 -2.3 Q5.05 -3.1 4.35 -4.95 6.2 -6.2 8.05 -6.55 L8.8 -6.7 Q10.25 -5.1 9.5 -1.8 L8.6 -1.8 Q7.2 -1.6 6.2 -2.3" fill="url(#gradient0)" fill-rule="evenodd" stroke="none"/>
    <path d="M-3.15 -0.75 L-3.15 1.05 Q0.3 3.85 3.0 1.1 L2.35 -0.4 -0.9 -0.4 -3.15 -0.75 Q-4.65 -2.0 -4.8 -2.75 L-9.35 -3.5 Q-8.9 -5.8 -11.15 -7.5 -12.75 -8.3 -11.3 -9.65 -8.35 -10.45 -8.2 -11.1 L-7.45 -12.4 Q-6.95 -13.0 -5.35 -13.6 L-2.45 -14.45" fill="none" stroke="#232018" stroke-linecap="round" stroke-linejoin="round" stroke-width="1.0"/>
    <path d="M-3.6 -9.25 L-4.5 -8.05 Q-5.6 -5.6 -3.65 -3.7 L-2.4 -2.6 0.05 -3.4 2.35 -0.4 M-2.45 -14.45 Q-4.6 -12.95 -4.5 -11.1 -2.85 -10.55 -3.6 -9.25" fill="none" stroke="#2d2720" stroke-linecap="round" stroke-linejoin="round" stroke-width="1.0"/>
    <path d="M8.25 -10.15 L7.3 -10.9 6.4 -12.65 5.5 -13.6 M6.2 -2.3 Q5.05 -3.1 4.35 -4.95 6.2 -6.2 8.05 -6.55 L8.8 -6.7 10.3 -6.75 Q10.8 -6.55 11.15 -7.05 11.5 -7.55 10.65 -8.65 M2.6 -15.0 L0.1 -15.65 Q-0.8 -15.85 -1.85 -15.65 L-2.45 -14.45" fill="none" stroke="#28231c" stroke-linecap="round" stroke-linejoin="round" stroke-width="1.0"/>
    <path d="M5.5 -13.6 L2.55 -10.2 Q1.25 -8.85 1.5 -8.05 L3.65 -8.0 Q2.25 -7.45 2.1 -5.45 L3.45 -3.05 6.2 -2.3 Q7.2 -1.6 8.6 -1.8 L9.5 -1.8 Q11.25 -1.45 10.45 1.9 5.75 1.35 2.35 -0.4 M10.65 -8.65 L7.3 -8.5 Q6.8 -9.25 8.25 -10.15 L10.65 -8.65 M5.5 -13.6 Q4.5 -14.45 3.45 -14.75 L2.6 -15.0 Q1.4 -12.4 -1.7 -9.25 L-3.6 -9.25" fill="none" stroke="#3d3429" stroke-linecap="round" stroke-linejoin="round" stroke-width="1.0"/>
    <path d="M8.8 -6.7 Q10.25 -5.1 9.5 -1.8" fill="none" stroke="#211d1b" stroke-linecap="round" stroke-linejoin="round" stroke-width="1.0"/>
    <path d="M-4.85 -2.7 Q-3.4 0.4 -0.2 0.65 3.0 0.9 5.45 -0.9 7.3 -0.6 7.25 0.7 4.25 2.75 -0.4 2.7 -5.05 2.7 -7.05 -1.7 -6.55 -3.55 -4.85 -2.7" fill="#91694f" fill-rule="evenodd" stroke="none"/>
    <path d="M-4.85 -2.7 Q-3.4 0.4 -0.2 0.65 3.0 0.9 5.45 -0.9 7.3 -0.6 7.25 0.7 4.25 2.75 -0.4 2.7 -5.05 2.7 -7.05 -1.7 -6.55 -3.55 -4.85 -2.7 Z" fill="none" stroke="#4c3629" stroke-linecap="round" stroke-linejoin="round" stroke-width="1.0"/>
  </g>
  <defs>
    <linearGradient gradientTransform="matrix(0.0033, 0.0, 0.0, 0.0031, 7.05, -4.25)" gradientUnits="userSpaceOnUse" id="gradient0" spreadMethod="pad" x1="-819.2" x2="819.2">
      <stop offset="0.0" stop-color="#917c69"/>
      <stop offset="1.0" stop-color="#d5b9a3"/>
    </linearGradient>
  </defs>
</svg>
