<?xml version="1.0" encoding="UTF-8" standalone="no"?>
<svg xmlns:xlink="http://www.w3.org/1999/xlink" height="21.2px" width="12.5px" xmlns="http://www.w3.org/2000/svg">
  <g transform="matrix(1.0, 0.0, 0.0, 1.0, 6.1, 3.95)">
    <path d="M0.95 -2.75 L0.95 -2.8 Q4.05 -4.25 5.9 -2.35 6.1 0.9 3.95 4.15 L2.75 4.15 Q0.7 3.9 -0.7 2.1 L-0.75 2.1 Q-1.1 0.45 -0.55 -1.2 -1.1 0.45 -0.75 2.1 L-4.45 1.75 Q-4.8 0.75 -4.55 -1.4 L-3.7 -1.45 -3.4 -1.4 -1.85 -1.15 -0.55 -1.2 Q0.3 -1.55 0.95 -2.75" fill="#ffffff" fill-rule="evenodd" stroke="none"/>
    <path d="M0.95 -2.75 Q0.3 -1.55 -0.55 -1.2 L-1.85 -1.15 -3.4 -1.4 Q-2.1 -3.5 0.95 -2.75 M-0.75 2.1 L-0.7 2.1 Q0.7 3.9 2.75 4.15 L2.35 5.45 0.3 5.0 Q-1.6 6.35 -4.85 6.6 -5.0 3.2 -4.45 1.75 L-0.75 2.1 M1.0 15.0 Q-1.9 17.7 -4.15 16.25 L-4.45 15.15 1.0 15.0" fill="#333333" fill-rule="evenodd" stroke="none"/>
    <path d="M2.35 5.45 L3.55 5.55 3.45 5.8 3.55 5.5 3.0 7.35 Q2.5 10.1 1.0 15.0 L-4.45 15.15 -4.7 15.3 -5.55 9.05 Q-5.8 7.0 -4.85 6.6 -1.6 6.35 0.3 5.0 L2.35 5.45 M-3.9 12.8 L-1.85 12.8 -3.9 12.8 M-2.3 11.3 L-3.95 11.3 -2.3 11.3" fill="#cccccc" fill-rule="evenodd" stroke="none"/>
    <path d="M2.75 4.15 L2.35 5.45 M1.0 15.0 Q-1.9 17.7 -4.15 16.25 L-4.45 15.15 M-4.85 6.6 Q-5.0 3.2 -4.45 1.75 M-3.7 -1.45 L-3.4 -1.4 Q-2.1 -3.5 0.95 -2.75" fill="none" stroke="#000000" stroke-linecap="round" stroke-linejoin="round" stroke-width="1.0"/>
    <path d="M-0.55 -1.2 Q-1.1 0.45 -0.75 2.1 M-3.95 11.3 L-2.3 11.3 M-1.85 12.8 L-3.9 12.8" fill="none" stroke="#999999" stroke-linecap="round" stroke-linejoin="round" stroke-width="1.0"/>
    <path d="M2.75 4.15 L3.95 4.15 Q6.1 0.9 5.9 -2.35 4.05 -4.25 0.95 -2.8 L0.95 -2.75 Q0.3 -1.55 -0.55 -1.2 L-1.85 -1.15 -3.4 -1.4 M-0.75 2.1 L-0.7 2.1 Q0.7 3.9 2.75 4.15 M2.35 5.45 L3.55 5.55 3.55 5.5 3.0 7.35 Q2.5 10.1 1.0 15.0 L-4.45 15.15 -4.7 15.3 -5.55 9.05 Q-5.8 7.0 -4.85 6.6 -1.6 6.35 0.3 5.0 L2.35 5.45 M-4.45 1.75 Q-4.8 0.75 -4.55 -1.4 L-3.7 -1.45 M3.55 5.5 L3.45 5.8 3.55 5.55 M-0.75 2.1 L-4.45 1.75" fill="none" stroke="#666666" stroke-linecap="round" stroke-linejoin="round" stroke-width="1.0"/>
  </g>
</svg>
