<?xml version="1.0" encoding="UTF-8" standalone="no"?>
<svg xmlns:xlink="http://www.w3.org/1999/xlink" height="13.75px" width="3.55px" xmlns="http://www.w3.org/2000/svg">
  <g transform="matrix(1.0, 0.0, 0.0, 1.0, 1.8, 6.85)">
    <path d="M0.8 -5.7 L0.55 -4.7 0.85 -3.3 0.75 -2.8 Q1.25 -2.35 1.25 -1.7 L1.0 -0.75 0.75 -0.1 0.15 0.55 0.45 1.45 0.0 2.2 0.1 2.35 0.45 3.25 0.05 4.1 0.3 5.0 0.5 5.85 Q0.5 6.4 0.0 6.4 -0.65 6.4 -0.65 5.0 L-1.1 3.9 -0.65 3.15 Q-1.3 2.55 -1.3 2.0 L-1.25 1.75 -0.6 1.3 -1.05 0.3 -0.15 -0.6 0.05 -1.45 0.15 -1.75 -0.35 -2.75 -0.15 -3.45 Q-0.15 -3.85 -0.5 -4.65 L-0.3 -5.25 -0.6 -5.8 Q-0.6 -6.35 0.2 -6.35 0.8 -6.35 0.8 -5.7" fill="#ffffff" fill-rule="evenodd" stroke="none"/>
    <path d="M0.8 -5.7 L0.55 -4.7 0.85 -3.3 0.75 -2.8 Q1.25 -2.35 1.25 -1.7 L1.0 -0.75 0.75 -0.1 0.15 0.55 0.45 1.45 0.0 2.2 0.1 2.35 0.45 3.25 0.05 4.1 0.3 5.0 0.5 5.85 Q0.5 6.4 0.0 6.4 -0.65 6.4 -0.65 5.0 L-1.1 3.9 -0.65 3.15 Q-1.3 2.55 -1.3 2.0 L-1.25 1.75 -0.6 1.3 -1.05 0.3 -0.15 -0.6 0.05 -1.45 0.15 -1.75 -0.35 -2.75 -0.15 -3.45 Q-0.15 -3.85 -0.5 -4.65 L-0.3 -5.25 -0.6 -5.8 Q-0.6 -6.35 0.2 -6.35 0.8 -6.35 0.8 -5.7 Z" fill="none" stroke="#63a3e0" stroke-linecap="round" stroke-linejoin="round" stroke-opacity="0.5019608" stroke-width="1.0"/>
  </g>
</svg>
