<?xml version="1.0" encoding="UTF-8" standalone="no"?>
<svg xmlns:xlink="http://www.w3.org/1999/xlink" height="14.1px" width="3.25px" xmlns="http://www.w3.org/2000/svg">
  <g transform="matrix(1.0, 0.0, 0.0, 1.0, 1.6, 6.95)">
    <path d="M0.85 -5.8 L0.8 -5.5 0.3 -5.05 Q1.15 -4.35 1.15 -3.65 L1.1 -3.25 0.15 -2.0 Q1.1 -1.45 1.1 -1.0 L0.85 -0.35 0.75 0.05 0.95 0.6 0.15 1.6 Q0.95 3.35 0.95 3.8 0.95 4.45 0.4 4.35 L0.4 4.55 0.65 5.4 0.9 6.15 Q0.9 6.65 0.4 6.65 -0.3 6.65 -0.85 3.85 L-0.25 3.15 -0.9 1.5 -0.85 1.25 Q-0.85 0.8 -0.15 0.4 L-0.25 -0.2 -0.05 -0.9 -1.1 -2.0 -0.55 -2.8 0.15 -3.7 Q0.15 -4.05 -0.8 -5.1 L-0.65 -5.6 0.25 -6.45 Q0.65 -6.45 0.85 -5.8" fill="#ffffff" fill-rule="evenodd" stroke="none"/>
    <path d="M0.85 -5.8 L0.8 -5.5 0.3 -5.05 Q1.15 -4.35 1.15 -3.65 L1.1 -3.25 0.15 -2.0 Q1.1 -1.45 1.1 -1.0 L0.85 -0.35 0.75 0.05 0.95 0.6 0.15 1.6 Q0.95 3.35 0.95 3.8 0.95 4.45 0.4 4.35 L0.4 4.55 0.65 5.4 0.9 6.15 Q0.9 6.65 0.4 6.65 -0.3 6.65 -0.85 3.85 L-0.25 3.15 -0.9 1.5 -0.85 1.25 Q-0.85 0.8 -0.15 0.4 L-0.25 -0.2 -0.05 -0.9 -1.1 -2.0 -0.55 -2.8 0.15 -3.7 Q0.15 -4.05 -0.8 -5.1 L-0.65 -5.6 0.25 -6.45 Q0.65 -6.45 0.85 -5.8 Z" fill="none" stroke="#63a3e0" stroke-linecap="round" stroke-linejoin="round" stroke-opacity="0.5019608" stroke-width="1.0"/>
  </g>
</svg>
