<?xml version="1.0" encoding="UTF-8" standalone="no"?>
<svg xmlns:xlink="http://www.w3.org/1999/xlink" height="9.4px" width="7.25px" xmlns="http://www.w3.org/2000/svg">
  <g transform="matrix(1.0, 0.0, 0.0, 1.0, 2.95, 1.95)">
    <path d="M2.2 -1.25 Q3.0 -2.05 3.5 -1.6 4.1 -1.05 4.1 0.2 L3.7 0.95 3.4 1.2 Q4.3 1.95 4.3 3.2 L4.05 3.75 3.4 4.0 3.35 4.0 Q2.3 4.0 2.1 3.1 L2.05 2.2 2.05 1.9 2.5 1.95 3.1 1.65 3.3 1.15 2.85 0.1 2.25 -1.0 2.2 -1.25 M-0.95 2.4 L-1.25 2.45 Q-2.05 2.45 -2.95 0.75 -2.95 -0.35 -1.7 0.15 L-1.1 0.45 Q-0.5 0.0 0.7 -0.05 L1.3 1.3 Q0.5 1.35 -0.15 1.75 L-0.45 2.0 -0.7 2.15 -0.95 2.4" fill="#555555" fill-rule="evenodd" stroke="none"/>
    <path d="M0.7 -0.05 L0.55 -0.55 Q0.55 -1.2 1.25 -1.75 1.9 -2.3 2.2 -1.25 L2.25 -1.0 2.85 0.1 3.3 1.15 3.1 1.65 2.5 1.95 2.05 1.9 1.3 1.3 0.7 -0.05" fill="#6f6f6f" fill-rule="evenodd" stroke="none"/>
    <path d="M3.4 4.0 L3.45 4.1 3.6 5.35 3.55 5.75 4.05 6.55 3.8 7.2 3.25 7.45 Q1.75 7.45 1.05 4.4 L1.1 3.75 -0.4 2.85 -0.95 2.4 -0.7 2.15 -0.45 2.0 -0.15 1.75 Q0.5 1.35 1.3 1.3 L2.05 1.9 2.05 2.2 2.1 3.1 Q2.3 4.0 3.35 4.0 L3.4 4.0" fill="#8c8c8c" fill-rule="evenodd" stroke="none"/>
  </g>
</svg>
