<?xml version="1.0" encoding="UTF-8" standalone="no"?>
<svg xmlns:xlink="http://www.w3.org/1999/xlink" height="28.8px" width="21.3px" xmlns="http://www.w3.org/2000/svg">
  <g transform="matrix(1.0, 0.0, 0.0, 1.0, 13.55, 29.85)">
    <path d="M-5.05 -29.35 Q-4.55 -28.5 -0.35 -28.6 2.65 -28.35 3.85 -27.3 -3.9 -25.6 -5.05 -29.35" fill="#2c2c2c" fill-rule="evenodd" stroke="none"/>
    <path d="M0.55 -14.3 L3.8 -13.9 0.55 -14.3 M0.75 -11.75 L3.25 -11.55 0.75 -11.75 M4.4 -6.3 L5.35 -5.45 Q5.2 -3.6 3.35 -2.45 1.5 -1.35 -1.6 -1.6 -4.7 -1.9 -6.5 -7.05 L4.4 -6.3 M-6.85 -28.0 Q-6.05 -29.1 -5.05 -29.35 -3.9 -25.6 3.85 -27.3 L4.4 -27.4 Q10.1 -21.8 4.4 -9.15 0.65 -9.3 -1.7 -9.95 -3.55 -10.45 -4.55 -11.15 L-7.35 -13.05 Q-9.25 -16.5 -8.6 -23.45 -7.95 -26.55 -6.85 -28.0" fill="#cccccc" fill-rule="evenodd" stroke="none"/>
    <path d="M-6.5 -7.05 Q-6.0 -7.95 -6.3 -9.55 L-12.05 -13.4 -13.05 -24.6 -10.4 -29.1 -6.85 -28.0 Q-7.95 -26.55 -8.6 -23.45 -9.25 -16.5 -7.35 -13.05 L-4.55 -11.15 Q-3.55 -10.45 -1.7 -9.95 0.65 -9.3 4.4 -9.15 L4.4 -6.3 -6.5 -7.05 M-4.1 -8.1 L-4.65 -9.15 -4.1 -8.1 M-2.75 -8.1 L-3.3 -9.15 -2.75 -8.1 M-6.3 -9.55 Q-6.75 -12.75 -7.35 -13.05 -6.75 -12.75 -6.3 -9.55" fill="#999999" fill-rule="evenodd" stroke="none"/>
    <path d="M-5.05 -29.35 Q-4.55 -28.5 -0.35 -28.6 2.65 -28.35 3.85 -27.3" fill="none" stroke="#000000" stroke-linecap="round" stroke-linejoin="round" stroke-width="1.0"/>
    <path d="M3.25 -11.55 L0.75 -11.75 M3.8 -13.9 L0.55 -14.3 M4.4 -6.3 L5.35 -5.45 Q5.2 -3.6 3.35 -2.45 1.5 -1.35 -1.6 -1.6 -4.7 -1.9 -6.5 -7.05 -6.0 -7.95 -6.3 -9.55 L-12.05 -13.4 -13.05 -24.6 -10.4 -29.1 -6.85 -28.0 Q-6.05 -29.1 -5.05 -29.35 -3.9 -25.6 3.85 -27.3 L4.4 -27.4 Q10.1 -21.8 4.4 -9.15 L4.4 -6.3 -6.5 -7.05 M-7.35 -13.05 Q-9.25 -16.5 -8.6 -23.45 -7.95 -26.55 -6.85 -28.0 M-3.3 -9.15 L-2.75 -8.1 M-4.65 -9.15 L-4.1 -8.1 M4.4 -9.15 Q0.65 -9.3 -1.7 -9.95 -3.55 -10.45 -4.55 -11.15 L-7.35 -13.05 Q-6.75 -12.75 -6.3 -9.55" fill="none" stroke="#666666" stroke-linecap="round" stroke-linejoin="round" stroke-width="1.0"/>
  </g>
</svg>
