<?xml version="1.0" encoding="UTF-8" standalone="no"?>
<svg xmlns:xlink="http://www.w3.org/1999/xlink" height="5.0px" width="6.6px" xmlns="http://www.w3.org/2000/svg">
  <g transform="matrix(1.0, 0.0, 0.0, 1.0, 3.25, 3.8)">
    <path d="M-1.15 -2.3 L-1.15 -2.25 Q-1.3 -1.65 0.2 -1.65 1.5 -1.65 1.5 -2.25 L1.55 -2.3 1.8 -2.4 Q3.45 -2.4 3.35 -0.75 3.35 0.3 2.75 0.35 L2.65 0.35 Q1.85 0.35 1.85 -0.7 L-2.4 -1.35 Q-3.25 -1.65 -3.25 -2.3 -3.3 -3.0 -2.5 -3.15 -1.75 -3.25 -1.5 -2.3 L-1.15 -2.3" fill="#6a6a6a" fill-rule="evenodd" stroke="none"/>
    <path d="M1.55 -2.3 L1.5 -2.25 Q1.5 -1.65 0.2 -1.65 -1.3 -1.65 -1.15 -2.25 L-1.15 -2.3 Q-0.8 -4.3 0.45 -3.65 1.7 -3.0 1.55 -2.3" fill="#9d9d9d" fill-rule="evenodd" stroke="none"/>
    <path d="M-2.4 -1.35 L1.85 -0.7 Q1.85 0.35 2.65 0.35 L2.75 0.35 2.75 0.7 1.6 0.7 -0.1 0.55 -2.25 0.25 -2.35 0.2 -2.4 -1.35" fill="#a6a6a6" fill-rule="evenodd" stroke="none"/>
    <path d="M-2.4 -1.35 L-2.35 0.2 -2.25 0.25 -0.1 0.55 1.6 0.7 2.75 0.7 2.75 0.35" fill="none" stroke="#000000" stroke-linecap="round" stroke-linejoin="round" stroke-width="1.0"/>
  </g>
</svg>
