<?xml version="1.0" encoding="UTF-8" standalone="no"?>
<svg xmlns:xlink="http://www.w3.org/1999/xlink" height="19.25px" width="19.15px" xmlns="http://www.w3.org/2000/svg">
  <g transform="matrix(1.0, 0.0, 0.0, 1.0, 9.5, 14.3)">
    <path d="M-4.85 -2.55 L-7.9 -3.75 -9.0 -7.55 -6.0 -9.75 -6.3 -7.35 Q-6.45 -4.4 -4.85 -2.55 M-7.45 -6.35 L-7.55 -7.25 -7.45 -6.35 M-7.05 -4.3 L-7.25 -5.3 -7.05 -4.3" fill="#aa974d" fill-rule="evenodd" stroke="none"/>
    <path d="M7.35 -5.75 L8.3 -5.75 Q10.95 1.9 5.55 4.45 6.85 1.9 2.75 -0.35 L-2.95 -1.4 -3.75 -1.55 -4.85 -2.55 Q-6.45 -4.4 -6.3 -7.35 L-6.0 -9.75 Q-5.45 -11.3 -4.5 -12.25 -2.8 -14.0 0.25 -13.75 4.9 -13.4 7.45 -8.9 L7.15 -8.8 Q2.8 -8.05 -1.95 -9.35 -4.5 -8.1 -4.2 -5.75 L7.35 -5.75 M-3.2 -11.05 L-4.4 -9.95 -3.2 -11.05 M-1.55 -11.05 L-2.55 -12.3 -1.55 -11.05 M7.0 0.1 L4.45 -2.1 7.0 0.1 M7.45 -2.45 L6.0 -3.8 7.45 -2.45" fill="#e1cb73" fill-rule="evenodd" stroke="none"/>
    <path d="M2.75 -0.35 L2.75 1.3 Q0.3 3.8 -2.15 1.3 L-2.95 -1.4 2.75 -0.35" fill="#7e6a3d" fill-rule="evenodd" stroke="none"/>
    <path d="M7.15 -8.8 Q6.1 -8.45 7.35 -5.75 L-4.2 -5.75 Q-4.5 -8.1 -1.95 -9.35 2.8 -8.05 7.15 -8.8" fill="url(#gradient0)" fill-rule="evenodd" stroke="none"/>
    <path d="M7.15 -8.8 Q6.1 -8.45 7.35 -5.75 L8.3 -5.75 Q10.95 1.9 5.55 4.45 6.85 1.9 2.75 -0.35 L2.75 1.3 Q0.3 3.8 -2.15 1.3 L-2.95 -1.4 -3.75 -1.55 -4.85 -2.55 -7.9 -3.75 -9.0 -7.55 -6.0 -9.75 Q-5.45 -11.3 -4.5 -12.25 -2.8 -14.0 0.25 -13.75 4.9 -13.4 7.45 -8.9 L7.15 -8.8 Q2.8 -8.05 -1.95 -9.35 -4.5 -8.1 -4.2 -5.75 L7.35 -5.75 M-7.55 -7.25 L-7.45 -6.35 M-4.85 -2.55 Q-6.45 -4.4 -6.3 -7.35 L-6.0 -9.75 M-7.25 -5.3 L-7.05 -4.3 M2.75 -0.35 L-2.95 -1.4" fill="none" stroke="#000000" stroke-linecap="round" stroke-linejoin="round" stroke-width="1.0"/>
    <path d="M6.0 -3.8 L7.45 -2.45 M4.45 -2.1 L7.0 0.1 M-2.55 -12.3 L-1.55 -11.05 M-4.4 -9.95 L-3.2 -11.05" fill="none" stroke="#80704d" stroke-linecap="round" stroke-linejoin="round" stroke-width="1.0"/>
  </g>
  <defs>
    <linearGradient gradientTransform="matrix(0.0064, 0.0, 0.0, 0.0023, 2.1, -7.7)" gradientUnits="userSpaceOnUse" id="gradient0" spreadMethod="pad" x1="-819.2" x2="819.2">
      <stop offset="0.0" stop-color="#2f3e91"/>
      <stop offset="1.0" stop-color="#018bfc"/>
    </linearGradient>
  </defs>
</svg>
