<?xml version="1.0" encoding="UTF-8" standalone="no"?>
<svg xmlns:xlink="http://www.w3.org/1999/xlink" height="10.85px" width="14.2px" xmlns="http://www.w3.org/2000/svg">
  <g transform="matrix(1.0, 0.0, 0.0, 1.0, 2.3, 2.85)">
    <path d="M1.25 -0.95 L2.0 -1.8 5.7 -1.8 5.95 -1.8 9.2 -1.6 10.55 -1.15 10.5 -1.1 Q9.95 -0.25 9.95 0.9 9.95 2.0 10.4 2.5 L6.3 2.6 5.6 2.6 5.6 2.4 1.55 2.4 1.0 2.35 1.25 -0.95 M9.2 -1.2 L9.2 -1.6 9.2 -1.2 M8.45 -0.55 L4.95 -0.55 3.25 -0.55 4.95 -0.55 8.45 -0.55 M5.35 -1.2 L5.95 -1.8 5.35 -1.2 M4.95 1.45 L4.95 0.65 6.95 0.65 4.95 0.65 4.95 1.45 M4.95 0.65 L4.95 -0.55 4.95 0.65" fill="#999999" fill-rule="evenodd" stroke="none"/>
    <path d="M10.4 2.5 Q9.95 2.0 9.95 0.9 9.95 -0.25 10.5 -1.1 L10.55 -1.15 Q11.45 -0.65 11.4 0.85 11.4 2.4 10.4 2.5" fill="#3f008c" fill-rule="evenodd" stroke="none"/>
    <path d="M1.55 2.4 L5.6 2.4 5.6 2.6 Q4.9 3.05 4.45 3.8 3.75 5.0 3.8 7.0 2.4 8.0 1.0 7.0 1.95 5.65 1.45 3.8 1.3 3.2 1.55 2.4" fill="#333333" fill-rule="evenodd" stroke="none"/>
    <path d="M1.25 -0.95 L1.0 2.35 -1.8 2.05 -1.8 -0.3 1.25 -0.95" fill="#666666" fill-rule="evenodd" stroke="none"/>
    <path d="M5.95 -1.8 L5.7 -1.8 2.0 -1.8 1.25 -0.95 M1.0 2.35 L1.55 2.4 1.0 2.4 1.0 2.35 M5.6 2.4 L5.6 2.6 6.3 2.6 10.4 2.5 Q9.95 2.0 9.95 0.9 9.95 -0.25 10.5 -1.1 L10.55 -1.15 9.2 -1.6 9.2 -1.2 M9.2 -1.6 L9.6 -2.35 6.45 -2.35 5.95 -1.8 9.2 -1.6 M5.95 -1.8 L5.35 -1.2 M10.55 -1.15 Q11.45 -0.65 11.4 0.85 11.4 2.4 10.4 2.5" fill="none" stroke="#7b7b7b" stroke-linecap="round" stroke-linejoin="round" stroke-width="1.0"/>
    <path d="M3.25 -0.55 L4.95 -0.55 8.45 -0.55 M6.95 0.65 L4.95 0.65 4.95 1.45 M4.95 -0.55 L4.95 0.65" fill="none" stroke="#000000" stroke-linecap="round" stroke-linejoin="round" stroke-width="1.0"/>
    <path d="M4.6 4.3 L6.05 4.15 Q7.7 3.85 8.15 2.9" fill="none" stroke="#626262" stroke-linecap="round" stroke-linejoin="round" stroke-width="1.0"/>
    <path d="M1.55 2.4 L5.6 2.4 M5.6 2.6 Q4.9 3.05 4.45 3.8 3.75 5.0 3.8 7.0 2.4 8.0 1.0 7.0 1.95 5.65 1.45 3.8 1.3 3.2 1.55 2.4" fill="none" stroke="#262626" stroke-linecap="round" stroke-linejoin="round" stroke-width="1.0"/>
    <path d="M1.25 -0.95 L1.0 2.35 -1.8 2.05 -1.8 -0.3 1.25 -0.95 Z" fill="none" stroke="#484848" stroke-linecap="round" stroke-linejoin="round" stroke-width="1.0"/>
  </g>
</svg>
