<?xml version="1.0" encoding="UTF-8" standalone="no"?>
<svg xmlns:xlink="http://www.w3.org/1999/xlink" height="23.55px" width="31.55px" xmlns="http://www.w3.org/2000/svg">
  <g transform="matrix(1.0, 0.0, 0.0, 1.0, -3.65, 11.15)">
    <path d="M28.2 -1.95 Q35.2 -0.85 35.2 0.75 35.2 2.3 28.2 3.4 L11.3 4.5 9.65 4.5 9.65 -3.05 11.3 -3.05 28.2 -1.95" fill="url(#gradient0)" fill-rule="evenodd" stroke="none"/>
    <path d="M10.35 12.35 L9.9 12.4 Q7.3 12.4 5.45 8.95 3.65 5.45 3.65 0.65 3.65 -4.25 5.45 -7.7 7.3 -11.15 9.9 -11.15 L10.35 -11.1 10.35 12.35" fill="url(#gradient1)" fill-rule="evenodd" stroke="none"/>
    <path d="M10.35 -11.1 L10.75 -11.15 Q13.35 -11.15 15.2 -7.7 17.05 -4.25 17.05 0.65 17.05 5.45 15.2 8.95 13.35 12.4 10.75 12.4 L10.35 12.35 10.35 -11.1" fill="url(#gradient2)" fill-rule="evenodd" stroke="none"/>
  </g>
  <defs>
    <radialGradient cx="0" cy="0" gradientTransform="matrix(0.0, 0.0041, -0.0292, 0.0, 11.25, 0.75)" gradientUnits="userSpaceOnUse" id="gradient0" r="819.2" spreadMethod="pad">
      <stop offset="0.17647058823529413" stop-color="#ffffff"/>
      <stop offset="1.0" stop-color="#139ffd" stop-opacity="0.0"/>
    </radialGradient>
    <radialGradient cx="0" cy="0" gradientTransform="matrix(0.0, 0.0128, 0.0076, 0.0, 9.9, 0.6)" gradientUnits="userSpaceOnUse" id="gradient1" r="819.2" spreadMethod="pad">
      <stop offset="0.17647058823529413" stop-color="#ffffff"/>
      <stop offset="1.0" stop-color="#139ffd" stop-opacity="0.0"/>
    </radialGradient>
    <radialGradient cx="0" cy="0" gradientTransform="matrix(0.0, 0.0128, -0.0076, 0.0, 10.75, 0.6)" gradientUnits="userSpaceOnUse" id="gradient2" r="819.2" spreadMethod="pad">
      <stop offset="0.17647058823529413" stop-color="#ffffff"/>
      <stop offset="1.0" stop-color="#139ffd" stop-opacity="0.0"/>
    </radialGradient>
  </defs>
</svg>
