<?xml version="1.0" encoding="UTF-8" standalone="no"?>
<svg xmlns:xlink="http://www.w3.org/1999/xlink" height="16.9px" width="44.6px" xmlns="http://www.w3.org/2000/svg">
  <g transform="matrix(1.0, 0.0, 0.0, 1.0, -7.9, 7.6)">
    <path d="M26.05 -6.0 Q34.25 -5.5 40.9 -4.25 52.5 -2.1 52.5 0.95 52.5 3.95 40.9 6.15 34.25 7.4 26.05 7.9 L12.85 8.3 11.05 8.3 10.7 8.3 10.7 -6.4 11.05 -6.4 12.85 -6.4 26.05 -6.0" fill="url(#gradient0)" fill-rule="evenodd" stroke="none"/>
    <path d="M10.8 9.3 L10.6 9.3 Q9.45 9.3 8.7 6.85 7.9 4.35 7.9 0.85 7.9 -2.6 8.7 -5.1 9.45 -7.6 10.6 -7.6 L10.8 -7.55 10.8 9.3" fill="url(#gradient1)" fill-rule="evenodd" stroke="none"/>
    <path d="M10.8 -7.55 L11.0 -7.6 Q12.1 -7.6 12.9 -5.1 13.7 -2.6 13.7 0.85 13.7 4.35 12.9 6.85 12.1 9.3 11.0 9.3 L10.8 9.3 10.8 -7.55" fill="url(#gradient2)" fill-rule="evenodd" stroke="none"/>
  </g>
  <defs>
    <radialGradient cx="0" cy="0" gradientTransform="matrix(0.0, 0.008, -0.0484, 0.0, 12.8, 0.95)" gradientUnits="userSpaceOnUse" id="gradient0" r="819.2" spreadMethod="pad">
      <stop offset="0.0" stop-color="#ffffff"/>
      <stop offset="0.5372549019607843" stop-color="#3399ff" stop-opacity="0.0"/>
      <stop offset="1.0" stop-color="#000a5e" stop-opacity="0.0"/>
    </radialGradient>
    <radialGradient cx="0" cy="0" gradientTransform="matrix(0.0, 0.0092, 0.0033, 0.0, 10.6, 0.85)" gradientUnits="userSpaceOnUse" id="gradient1" r="819.2" spreadMethod="pad">
      <stop offset="0.17647058823529413" stop-color="#ffffff"/>
      <stop offset="1.0" stop-color="#139ffd" stop-opacity="0.0"/>
    </radialGradient>
    <radialGradient cx="0" cy="0" gradientTransform="matrix(0.0, 0.0092, -0.0033, 0.0, 10.95, 0.85)" gradientUnits="userSpaceOnUse" id="gradient2" r="819.2" spreadMethod="pad">
      <stop offset="0.17647058823529413" stop-color="#ffffff"/>
      <stop offset="1.0" stop-color="#139ffd" stop-opacity="0.0"/>
    </radialGradient>
  </defs>
</svg>
