<?xml version="1.0" encoding="UTF-8" standalone="no"?>
<svg xmlns:xlink="http://www.w3.org/1999/xlink" height="17.85px" width="10.15px" xmlns="http://www.w3.org/2000/svg">
  <g transform="matrix(1.0, 0.0, 0.0, 1.0, 3.6, 4.1)">
    <path d="M2.85 6.9 L2.5 6.5 Q2.1 6.5 2.1 6.9 L2.15 7.15 2.55 7.25 2.8 7.15 2.85 6.9 M2.0 5.0 L2.05 5.25 2.45 5.35 2.7 5.25 2.75 5.0 2.4 4.6 Q2.0 4.6 2.0 5.0 M0.9 5.8 L0.95 6.05 1.35 6.15 1.6 6.05 1.65 5.8 Q1.65 5.4 1.3 5.4 0.9 5.4 0.9 5.8 M2.95 -0.9 Q6.8 -7.55 5.85 2.15 4.85 11.8 2.0 13.25 1.1 10.55 -2.6 9.5 -3.9 7.7 -1.75 -0.5 0.9 1.1 2.95 -0.9" fill="#ffffff" fill-rule="evenodd" stroke="none"/>
    <path d="M2.0 13.25 Q-1.8 13.5 -2.6 9.5 1.1 10.55 2.0 13.25 M-1.75 -0.5 Q0.0 -1.95 2.95 -0.9 0.9 1.1 -1.75 -0.5" fill="#2263b2" fill-rule="evenodd" stroke="none"/>
    <path d="M0.9 5.8 Q0.9 5.4 1.3 5.4 1.65 5.4 1.65 5.8 L1.6 6.05 1.35 6.15 0.95 6.05 0.9 5.8 M2.0 5.0 Q2.0 4.6 2.4 4.6 L2.75 5.0 2.7 5.25 2.45 5.35 2.05 5.25 2.0 5.0 M2.85 6.9 L2.8 7.15 2.55 7.25 2.15 7.15 2.1 6.9 Q2.1 6.5 2.5 6.5 L2.85 6.9" fill="#000000" fill-rule="evenodd" stroke="none"/>
    <path d="M2.95 -0.9 Q6.8 -7.55 5.85 2.15 4.85 11.8 2.0 13.25 M-2.6 9.5 Q-3.9 7.7 -1.75 -0.5" fill="none" stroke="#000000" stroke-linecap="round" stroke-linejoin="round" stroke-width="1.0"/>
    <path d="M2.0 13.25 Q-1.8 13.5 -2.6 9.5 M-1.75 -0.5 Q0.0 -1.95 2.95 -0.9" fill="none" stroke="#9cd7fc" stroke-linecap="round" stroke-linejoin="round" stroke-width="1.0"/>
  </g>
</svg>
