<?xml version="1.0" encoding="UTF-8" standalone="no"?>
<svg xmlns:xlink="http://www.w3.org/1999/xlink" height="9.7px" width="41.1px" xmlns="http://www.w3.org/2000/svg">
  <g transform="matrix(1.0, 0.0, 0.0, 1.0, 10.1, 2.35)">
    <path d="M-6.8 1.5 L-6.8 0.5 -2.55 -1.85 23.4 -1.85 23.95 -1.2 25.85 -1.2 26.2 -1.2 26.95 -1.2 27.45 -1.2 28.15 -1.2 28.3 -1.2 28.3 1.0 25.5 1.0 25.5 1.7 3.25 1.7 0.4 -0.55 -0.9 -0.55 -0.9 1.7 -1.6 1.7 -1.75 2.3 -1.95 3.6 -2.05 3.95 -5.05 3.95 -5.95 3.3 -5.95 1.8 -6.3 1.8 -6.8 1.5 M29.45 -1.2 L30.5 -1.15 30.5 0.95 29.45 1.0 29.45 -1.2 M29.45 2.1 L30.5 2.1 30.5 3.4 29.45 3.4 29.45 2.1 M28.3 3.4 L28.15 3.4 27.6 3.7 22.85 3.7 22.85 2.3 24.7 2.1 28.3 2.1 28.3 3.4 M25.85 -0.7 L25.85 -1.2 25.85 -0.7 M26.95 -0.1 L26.95 -1.2 26.95 -0.1 M22.85 0.45 L21.95 -0.55 16.6 -0.55 21.95 -0.55 22.85 0.45 M23.95 -1.2 L25.5 1.0 23.95 -1.2 M-3.4 3.0 L-3.4 2.1 -4.85 2.1 -4.85 3.0 -3.4 3.0" fill="#666666" fill-rule="evenodd" stroke="none"/>
    <path d="M28.3 -1.2 L29.45 -1.2 29.45 1.0 29.45 2.1 29.45 3.4 28.3 3.4 28.3 2.1 28.3 1.0 28.3 -1.2 M22.85 3.7 L-1.95 3.6 -1.75 2.3 -1.6 1.7 -0.9 1.7 3.25 1.7 25.5 1.7 24.7 2.1 22.85 2.3 22.85 3.7 M22.85 2.3 L-1.75 2.3 22.85 2.3" fill="#1e1e1e" fill-rule="evenodd" stroke="none"/>
    <path d="M-0.9 1.7 L-0.9 -0.55 0.4 -0.55 3.25 1.7 -0.9 1.7 M-3.4 3.0 L-4.85 3.0 -4.85 2.1 -3.4 2.1 -3.4 3.0" fill="#515151" fill-rule="evenodd" stroke="none"/>
    <path d="M-5.05 3.95 L-6.4 4.95 -6.6 6.85 -9.6 6.3 -8.8 2.9 -6.8 1.5 -6.3 1.8 -5.95 1.8 -5.95 3.3 -5.05 3.95" fill="#444444" fill-rule="evenodd" stroke="none"/>
    <path d="M-6.8 1.5 L-6.8 0.5 -2.55 -1.85 23.4 -1.85 23.95 -1.2 25.85 -1.2 26.2 -1.2 26.95 -1.2 27.45 -1.2 28.15 -1.2 28.3 -1.2 29.45 -1.2 30.5 -1.15 30.5 0.95 29.45 1.0 29.45 2.1 30.5 2.1 30.5 3.4 29.45 3.4 28.3 3.4 28.15 3.4 27.6 3.7 22.85 3.7 -1.95 3.6 -2.05 3.95 -2.05 5.3 -3.65 5.6 -5.05 3.95 -6.4 4.95 -6.6 6.85 -9.6 6.3 -8.8 2.9 -6.8 1.5 -6.3 1.8 -5.95 1.8 -5.95 3.3 -5.05 3.95 -2.05 3.95 M26.95 -1.2 L26.95 -0.1 M25.85 -1.2 L25.85 -0.7 M3.25 1.7 L0.4 -0.55 -0.9 -0.55 -0.9 1.7 3.25 1.7 25.5 1.7 25.5 1.0 23.95 -1.2 M28.3 2.1 L28.3 1.0 25.5 1.0 M28.3 3.4 L28.3 2.1 24.7 2.1 22.85 2.3 -1.75 2.3 -1.95 3.6 M29.45 2.1 L29.45 3.4 M25.5 1.7 L24.7 2.1 M-0.9 1.7 L-1.6 1.7 -1.75 2.3 M29.45 -1.2 L29.45 1.0 M28.3 -1.2 L28.3 1.0" fill="none" stroke="#333333" stroke-linecap="round" stroke-linejoin="round" stroke-width="1.0"/>
    <path d="M-3.4 3.0 L-3.4 2.1 -4.85 2.1 -4.85 3.0 -3.4 3.0" fill="none" stroke="#444444" stroke-linecap="round" stroke-linejoin="round" stroke-width="1.0"/>
    <path d="M16.6 -0.55 L21.95 -0.55 22.85 0.45" fill="none" stroke="#515151" stroke-linecap="round" stroke-linejoin="round" stroke-width="1.0"/>
  </g>
</svg>
