<?xml version="1.0" encoding="UTF-8" standalone="no"?>
<svg xmlns:xlink="http://www.w3.org/1999/xlink" height="4.05px" width="7.95px" xmlns="http://www.w3.org/2000/svg">
  <g transform="matrix(1.0, 0.0, 0.0, 1.0, -15.85, -1.9)">
    <path d="M21.8 5.45 L21.8 3.75 21.8 5.45 20.6 5.45 19.25 5.45 19.25 3.7 19.25 5.45 18.0 5.45 16.65 5.45 16.35 3.7 16.35 2.4 23.3 2.4 23.3 3.75 23.0 5.45 21.8 5.45 M18.0 3.6 L18.0 5.45 18.0 3.6 M20.6 3.85 L20.6 5.45 20.6 3.85" fill="#3c3c3c" fill-rule="evenodd" stroke="none"/>
    <path d="M21.8 3.75 L21.8 5.45 23.0 5.45 23.3 3.75 23.3 2.4 16.35 2.4 16.35 3.7 16.65 5.45 18.0 5.45 18.0 3.6 M19.25 5.45 L20.6 5.45 20.6 3.85 M19.25 5.45 L19.25 3.7 M18.0 5.45 L19.25 5.45 M21.8 5.45 L20.6 5.45" fill="none" stroke="#333333" stroke-linecap="round" stroke-linejoin="round" stroke-width="1.0"/>
  </g>
</svg>
