<?xml version="1.0" encoding="UTF-8" standalone="no"?>
<svg xmlns:xlink="http://www.w3.org/1999/xlink" height="14.5px" width="10.85px" xmlns="http://www.w3.org/2000/svg">
  <g transform="matrix(1.0, 0.0, 0.0, 1.0, 3.75, 5.4)">
    <path d="M3.95 -4.75 Q3.95 -4.15 3.35 -4.15 2.6 -4.15 2.7 -4.75 2.7 -5.4 3.35 -5.4 3.85 -5.4 3.95 -4.75 M-0.45 1.6 L-0.65 1.55 -1.3 2.35 Q-1.7 3.1 -2.45 3.1 -3.65 3.1 -3.75 1.8 -3.75 1.35 -3.15 0.6 L-3.55 -0.2 Q-3.55 -0.9 -1.7 -0.9 L0.05 -0.6 0.55 -1.1 0.85 -1.45 1.6 -1.25 1.6 -1.45 Q1.6 -2.4 2.25 -2.4 2.85 -2.4 2.95 -0.9 L4.1 -1.2 3.7 -1.7 Q3.7 -3.15 4.65 -3.15 5.45 -3.15 5.45 -0.8 L5.5 -0.25 5.5 -0.2 Q7.1 -0.3 7.1 1.2 7.1 2.25 5.1 3.35 L4.25 3.8 4.25 3.6 4.3 3.3 3.85 3.45 Q2.2 3.45 2.2 2.55 2.2 1.9 2.5 1.65 1.35 0.5 0.75 0.5 -0.35 0.5 -0.45 1.6 M3.75 7.4 L4.1 8.05 Q4.1 9.1 3.35 9.1 2.55 9.1 2.6 8.55 L2.6 8.35 Q2.6 7.35 3.5 7.35 L3.75 7.4 M1.6 7.25 L1.45 6.85 Q1.45 5.2 2.25 5.2 L2.3 5.2 Q3.05 5.25 2.85 6.3 2.85 7.45 2.25 7.45 L1.6 7.25 M2.25 4.35 L1.95 4.35 Q0.65 4.35 0.1 3.4 0.7 4.0 2.05 4.0 L2.2 4.0 2.25 4.35 M6.35 1.6 Q6.2 0.4 5.25 0.35 L4.85 0.45 4.65 0.4 Q3.9 0.6 3.85 1.45 4.5 1.7 4.45 2.6 L4.45 2.75 5.1 2.85 Q6.35 2.85 6.35 1.6" fill="#2f2f2f" fill-rule="evenodd" stroke="none"/>
    <path d="M4.25 3.8 Q4.25 6.2 3.75 7.4 L3.5 7.35 Q2.6 7.35 2.6 8.35 L2.6 8.55 2.4 8.55 Q1.3 8.55 1.4 7.6 L1.6 7.25 2.25 7.45 Q2.85 7.45 2.85 6.3 3.05 5.25 2.3 5.2 L2.3 4.95 2.25 4.35 2.2 4.0 2.05 4.0 Q0.7 4.0 0.1 3.4 -0.5 2.9 -0.5 1.9 L-0.45 1.6 Q-0.35 0.5 0.75 0.5 1.35 0.5 2.5 1.65 2.2 1.9 2.2 2.55 2.2 3.45 3.85 3.45 L4.3 3.3 4.25 3.6 4.25 3.8 M6.35 1.6 Q6.35 2.85 5.1 2.85 L4.45 2.75 4.45 2.6 Q4.5 1.7 3.85 1.45 3.9 0.6 4.65 0.4 L4.85 0.45 5.25 0.35 Q6.2 0.4 6.35 1.6" fill="#6f6f6f" fill-rule="evenodd" stroke="none"/>
  </g>
</svg>
