<?xml version="1.0" encoding="UTF-8" standalone="no"?>
<svg xmlns:xlink="http://www.w3.org/1999/xlink" height="24.15px" width="21.5px" xmlns="http://www.w3.org/2000/svg">
  <g transform="matrix(1.0, 0.0, 0.0, 1.0, -25.65, 10.9)">
    <path d="M32.8 -10.85 L33.25 -10.9 Q36.0 -10.9 38.0 -7.35 39.95 -3.8 39.95 1.2 39.95 6.15 38.0 9.7 36.0 13.25 33.25 13.25 L32.8 13.15 32.35 13.25 Q29.55 13.25 27.6 9.7 25.6 6.15 25.65 1.2 25.6 -3.8 27.6 -7.35 29.55 -10.9 32.35 -10.9 L32.8 -10.85" fill="url(#gradient0)" fill-rule="evenodd" stroke="none"/>
    <path d="M36.9 -5.7 L37.55 -5.7 Q41.5 -5.7 44.35 -3.7 47.15 -1.7 47.15 1.1 47.15 3.9 44.35 5.9 41.5 7.9 37.55 7.9 L36.9 7.85 36.25 7.9 Q32.25 7.9 29.45 5.9 26.55 3.9 26.65 1.1 26.55 -1.7 29.45 -3.7 32.25 -5.7 36.25 -5.7 L36.9 -5.7" fill="url(#gradient1)" fill-rule="evenodd" stroke="none"/>
  </g>
  <defs>
    <radialGradient cx="0" cy="0" gradientTransform="matrix(0.0083, 0.0, 0.0, 0.0143, 32.7, 1.0)" gradientUnits="userSpaceOnUse" id="gradient0" r="819.2" spreadMethod="pad">
      <stop offset="0.17647058823529413" stop-color="#ffffff"/>
      <stop offset="1.0" stop-color="#ffb711" stop-opacity="0.0"/>
    </radialGradient>
    <radialGradient cx="0" cy="0" gradientTransform="matrix(0.0119, 0.0, 0.0, 0.0081, 36.75, 1.0)" gradientUnits="userSpaceOnUse" id="gradient1" r="819.2" spreadMethod="pad">
      <stop offset="0.17647058823529413" stop-color="#ffffff"/>
      <stop offset="1.0" stop-color="#ffb711" stop-opacity="0.0"/>
    </radialGradient>
  </defs>
</svg>
