<?xml version="1.0" encoding="UTF-8" standalone="no"?>
<svg xmlns:xlink="http://www.w3.org/1999/xlink" height="16.0px" width="28.95px" xmlns="http://www.w3.org/2000/svg">
  <g transform="matrix(1.0, 0.0, 0.0, 1.0, -27.15, 7.45)">
    <path d="M37.1 -7.4 L37.7 -7.45 Q41.55 -7.45 44.3 -5.1 47.0 -2.75 47.0 0.55 47.0 3.85 44.3 6.2 41.55 8.55 37.7 8.55 L37.1 8.5 36.45 8.55 Q32.55 8.55 29.85 6.2 27.1 3.85 27.15 0.55 27.1 -2.75 29.85 -5.1 32.55 -7.45 36.45 -7.45 L37.1 -7.4" fill="url(#gradient0)" fill-rule="evenodd" stroke="none"/>
    <path d="M42.55 -4.25 L43.4 -4.3 Q48.65 -4.3 52.4 -2.85 56.1 -1.45 56.1 0.6 56.1 2.55 52.4 4.0 48.65 5.4 43.4 5.4 L42.55 5.4 41.7 5.4 Q36.4 5.4 32.7 4.0 28.95 2.55 29.0 0.6 28.95 -1.45 32.7 -2.85 36.4 -4.3 41.7 -4.3 L42.55 -4.25" fill="url(#gradient1)" fill-rule="evenodd" stroke="none"/>
  </g>
  <defs>
    <radialGradient cx="0" cy="0" gradientTransform="matrix(0.0115, 0.0, 0.0, 0.0095, 36.95, 0.45)" gradientUnits="userSpaceOnUse" id="gradient0" r="819.2" spreadMethod="pad">
      <stop offset="0.17647058823529413" stop-color="#ffffff"/>
      <stop offset="1.0" stop-color="#ffb711" stop-opacity="0.0"/>
    </radialGradient>
    <radialGradient cx="0" cy="0" gradientTransform="matrix(0.0157, 0.0, 0.0, 0.0058, 42.4, 0.5)" gradientUnits="userSpaceOnUse" id="gradient1" r="819.2" spreadMethod="pad">
      <stop offset="0.17647058823529413" stop-color="#ffffff"/>
      <stop offset="1.0" stop-color="#ffb711" stop-opacity="0.0"/>
    </radialGradient>
  </defs>
</svg>
