<?xml version="1.0" encoding="UTF-8" standalone="no"?>
<svg xmlns:xlink="http://www.w3.org/1999/xlink" height="45.8px" width="80.0px" xmlns="http://www.w3.org/2000/svg">
  <g transform="matrix(1.0, 0.0, 0.0, 1.0, 40.0, 22.95)">
    <path d="M13.4 -0.45 L26.35 -0.1 30.15 0.0 10.65 0.55 10.55 0.55 0.15 0.7 -0.5 0.7 -13.45 0.45 -30.15 0.05 -25.25 -0.1 -10.6 -0.5 -10.55 -0.5 0.15 -0.65 0.5 -0.65 13.4 -0.45" fill="#ddebff" fill-rule="evenodd" stroke="none"/>
    <path d="M13.4 -0.45 L0.5 -0.65 0.15 -0.65 -10.55 -0.5 -10.6 -0.5 -25.25 -0.1 -30.15 0.05 -13.45 0.45 -0.5 0.7 0.15 0.7 10.55 0.55 10.65 0.55 30.15 0.0 26.35 -0.1 13.4 -0.45 M0.3 -1.45 L9.0 -1.3 38.9 -0.6 39.1 -0.6 39.7 -0.45 40.0 -0.1 39.8 0.25 39.25 0.4 37.35 0.45 22.25 0.9 7.1 1.35 0.15 1.45 -0.2 1.45 -0.3 1.45 -8.9 1.3 -38.85 0.6 -39.05 0.6 -39.7 0.45 -40.0 0.15 -39.85 -0.1 -39.7 -0.2 -39.1 -0.4 -37.3 -0.45 -37.25 -0.45 -22.2 -0.9 -7.0 -1.35 0.15 -1.45 0.3 -1.45" fill="#139ffd" fill-opacity="0.2" fill-rule="evenodd" stroke="none"/>
    <path d="M22.9 -0.05 Q22.9 9.5 16.2 16.15 9.5 22.85 0.0 22.85 -9.5 22.85 -16.2 16.15 -22.9 9.5 -22.9 -0.05 -22.9 -9.55 -16.2 -16.25 -9.5 -22.95 0.0 -22.95 9.5 -22.95 16.2 -16.25 22.9 -9.55 22.9 -0.05" fill="url(#gradient0)" fill-rule="evenodd" stroke="none"/>
  </g>
  <defs>
    <radialGradient cx="0" cy="0" gradientTransform="matrix(0.0273, 0.0, 0.0, 0.0273, 0.0, -0.05)" gradientUnits="userSpaceOnUse" id="gradient0" r="819.2" spreadMethod="pad">
      <stop offset="0.0" stop-color="#ffffff" stop-opacity="0.5019608"/>
      <stop offset="0.19215686274509805" stop-color="#ffffff" stop-opacity="0.2"/>
      <stop offset="1.0" stop-color="#ffffff" stop-opacity="0.0"/>
    </radialGradient>
  </defs>
</svg>
