<?xml version="1.0" encoding="UTF-8" standalone="no"?>
<svg xmlns:xlink="http://www.w3.org/1999/xlink" height="11.5px" width="11.9px" xmlns="http://www.w3.org/2000/svg">
  <g transform="matrix(1.0, 0.0, 0.0, 1.0, 6.05, 6.85)">
    <path d="M3.5 -5.3 Q4.85 -4.8 5.3 -1.7 5.7 1.35 3.95 3.1 2.15 4.8 -1.35 3.7 -4.9 2.6 -5.45 0.65 -6.0 -1.35 -4.0 -5.25 -1.25 -3.8 3.5 -5.3 M2.45 2.15 Q3.55 1.5 3.6 0.55 3.55 -0.45 2.45 -1.1 1.45 -1.75 -0.15 -1.75 -1.75 -1.75 -2.85 -1.1 -3.95 -0.4 -3.9 0.55 -3.95 1.5 -2.85 2.15 -1.7 2.85 -0.15 2.85 1.35 2.85 2.45 2.15" fill="#cccccc" fill-rule="evenodd" stroke="none"/>
    <path d="M-4.0 -5.25 Q-0.5 -7.45 3.5 -5.3 -1.25 -3.8 -4.0 -5.25 M2.45 2.15 Q1.35 2.85 -0.15 2.85 -1.7 2.85 -2.85 2.15 -3.95 1.5 -3.9 0.55 -3.95 -0.4 -2.85 -1.1 -1.75 -1.75 -0.15 -1.75 1.45 -1.75 2.45 -1.1 3.55 -0.45 3.6 0.55 3.55 1.5 2.45 2.15" fill="#2263b2" fill-rule="evenodd" stroke="none"/>
    <path d="M3.5 -5.3 Q4.85 -4.8 5.3 -1.7 5.7 1.35 3.95 3.1 2.15 4.8 -1.35 3.7 -4.9 2.6 -5.45 0.65 -6.0 -1.35 -4.0 -5.25" fill="none" stroke="#000000" stroke-linecap="round" stroke-linejoin="round" stroke-width="1.0"/>
    <path d="M-4.0 -5.25 Q-0.5 -7.45 3.5 -5.3 M2.45 2.15 Q1.35 2.85 -0.15 2.85 -1.7 2.85 -2.85 2.15 -3.95 1.5 -3.9 0.55 -3.95 -0.4 -2.85 -1.1 -1.75 -1.75 -0.15 -1.75 1.45 -1.75 2.45 -1.1 3.55 -0.45 3.6 0.55 3.55 1.5 2.45 2.15 Z" fill="none" stroke="#9cd7fc" stroke-linecap="round" stroke-linejoin="round" stroke-width="1.0"/>
  </g>
</svg>
