<?xml version="1.0" encoding="UTF-8" standalone="no"?>
<svg xmlns:xlink="http://www.w3.org/1999/xlink" height="10.5px" width="19.35px" xmlns="http://www.w3.org/2000/svg">
  <g transform="matrix(1.0, 0.0, 0.0, 1.0, -4.5, 3.7)">
    <path d="M20.35 6.3 L11.1 6.3 6.4 2.8 21.9 2.8 20.35 6.3" fill="#808080" fill-rule="evenodd" stroke="none"/>
    <path d="M5.0 -2.95 L9.15 -3.2 23.35 -3.2 Q18.75 -1.35 15.4 -0.75 L11.25 -0.45 7.85 -0.8 5.0 -2.95" fill="#255163" fill-rule="evenodd" stroke="none"/>
    <path d="M5.0 -2.95 L7.85 -0.8 11.25 -0.45 15.4 -0.75 Q18.75 -1.35 23.35 -3.2 L9.15 -3.2 5.0 -2.95 M20.35 6.3 L11.1 6.3 6.4 2.8 21.9 2.8 20.35 6.3 Z" fill="none" stroke="#333333" stroke-linecap="round" stroke-linejoin="round" stroke-width="1.0"/>
  </g>
</svg>
