<?xml version="1.0" encoding="UTF-8" standalone="no"?>
<svg xmlns:xlink="http://www.w3.org/1999/xlink" height="15.0px" width="33.15px" xmlns="http://www.w3.org/2000/svg">
  <g transform="matrix(1.0, 0.0, 0.0, 1.0, -24.55, 9.8)">
    <path d="M28.8 -9.8 Q30.55 -9.8 31.75 -7.65 33.0 -5.4 33.0 -2.3 33.0 0.75 31.75 3.0 30.55 5.2 28.8 5.2 27.05 5.2 25.85 3.0 24.55 0.75 24.55 -2.3 24.55 -5.4 25.85 -7.65 27.05 -9.8 28.8 -9.8" fill="url(#gradient0)" fill-rule="evenodd" stroke="none"/>
    <path d="M33.45 -7.5 Q43.5 -7.5 50.6 -6.0 57.7 -4.5 57.7 -2.2 57.7 -0.05 50.6 1.45 43.5 3.0 33.45 3.0 L30.2 3.0 30.2 -7.4 33.45 -7.5" fill="url(#gradient1)" fill-rule="evenodd" stroke="none"/>
  </g>
  <defs>
    <radialGradient cx="0" cy="0" gradientTransform="matrix(0.0053, 0.0, 0.0, 0.0094, 28.8, -2.3)" gradientUnits="userSpaceOnUse" id="gradient0" r="819.2" spreadMethod="pad">
      <stop offset="0.36470588235294116" stop-color="#ffffff" stop-opacity="0.5411765"/>
      <stop offset="1.0" stop-color="#00ccff" stop-opacity="0.0"/>
    </radialGradient>
    <radialGradient cx="0" cy="0" gradientTransform="matrix(0.0297, 0.0, 0.0, 0.0064, 33.55, -2.3)" gradientUnits="userSpaceOnUse" id="gradient1" r="819.2" spreadMethod="pad">
      <stop offset="0.36470588235294116" stop-color="#ffffff" stop-opacity="0.57254905"/>
      <stop offset="1.0" stop-color="#00e6ff" stop-opacity="0.0"/>
    </radialGradient>
  </defs>
</svg>
