<?xml version="1.0" encoding="UTF-8" standalone="no"?>
<svg xmlns:xlink="http://www.w3.org/1999/xlink" height="2.9px" width="55.3px" xmlns="http://www.w3.org/2000/svg">
  <g transform="matrix(1.0, 0.0, 0.0, 1.0, 27.5, 1.45)">
    <path d="M9.4 -0.45 L18.35 -0.1 21.0 0.0 7.5 0.55 7.45 0.55 0.25 0.7 -0.2 0.7 -9.15 0.45 -20.7 0.05 -17.3 -0.1 -7.2 -0.5 -7.15 -0.5 0.25 -0.65 0.5 -0.65 9.4 -0.45" fill="#ffffff" fill-rule="evenodd" stroke="none"/>
    <path d="M9.4 -0.45 L0.5 -0.65 0.25 -0.65 -7.15 -0.5 -7.2 -0.5 -17.3 -0.1 -20.7 0.05 -9.15 0.45 -0.2 0.7 0.25 0.7 7.45 0.55 7.5 0.55 21.0 0.0 18.35 -0.1 9.4 -0.45 M0.35 -1.45 L6.35 -1.3 27.05 -0.6 27.15 -0.6 27.6 -0.45 27.8 -0.1 27.65 0.25 27.25 0.4 25.95 0.45 15.5 0.9 5.05 1.35 0.25 1.45 0.0 1.45 -0.05 1.45 -6.0 1.3 -26.7 0.6 -26.85 0.6 -27.3 0.45 -27.5 0.15 -27.4 -0.1 -27.3 -0.2 -26.9 -0.4 -25.65 -0.45 -25.6 -0.45 -15.2 -0.9 -4.7 -1.35 0.25 -1.45 0.35 -1.45" fill="#139ffd" fill-opacity="0.5019608" fill-rule="evenodd" stroke="none"/>
  </g>
</svg>
