<?xml version="1.0" encoding="UTF-8" standalone="no"?>
<svg xmlns:xlink="http://www.w3.org/1999/xlink" height="101.0px" width="21.0px" xmlns="http://www.w3.org/2000/svg">
  <g transform="matrix(1.0, 0.0, 0.0, 1.0, 0.5, 0.5)">
    <path d="M20.0 25.0 L0.0 25.0 20.0 25.0 20.0 50.0 0.0 50.0 20.0 50.0 20.0 75.0 20.0 100.0 0.0 100.0 0.0 75.0 0.0 50.0 0.0 25.0 0.0 0.0 20.0 0.0 20.0 25.0 M0.0 75.0 L20.0 75.0 0.0 75.0" fill="url(#gradient0)" fill-rule="evenodd" stroke="none"/>
    <path d="M0.0 25.0 L20.0 25.0 20.0 0.0 0.0 0.0 0.0 25.0 0.0 50.0 20.0 50.0 20.0 25.0 M20.0 75.0 L20.0 50.0 M20.0 75.0 L20.0 100.0 0.0 100.0 0.0 75.0 0.0 50.0 M20.0 75.0 L0.0 75.0" fill="none" stroke="#8c8c8c" stroke-linecap="round" stroke-linejoin="round" stroke-width="1.0"/>
  </g>
  <defs>
    <linearGradient gradientTransform="matrix(0.0, 0.061, -0.0122, 0.0, 10.0, 50.0)" gradientUnits="userSpaceOnUse" id="gradient0" spreadMethod="pad" x1="-819.2" x2="819.2">
      <stop offset="0.0" stop-color="#aaaaaa"/>
      <stop offset="0.06274509803921569" stop-color="#c2c2c2"/>
      <stop offset="0.25882352941176473" stop-color="#ffffff"/>
      <stop offset="0.7294117647058823" stop-color="#ffffff"/>
      <stop offset="0.9254901960784314" stop-color="#c7c7c7"/>
      <stop offset="1.0" stop-color="#9d9d9d"/>
    </linearGradient>
  </defs>
</svg>
