<?xml version="1.0" encoding="UTF-8" standalone="no"?>
<svg xmlns:xlink="http://www.w3.org/1999/xlink" height="43.3px" width="95.7px" xmlns="http://www.w3.org/2000/svg">
  <g transform="matrix(1.0, 0.0, 0.0, 1.0, -86.45, 22.95)">
    <path d="M90.15 -16.75 Q93.6 -22.95 98.65 -22.95 103.75 -22.95 107.2 -16.75 110.85 -10.3 110.85 -1.3 110.85 7.45 107.2 13.9 103.75 20.35 98.65 20.35 93.6 20.35 90.15 13.9 86.45 7.45 86.45 -1.3 86.45 -10.3 90.15 -16.75" fill="url(#gradient0)" fill-rule="evenodd" stroke="none"/>
    <path d="M112.15 -16.35 Q141.15 -16.35 161.65 -12.0 182.15 -7.6 182.15 -1.1 182.15 5.15 161.65 9.5 141.15 13.85 112.15 13.85 L102.7 13.85 102.7 -16.05 112.15 -16.35" fill="url(#gradient1)" fill-rule="evenodd" stroke="none"/>
  </g>
  <defs>
    <radialGradient cx="0" cy="0" gradientTransform="matrix(0.0152, 0.0, 0.0, 0.0271, 98.65, -1.3)" gradientUnits="userSpaceOnUse" id="gradient0" r="819.2" spreadMethod="pad">
      <stop offset="0.36470588235294116" stop-color="#ffffff"/>
      <stop offset="1.0" stop-color="#ffe600" stop-opacity="0.0"/>
    </radialGradient>
    <radialGradient cx="0" cy="0" gradientTransform="matrix(0.0856, 0.0, 0.0, 0.0185, 112.35, -1.35)" gradientUnits="userSpaceOnUse" id="gradient1" r="819.2" spreadMethod="pad">
      <stop offset="0.36470588235294116" stop-color="#ffffff"/>
      <stop offset="1.0" stop-color="#ffcc00" stop-opacity="0.0"/>
    </radialGradient>
  </defs>
</svg>
