<?xml version="1.0" encoding="UTF-8" standalone="no"?>
<svg xmlns:xlink="http://www.w3.org/1999/xlink" height="6.45px" width="80.0px" xmlns="http://www.w3.org/2000/svg">
  <g transform="matrix(1.0, 0.0, 0.0, 1.0, 40.0, 3.25)">
    <path d="M0.15 -3.2 L0.3 -3.2 9.0 -2.85 38.9 -1.3 39.1 -1.3 39.7 -1.0 40.0 -0.2 39.8 0.55 39.25 0.9 37.35 1.0 22.25 2.0 7.1 3.0 0.15 3.2 -0.2 3.2 -0.3 3.2 -8.9 2.85 -38.85 1.3 -39.05 1.3 Q-39.4 1.3 -39.7 1.0 L-40.0 0.35 -39.85 -0.2 -39.7 -0.45 -39.1 -0.9 -37.3 -1.0 -37.25 -1.0 -22.2 -2.0 -7.0 -3.0 0.15 -3.2 M0.7 -1.8 L0.15 -1.8 -13.2 -1.4 -13.35 -1.4 -31.7 -0.25 -37.8 0.15 -16.9 1.25 -0.65 1.95 Q-0.3 1.8 0.15 1.95 L13.25 1.5 13.3 1.5 37.85 0.0 33.0 -0.25 16.8 -1.25 0.7 -1.8" fill="#0b6cfd" fill-opacity="0.2" fill-rule="evenodd" stroke="none"/>
    <path d="M0.7 -1.8 L16.8 -1.25 33.0 -0.25 37.85 0.0 13.3 1.5 13.25 1.5 0.15 1.95 Q-0.3 1.8 -0.65 1.95 L-16.9 1.25 -37.8 0.15 -31.7 -0.25 -13.35 -1.4 -13.2 -1.4 0.15 -1.8 0.7 -1.8" fill="#ffffff" fill-rule="evenodd" stroke="none"/>
  </g>
</svg>
