<?xml version="1.0" encoding="UTF-8" standalone="no"?>
<svg xmlns:xlink="http://www.w3.org/1999/xlink" height="15.0px" width="50.0px" xmlns="http://www.w3.org/2000/svg">
  <g transform="matrix(1.0, 0.0, 0.0, 1.0, 16.8, 5.0)">
    <path d="M8.55 -2.25 L11.55 -4.5 18.0 -4.5 21.15 -2.5 25.3 -2.5 28.45 -4.5 32.7 -4.5 32.7 1.55 27.95 4.55 27.95 5.8 20.85 7.4 16.55 1.4 10.8 1.9 10.05 0.5 8.55 -2.25 M24.7 3.9 L23.45 1.9 24.7 3.9 M22.2 4.9 L20.3 2.25 22.2 4.9" fill="#999999" fill-rule="evenodd" stroke="none"/>
    <path d="M14.0 7.3 L8.65 7.3 6.4 3.3 11.55 3.3 14.0 7.3 M-0.05 9.25 L-5.95 9.5 -9.35 4.0 -2.45 5.5 -0.05 9.25" fill="#333333" fill-rule="evenodd" stroke="none"/>
    <path d="M-10.75 -1.0 L-6.7 -3.7 -6.7 0.5 -10.75 -1.0" fill="#666666" fill-rule="evenodd" stroke="none"/>
    <path d="M20.85 7.4 L14.0 7.3 11.55 3.3 10.8 1.9 11.55 3.3 6.4 3.3 4.05 3.3 -0.45 3.3 -2.45 -2.25 0.8 -2.25 3.05 -2.85 4.3 0.9 10.05 0.5 10.8 1.9 16.55 1.4 20.85 7.4 M1.7 0.75 L0.8 -2.25 1.7 0.75" fill="#777777" fill-rule="evenodd" stroke="none"/>
    <path d="M3.05 -2.85 L8.55 -2.25 10.05 0.5 4.3 0.9 3.05 -2.85" fill="#ff2222" fill-rule="evenodd" stroke="none"/>
    <path d="M18.0 -4.5 L28.45 -4.5 25.3 -2.5 21.15 -2.5 18.0 -4.5" fill="#bbbbbb" fill-rule="evenodd" stroke="none"/>
    <path d="M-9.35 4.0 L-16.3 2.5 -14.8 -1.0 -10.75 -1.0 -6.7 0.5 -6.7 -3.7 -2.45 -3.7 -2.45 -2.25 -0.45 3.3 -2.45 5.5 -9.35 4.0" fill="#8c8c8c" fill-rule="evenodd" stroke="none"/>
    <path d="M8.55 -2.25 L11.55 -4.5 18.0 -4.5 28.45 -4.5 32.7 -4.5 32.7 1.55 M27.95 4.55 L27.95 5.8 M6.4 3.3 L4.05 3.3 Q3.3 9.35 -0.05 9.25 M-9.35 4.0 L-16.3 2.5 -14.8 -1.0 -10.75 -1.0 -6.7 -3.7 -2.45 -3.7 -2.45 -2.25 0.8 -2.25 3.05 -2.85 8.55 -2.25 10.05 0.5 10.8 1.9 11.55 3.3 6.4 3.3 M18.0 -4.5 L21.15 -2.5 25.3 -2.5 28.45 -4.5 M20.3 2.25 L22.2 4.9 M23.45 1.9 L24.7 3.9 M10.05 0.5 L4.3 0.9 3.05 -2.85 M0.8 -2.25 L1.7 0.75 M-9.35 4.0 L-2.45 5.5 -0.45 3.3 -2.45 -2.25 M-6.7 -3.7 L-6.7 0.5 -10.75 -1.0 M4.05 3.3 L-0.45 3.3" fill="none" stroke="#595959" stroke-linecap="round" stroke-linejoin="round" stroke-width="1.0"/>
    <path d="M14.0 7.3 L8.65 7.3 6.4 3.3 M-0.05 9.25 L-5.95 9.5 -9.35 4.0 M-2.45 5.5 L-0.05 9.25" fill="none" stroke="#000000" stroke-linecap="round" stroke-linejoin="round" stroke-width="1.0"/>
    <path d="M10.8 1.9 L16.55 1.4 20.85 7.4" fill="none" stroke="#666666" stroke-linecap="round" stroke-linejoin="round" stroke-width="1.0"/>
    <path d="M32.7 1.55 L27.95 4.55 M27.95 5.8 L20.85 7.4" fill="none" stroke="#3c3c3c" stroke-linecap="round" stroke-linejoin="round" stroke-width="1.0"/>
    <path d="M20.85 7.4 L14.0 7.3" fill="none" stroke="#333333" stroke-linecap="round" stroke-linejoin="round" stroke-width="1.0"/>
  </g>
</svg>
