<?xml version="1.0" encoding="UTF-8" standalone="no"?>
<svg xmlns:xlink="http://www.w3.org/1999/xlink" height="5.6px" width="13.05px" xmlns="http://www.w3.org/2000/svg">
  <g transform="matrix(1.0, 0.0, 0.0, 1.0, 6.55, 2.7)">
    <path d="M3.0 2.3 L-3.05 2.4 -3.05 -2.15 3.0 -2.15 3.0 2.3" fill="#666666" fill-rule="evenodd" stroke="none"/>
    <path d="M3.0 -2.15 Q4.8 -2.05 5.35 -1.55 L6.0 -0.1 5.35 1.55 Q4.75 2.2 3.0 2.4 L3.0 2.3 3.0 -2.15 M-3.05 2.4 Q-4.85 2.3 -5.4 1.8 L-6.05 0.35 -5.35 -1.3 Q-4.8 -1.95 -3.05 -2.15 L-3.05 2.4" fill="#555555" fill-rule="evenodd" stroke="none"/>
    <path d="M3.0 2.3 L-3.05 2.4 M-3.05 -2.15 L3.0 -2.15" fill="none" stroke="#444444" stroke-linecap="round" stroke-linejoin="round" stroke-width="1.0"/>
    <path d="M3.0 -2.15 Q4.8 -2.05 5.35 -1.55 L6.0 -0.1 5.35 1.55 Q4.75 2.2 3.0 2.4 L3.0 2.3 3.0 -2.15 M-3.05 2.4 Q-4.85 2.3 -5.4 1.8 L-6.05 0.35 -5.35 -1.3 Q-4.8 -1.95 -3.05 -2.15 L-3.05 2.4 Z" fill="none" stroke="#3c3c3c" stroke-linecap="round" stroke-linejoin="round" stroke-width="1.0"/>
  </g>
</svg>
