<?xml version="1.0" encoding="UTF-8" standalone="no"?>
<svg xmlns:xlink="http://www.w3.org/1999/xlink" height="6.45px" width="55.3px" xmlns="http://www.w3.org/2000/svg">
  <g transform="matrix(1.0, 0.0, 0.0, 1.0, 27.5, 3.25)">
    <path d="M0.6 -1.8 L0.25 -1.8 -9.0 -1.4 -9.1 -1.4 -21.75 -0.25 -26.0 0.15 -11.55 1.25 -0.3 1.95 Q-0.05 1.8 0.25 1.95 L9.3 1.5 9.35 1.5 26.3 0.0 22.95 -0.25 11.75 -1.25 0.6 -1.8 M0.25 -3.2 L0.35 -3.2 6.35 -2.85 27.05 -1.3 27.15 -1.3 27.6 -1.0 27.8 -0.2 27.65 0.55 27.25 0.9 25.95 1.0 15.5 2.0 5.05 3.0 0.25 3.2 0.0 3.2 -0.05 3.2 -6.0 2.85 -26.7 1.3 -26.85 1.3 -27.3 1.0 -27.5 0.35 -27.4 -0.2 -27.3 -0.45 -26.9 -0.9 -25.65 -1.0 -25.6 -1.0 -15.2 -2.0 -4.7 -3.0 0.25 -3.2" fill="#0b6cfd" fill-opacity="0.5019608" fill-rule="evenodd" stroke="none"/>
    <path d="M0.6 -1.8 L11.75 -1.25 22.95 -0.25 26.3 0.0 9.35 1.5 9.3 1.5 0.25 1.95 Q-0.05 1.8 -0.3 1.95 L-11.55 1.25 -26.0 0.15 -21.75 -0.25 -9.1 -1.4 -9.0 -1.4 0.25 -1.8 0.6 -1.8" fill="#cce6ff" fill-rule="evenodd" stroke="none"/>
  </g>
</svg>
