<?xml version="1.0" encoding="UTF-8" standalone="no"?>
<svg xmlns:xlink="http://www.w3.org/1999/xlink" height="14.55px" width="36.65px" xmlns="http://www.w3.org/2000/svg">
  <g transform="matrix(1.0, 0.0, 0.0, 1.0, 3.2, 6.65)">
    <path d="M30.2 -5.1 L32.95 -2.75 32.95 0.3 Q28.9 1.15 30.2 -5.1 M3.45 2.1 L2.25 3.25 0.45 7.4 -2.35 6.6 -1.55 3.8 -2.7 2.35 -1.55 -1.6 2.65 -0.9 3.45 2.1" fill="#404040" fill-rule="evenodd" stroke="none"/>
    <path d="M15.4 -0.75 Q18.75 -1.35 20.85 -5.1 L30.2 -5.1 Q28.9 1.15 32.95 0.3 L32.95 2.8 17.5 2.8 Q15.8 1.55 15.4 -0.75 M21.15 0.65 L23.9 -1.25 21.15 0.65 M18.25 0.65 L21.0 -1.25 18.25 0.65" fill="#a6a6a6" fill-rule="evenodd" stroke="none"/>
    <path d="M5.0 -2.95 L7.85 -0.8 11.25 -0.45 15.4 -0.75 Q15.8 1.55 17.5 2.8 L6.45 2.8 3.45 2.1 2.65 -0.9 -1.55 -1.6 -0.1 -2.95 5.0 -2.95 M6.25 1.15 L6.65 0.2 6.25 1.15 M4.75 1.05 L5.25 -0.35 4.75 1.05" fill="#6f6f6f" fill-rule="evenodd" stroke="none"/>
    <path d="M7.25 -5.1 L5.0 -2.95 -0.1 -2.95 1.95 -6.15 7.25 -5.1" fill="#a2a2a2" fill-rule="evenodd" stroke="none"/>
    <path d="M5.0 -2.95 L7.25 -5.1 20.85 -5.1 Q18.75 -1.35 15.4 -0.75 L11.25 -0.45 7.85 -0.8 5.0 -2.95" fill="#62c8f2" fill-rule="evenodd" stroke="none"/>
    <path d="M7.25 -5.1 L5.0 -2.95 7.85 -0.8 11.25 -0.45 15.4 -0.75 Q18.75 -1.35 20.85 -5.1 L7.25 -5.1 1.95 -6.15 -0.1 -2.95 5.0 -2.95 M30.2 -5.1 L32.95 -2.75 32.95 0.3 32.95 2.8 17.5 2.8 6.45 2.8 3.45 2.1 2.25 3.25 0.45 7.4 -2.35 6.6 -1.55 3.8 -2.7 2.35 -1.55 -1.6 -0.1 -2.95 M30.2 -5.1 L20.85 -5.1 M6.65 0.2 L6.25 1.15 M15.4 -0.75 Q15.8 1.55 17.5 2.8 M3.45 2.1 L2.65 -0.9 -1.55 -1.6 M5.25 -0.35 L4.75 1.05 M32.95 0.3 Q28.9 1.15 30.2 -5.1 M21.0 -1.25 L18.25 0.65 M23.9 -1.25 L21.15 0.65" fill="none" stroke="#333333" stroke-linecap="round" stroke-linejoin="round" stroke-width="1.0"/>
  </g>
</svg>
