<?xml version="1.0" encoding="UTF-8" standalone="no"?>
<svg xmlns:xlink="http://www.w3.org/1999/xlink" height="17.1px" width="14.8px" xmlns="http://www.w3.org/2000/svg">
  <g transform="matrix(1.0, 0.0, 0.0, 1.0, 4.15, 8.3)">
    <path d="M-2.7 -2.85 L-1.45 -2.85 -1.45 3.35 -2.7 3.35 -2.7 -2.85" fill="#666666" fill-rule="evenodd" stroke="none"/>
    <path d="M8.05 -1.85 L6.3 -1.2 4.55 -0.6 4.55 1.1 6.3 1.75 8.05 2.35 7.95 8.2 Q3.05 8.6 -1.5 7.25 -3.05 5.5 -3.65 3.35 L-2.7 3.35 -1.45 3.35 1.8 3.35 1.8 -2.85 -1.45 -2.85 -2.7 -2.85 -3.65 -2.85 Q-3.05 -5.0 -1.5 -6.75 3.05 -8.1 7.95 -7.7 L8.05 -1.85 M5.55 -3.85 L5.55 -5.85 5.55 -3.85 M3.9 -4.75 L3.8 -5.85 3.9 -4.75 M5.9 7.0 L5.9 5.4 5.9 7.0 M4.15 6.6 L4.15 5.85 4.15 6.6" fill="#8c8c8c" fill-rule="evenodd" stroke="none"/>
    <path d="M6.3 1.75 L4.55 1.1 4.55 -0.6 6.3 -1.2 6.3 1.75" fill="#2b2b2b" fill-rule="evenodd" stroke="none"/>
    <path d="M8.05 -1.85 L7.95 -7.7 Q9.3 -7.6 10.15 -6.85 L10.15 -2.7 8.05 -1.85 M7.95 8.2 L8.05 2.35 10.15 3.25 10.15 7.4 Q9.3 8.1 7.95 8.2" fill="#626262" fill-rule="evenodd" stroke="none"/>
    <path d="M3.8 -5.85 L3.9 -4.75 M5.55 -5.85 L5.55 -3.85 M4.15 5.85 L4.15 6.6 M5.9 5.4 L5.9 7.0" fill="none" stroke="#333333" stroke-linecap="round" stroke-linejoin="round" stroke-width="1.0"/>
    <path d="M6.3 -1.2 L8.05 -1.85 7.95 -7.7 Q3.05 -8.1 -1.5 -6.75 -3.05 -5.0 -3.65 -2.85 L-2.7 -2.85 -1.45 -2.85 1.8 -2.85 1.8 3.35 -1.45 3.35 -2.7 3.35 -3.65 3.35 Q-3.05 5.5 -1.5 7.25 3.05 8.6 7.95 8.2 L8.05 2.35 6.3 1.75 4.55 1.1 4.55 -0.6 6.3 -1.2 M8.05 -1.85 L10.15 -2.7 10.15 -6.85 Q9.3 -7.6 7.95 -7.7 M7.95 8.2 Q9.3 8.1 10.15 7.4 L10.15 3.25 8.05 2.35 M-1.45 3.35 L-1.45 -2.85 M-2.7 -2.85 L-2.7 3.35" fill="none" stroke="#595959" stroke-linecap="round" stroke-linejoin="round" stroke-width="1.0"/>
    <path d="M6.3 -1.2 L6.3 1.75" fill="none" stroke="#2b2b2b" stroke-linecap="round" stroke-linejoin="round" stroke-width="1.0"/>
  </g>
</svg>
