<?xml version="1.0" encoding="UTF-8" standalone="no"?>
<svg xmlns:xlink="http://www.w3.org/1999/xlink" height="13.2px" width="23.65px" xmlns="http://www.w3.org/2000/svg">
  <g transform="matrix(1.0, 0.0, 0.0, 1.0, 8.8, 5.3)">
    <path d="M5.85 -2.65 L6.45 -3.95 12.2 -3.95 13.25 -2.65 8.8 -2.65 5.85 -2.65 M9.85 2.4 L13.25 2.45 12.4 3.9 7.85 3.9 7.85 2.55 8.75 2.7 9.85 2.4 M1.8 4.0 Q1.2 5.25 1.3 7.1 -0.3 8.25 -1.85 7.1 L-0.6 7.1 Q0.55 4.8 -0.15 2.45 L-1.75 2.45 -1.85 2.2 -1.85 2.0 3.3 2.0 3.3 2.2 Q2.45 2.7 2.0 3.55 L1.8 4.0 M-4.25 1.6 L-3.9 1.7 -4.4 2.65 -7.7 2.65 -8.55 -0.15 -7.1 -0.15 -6.85 -0.15 -6.45 1.05 -4.25 1.6" fill="#333333" fill-rule="evenodd" stroke="none"/>
    <path d="M11.45 -1.85 L12.5 -1.85 12.5 -0.85 10.85 -0.85 12.5 -0.85 13.05 -0.85 13.05 0.5 12.5 0.5 12.5 1.8 10.8 1.8 10.85 0.5 10.85 -0.85 11.45 -1.85 M10.85 0.5 L12.5 0.5 10.85 0.5" fill="#cccccc" fill-rule="evenodd" stroke="none"/>
    <path d="M2.35 -3.25 L4.5 -2.65 0.65 -0.5 -1.15 -0.5 -1.15 -1.25 -6.95 -1.25 -6.7 -1.45 Q-4.7 -2.9 -1.75 -3.25 L-1.5 -3.25 0.85 -3.35 2.35 -3.25 M12.5 -1.85 L14.05 -1.85 14.05 -0.85 14.6 -0.85 14.6 0.5 14.05 0.5 14.05 1.8 12.5 1.8 12.5 0.5 13.05 0.5 13.05 -0.85 12.5 -0.85 12.5 -1.85 M14.05 -0.85 L13.05 -0.85 14.05 -0.85 M14.05 0.5 L13.05 0.5 14.05 0.5 M1.1 0.2 L3.45 -1.2 3.45 0.2 Q3.0 0.45 2.5 0.65 L1.1 0.2 M-1.75 -0.35 L-1.75 0.6 -5.5 0.6 -6.15 -0.35 -1.75 -0.35" fill="#cc0000" fill-rule="evenodd" stroke="none"/>
    <path d="M-6.95 -1.25 L-1.15 -1.25 -1.15 -0.5 0.65 -0.5 4.5 -2.65 5.5 -2.65 5.85 -2.65 8.8 -2.65 Q11.8 -2.5 11.45 -1.85 L10.85 -0.85 10.85 0.5 10.8 1.8 9.85 2.4 8.75 2.7 7.65 2.35 6.25 2.35 4.05 2.2 3.3 2.2 3.3 2.0 -1.85 2.0 -1.85 2.2 -2.85 2.2 -3.5 1.6 -4.25 1.6 -6.45 1.05 -6.85 -0.15 -7.1 -0.15 -7.3 -0.5 -7.3 -1.25 -7.15 -1.1 -6.95 -1.25 M9.9 -1.15 L6.0 -1.15 4.1 -1.15 6.0 -1.15 9.9 -1.15 M6.0 1.0 L6.0 0.2 8.25 0.2 6.0 0.2 6.0 1.0 M1.1 0.2 L2.5 0.65 Q3.0 0.45 3.45 0.2 L3.45 -1.2 1.1 0.2 M6.0 -1.15 L6.0 0.2 6.0 -1.15 M-1.75 -0.35 L-6.15 -0.35 -5.5 0.6 -1.75 0.6 -1.75 -0.35" fill="#666666" fill-rule="evenodd" stroke="none"/>
    <path d="M2.35 -3.25 L0.85 -3.35 -1.5 -3.25 -1.75 -3.25 Q-4.7 -2.9 -6.7 -1.45 L-6.95 -1.25 -7.15 -1.1 -7.3 -1.25 -7.6 -1.55 Q-5.3 -3.3 -1.95 -4.1 L-2.0 -4.1 -2.0 -5.05 0.8 -5.05 0.8 -4.6 4.55 -4.85 4.55 -2.95 2.35 -3.25" fill="#484848" fill-rule="evenodd" stroke="none"/>
    <path d="M-1.85 7.1 L-2.0 7.1 Q-1.3 4.8 -2.0 2.45 L-1.75 2.45 -0.15 2.45 Q0.55 4.8 -0.6 7.1 L-1.85 7.1" fill="#1a1a1a" fill-rule="evenodd" stroke="none"/>
    <path d="M4.5 -2.65 L5.5 -2.65 5.85 -2.65 6.45 -3.95 12.2 -3.95 13.25 -2.65 8.8 -2.65 Q11.8 -2.5 11.45 -1.85 L12.5 -1.85 14.05 -1.85 14.05 -0.85 14.6 -0.85 14.6 0.5 14.05 0.5 14.05 1.8 12.5 1.8 10.8 1.8 9.85 2.4 13.25 2.45 12.4 3.9 7.85 3.9 7.85 2.55 8.75 2.7 7.65 2.35 6.25 2.35 Q5.45 4.05 1.8 4.0 1.2 5.25 1.3 7.1 -0.3 8.25 -1.85 7.1 L-2.0 7.1 Q-1.3 4.8 -2.0 2.45 L-1.75 2.45 -1.85 2.2 -2.85 2.2 -3.5 1.6 -4.25 1.6 -3.9 1.7 -4.4 2.65 -7.7 2.65 -8.55 -0.15 -7.1 -0.15 -7.3 -0.5 -7.3 -1.25 -7.6 -1.55 Q-5.3 -3.3 -1.95 -4.1 L-2.0 -4.1 -2.0 -5.05 0.8 -5.05 0.8 -4.6 4.55 -4.85 4.55 -2.95 M4.1 -1.15 L6.0 -1.15 9.9 -1.15 M8.8 -2.65 L5.85 -2.65 M12.5 -0.85 L12.5 -1.85 M10.85 -0.85 L12.5 -0.85 13.05 -0.85 14.05 -0.85 M10.8 1.8 L10.85 0.5 10.85 -0.85 11.45 -1.85 M13.05 0.5 L14.05 0.5 M12.5 0.5 L10.85 0.5 M12.5 1.8 L12.5 0.5 13.05 0.5 13.05 -0.85 M8.25 0.2 L6.0 0.2 6.0 1.0 M8.75 2.7 L9.85 2.4 M3.3 2.2 Q2.45 2.7 2.0 3.55 L1.8 4.0 M3.3 2.2 L4.05 2.2 6.25 2.35 M6.0 0.2 L6.0 -1.15 M-6.95 -1.25 L-7.15 -1.1 -7.3 -1.25 M-7.1 -0.15 L-6.85 -0.15 -6.45 1.05 -4.25 1.6 M-1.85 7.1 L-0.6 7.1 Q0.55 4.8 -0.15 2.45 L-1.75 2.45" fill="none" stroke="#000000" stroke-linecap="round" stroke-linejoin="round" stroke-width="0.5"/>
    <path d="M2.35 -3.25 L0.85 -3.35 -1.5 -3.25 -1.75 -3.25 Q-4.7 -2.9 -6.7 -1.45 L-6.95 -1.25 -1.15 -1.25 -1.15 -0.5 0.65 -0.5 4.5 -2.65 M4.55 -2.95 L2.35 -3.25 M1.1 0.2 L3.45 -1.2 3.45 0.2 Q3.0 0.45 2.5 0.65 L1.1 0.2 M-1.75 -0.35 L-1.75 0.6 -5.5 0.6 -6.15 -0.35 -1.75 -0.35 Z" fill="none" stroke="#880000" stroke-linecap="round" stroke-linejoin="round" stroke-width="0.5"/>
  </g>
</svg>
