<?xml version="1.0" encoding="UTF-8" standalone="no"?>
<svg xmlns:xlink="http://www.w3.org/1999/xlink" height="15.45px" width="42.2px" xmlns="http://www.w3.org/2000/svg">
  <g transform="matrix(1.0, 0.0, 0.0, 1.0, 14.8, 7.05)">
    <path d="M22.65 1.25 L22.65 3.0 21.2 3.0 10.45 3.0 7.85 3.0 6.5 4.1 Q6.15 3.75 4.85 3.25 L2.9 2.75 2.3 2.7 1.35 2.7 1.35 2.5 Q-2.95 1.35 -5.55 2.5 L-6.25 2.0 -8.65 1.4 -9.2 -0.05 -11.9 -0.6 -11.45 -1.5 -4.45 -1.5 -4.3 -0.75 -4.3 -0.6 -4.25 -0.5 0.35 -0.5 Q0.0 -2.05 0.7 -3.0 L0.75 -3.2 1.55 -3.2 4.3 -3.2 Q4.15 -2.45 4.4 -1.5 L4.4 -1.45 13.05 -0.8 Q12.8 0.55 10.45 1.35 L10.45 3.0 10.45 1.35 20.05 1.35 22.65 1.25 M1.05 -1.5 L3.35 -1.5 4.4 -1.5 3.35 -1.5 3.35 0.15 5.95 0.15 3.35 0.15 3.35 -1.5 1.05 -1.5 M3.35 1.15 L3.35 0.15 3.35 1.15" fill="#666666" fill-rule="evenodd" stroke="none"/>
    <path d="M0.95 -3.85 L1.55 -3.85 0.75 -3.2 0.7 -3.0 Q0.0 -2.05 0.35 -0.5 L-4.25 -0.5 -4.3 -0.6 -4.3 -0.75 -4.45 -1.5 Q-4.6 -2.65 -3.85 -3.6 L-3.65 -3.85 0.95 -3.85 M-0.8 -1.95 L-3.65 -1.95 -0.8 -1.95 M-0.3 -3.0 L-3.35 -3.0 -0.3 -3.0" fill="#373737" fill-rule="evenodd" stroke="none"/>
    <path d="M1.55 -3.2 Q1.8 -4.6 2.85 -5.3 3.95 -5.85 5.0 -5.65 L5.7 -5.65 5.4 -5.35 Q4.55 -4.4 4.3 -3.2 L1.55 -3.2 M20.65 -4.4 Q23.9 -3.85 26.75 -2.75 L24.4 -1.15 Q23.25 -0.2 20.05 1.35 L10.45 1.35 Q12.8 0.55 13.05 -0.8 L17.3 -0.55 18.05 -2.5 21.7 -2.2 18.05 -2.5 Q19.0 -3.85 20.65 -4.4 M21.2 3.0 Q22.4 4.55 21.2 6.55 L18.6 6.55 Q18.0 6.05 17.7 4.35 16.8 4.1 16.05 4.35 16.4 5.85 17.0 6.55 L14.95 6.55 Q14.25 6.05 13.95 4.3 13.05 3.95 12.3 4.3 12.75 5.85 13.3 6.55 L10.95 6.55 Q10.4 6.05 10.0 4.3 9.15 3.95 8.3 4.3 8.8 5.85 9.4 6.55 L7.85 6.55 Q6.8 6.4 6.6 5.05 L6.5 4.1 7.85 3.0 10.45 3.0 21.2 3.0 M-11.9 -0.6 L-14.45 -0.6 Q-15.15 -5.0 -10.55 -5.3 -10.4 -4.05 -8.85 -4.05 L-9.2 -3.6 -3.85 -3.6 Q-4.6 -2.65 -4.45 -1.5 L-11.45 -1.5 -11.9 -0.6 M20.65 -0.75 L18.9 -0.9 20.65 -0.75" fill="#cccccc" fill-rule="evenodd" stroke="none"/>
    <path d="M5.7 -5.65 L7.3 -6.8 11.4 -6.8 Q9.25 -6.45 8.1 -3.35 L9.4 -3.35 Q9.9 -5.0 10.7 -5.75 11.55 -6.5 12.5 -6.75 L14.0 -6.6 16.75 -6.25 Q15.65 -6.35 14.25 -5.85 L13.5 -5.35 Q12.55 -4.6 11.8 -3.1 L12.95 -3.1 Q13.55 -4.55 14.9 -5.25 16.25 -6.0 17.9 -6.05 L21.35 -4.6 20.65 -4.4 Q19.0 -3.85 18.05 -2.5 L17.3 -0.55 13.05 -0.8 4.4 -1.45 4.4 -1.5 Q4.15 -2.45 4.3 -3.2 4.55 -4.4 5.4 -5.35 L5.7 -5.65" fill="#6a6a6a" fill-rule="evenodd" stroke="none"/>
    <path d="M26.75 -2.75 L24.75 -1.25 27.15 -1.25 27.15 0.3 23.45 0.3 22.65 0.8 22.65 1.25 20.05 1.35 Q23.25 -0.2 24.4 -1.15 L26.75 -2.75 M0.15 6.05 L0.3 7.85 Q-3.6 8.65 -5.05 7.2 -4.45 5.9 -4.6 4.6 -4.75 3.3 -5.55 2.5 L-6.25 3.4 -10.15 3.4 -11.9 -0.6 -9.2 -0.05 -8.65 1.4 -6.25 2.0 -5.55 2.5 Q-2.95 1.35 1.35 2.5 L1.35 2.7 Q0.45 3.35 0.15 4.85 0.0 5.45 0.15 6.05 M-8.85 -4.05 L-8.1 -4.8 -4.3 -4.8 -3.2 -5.85 -2.45 -5.85 -2.45 -4.8 0.95 -4.8 0.95 -3.85 -3.65 -3.85 -3.85 -3.6 -9.2 -3.6 -8.85 -4.05 M-3.7 6.8 L-2.4 5.6 -1.7 6.75 -2.4 5.6 -3.7 6.8 M-1.2 4.45 L-2.4 5.6 -3.1 4.45 -2.4 5.6 -1.2 4.45" fill="#333333" fill-rule="evenodd" stroke="none"/>
    <path d="M11.4 -6.8 L11.75 -6.8 12.5 -6.75 Q11.55 -6.5 10.7 -5.75 9.9 -5.0 9.4 -3.35 L8.1 -3.35 Q9.25 -6.45 11.4 -6.8 M16.75 -6.25 L17.9 -6.05 Q16.25 -6.0 14.9 -5.25 13.55 -4.55 12.95 -3.1 L11.8 -3.1 Q12.55 -4.6 13.5 -5.35 L14.25 -5.85 Q15.65 -6.35 16.75 -6.25 M18.6 6.55 Q18.6 7.45 17.7 7.15 L17.0 6.55 Q16.4 5.85 16.05 4.35 16.8 4.1 17.7 4.35 18.0 6.05 18.6 6.55 M14.95 6.55 Q14.9 7.4 13.95 7.05 L13.3 6.55 Q12.75 5.85 12.3 4.3 13.05 3.95 13.95 4.3 14.25 6.05 14.95 6.55 M10.95 6.55 Q10.95 7.4 10.0 7.05 L9.4 6.55 Q8.8 5.85 8.3 4.3 9.15 3.95 10.0 4.3 10.4 6.05 10.95 6.55" fill="#007bcc" fill-rule="evenodd" stroke="none"/>
    <path d="M24.75 -1.25 L27.15 -1.25 27.15 0.3 23.45 0.3 22.65 0.8 M6.6 5.05 Q3.45 6.65 0.15 6.05 L0.3 7.85 Q-3.6 8.65 -5.05 7.2 -4.45 5.9 -4.6 4.6 -4.75 3.3 -5.55 2.5 L-6.25 3.4 -10.15 3.4 -11.9 -0.6 -9.2 -0.05 -8.65 1.4 -6.25 2.0 -5.55 2.5 M-8.85 -4.05 L-8.1 -4.8 -4.3 -4.8 -3.2 -5.85 -2.45 -5.85 -2.45 -4.8 0.95 -4.8 0.95 -3.85 1.55 -3.85 0.75 -3.2 1.55 -3.2 M0.75 -3.2 L0.7 -3.0 Q0.0 -2.05 0.35 -0.5 L-4.25 -0.5 -4.3 -0.6 -4.3 -0.75 -4.45 -1.5 Q-4.6 -2.65 -3.85 -3.6 L-3.65 -3.85 0.95 -3.85 M1.35 2.7 Q0.45 3.35 0.15 4.85 0.0 5.45 0.15 6.05 M-8.85 -4.05 L-9.2 -3.6 -3.85 -3.6" fill="none" stroke="#1a1a1a" stroke-linecap="round" stroke-linejoin="round" stroke-width="0.5"/>
    <path d="M1.55 -3.2 L4.3 -3.2 M-4.45 -1.5 L-11.45 -1.5 -11.9 -0.6 M6.5 4.1 L7.85 3.0 10.45 3.0 10.45 1.35 Q12.8 0.55 13.05 -0.8 M20.05 1.35 L22.65 1.25 M18.9 -0.9 L20.65 -0.75 M18.05 -2.5 L21.7 -2.2 M20.05 1.35 L10.45 1.35 M21.2 3.0 L10.45 3.0" fill="none" stroke="#333333" stroke-linecap="round" stroke-linejoin="round" stroke-width="0.5"/>
    <path d="M1.55 -3.2 Q1.8 -4.6 2.85 -5.3 3.95 -5.85 5.0 -5.65 L5.7 -5.65 7.3 -6.8 11.4 -6.8 M12.5 -6.75 L14.0 -6.6 16.75 -6.25 M17.9 -6.05 L21.35 -4.6 20.65 -4.4 Q23.9 -3.85 26.75 -2.75 L24.75 -1.25 M22.65 0.8 L22.65 1.25 M22.65 3.0 L21.2 3.0 Q22.4 4.55 21.2 6.55 L18.6 6.55 M17.0 6.55 L14.95 6.55 M13.3 6.55 L10.95 6.55 M9.4 6.55 L7.85 6.55 Q6.8 6.4 6.6 5.05 L6.5 4.1 Q6.15 3.75 4.85 3.25 L2.9 2.75 2.3 2.7 1.35 2.7 M-11.9 -0.6 L-14.45 -0.6 Q-15.15 -5.0 -10.55 -5.3 -10.4 -4.05 -8.85 -4.05 M4.3 -3.2 Q4.55 -4.4 5.4 -5.35 L5.7 -5.65 M13.05 -0.8 L4.4 -1.45 4.4 -1.5 3.35 -1.5 3.35 0.15 5.95 0.15 M3.35 -1.5 L1.05 -1.5 M4.3 -3.2 Q4.15 -2.45 4.4 -1.5 M18.05 -2.5 L17.3 -0.55 13.05 -0.8 M26.75 -2.75 L24.4 -1.15 Q23.25 -0.2 20.05 1.35 M20.65 -4.4 Q19.0 -3.85 18.05 -2.5 M3.35 0.15 L3.35 1.15" fill="none" stroke="#373737" stroke-linecap="round" stroke-linejoin="round" stroke-width="0.5"/>
    <path d="M22.65 1.25 L22.65 3.0" fill="none" stroke="#ff0000" stroke-linecap="round" stroke-linejoin="round" stroke-width="0.5"/>
    <path d="M-3.35 -3.0 L-0.3 -3.0 M-3.65 -1.95 L-0.8 -1.95" fill="none" stroke="#007bcc" stroke-linecap="round" stroke-linejoin="round" stroke-width="0.5"/>
    <path d="M11.4 -6.8 L11.75 -6.8 12.5 -6.75 Q11.55 -6.5 10.7 -5.75 9.9 -5.0 9.4 -3.35 L8.1 -3.35 Q9.25 -6.45 11.4 -6.8 M16.75 -6.25 L17.9 -6.05 Q16.25 -6.0 14.9 -5.25 13.55 -4.55 12.95 -3.1 L11.8 -3.1 Q12.55 -4.6 13.5 -5.35 L14.25 -5.85 Q15.65 -6.35 16.75 -6.25 M18.6 6.55 Q18.6 7.45 17.7 7.15 L17.0 6.55 Q16.4 5.85 16.05 4.35 16.8 4.1 17.7 4.35 18.0 6.05 18.6 6.55 M14.95 6.55 Q14.9 7.4 13.95 7.05 L13.3 6.55 Q12.75 5.85 12.3 4.3 13.05 3.95 13.95 4.3 14.25 6.05 14.95 6.55 M10.95 6.55 Q10.95 7.4 10.0 7.05 L9.4 6.55 Q8.8 5.85 8.3 4.3 9.15 3.95 10.0 4.3 10.4 6.05 10.95 6.55" fill="none" stroke="#152b48" stroke-linecap="round" stroke-linejoin="round" stroke-width="0.5"/>
    <path d="M2.9 2.75 L2.35 4.3 M-3.1 4.45 L-2.4 5.6 -1.2 4.45 M-1.7 6.75 L-2.4 5.6 -3.7 6.8" fill="none" stroke="#1a1a1a" stroke-linecap="round" stroke-linejoin="round" stroke-width="1.0"/>
  </g>
</svg>
