<?xml version="1.0" encoding="UTF-8" standalone="no"?>
<svg xmlns:xlink="http://www.w3.org/1999/xlink" height="143.5px" width="56.5px" xmlns="http://www.w3.org/2000/svg">
  <g transform="matrix(1.0, 0.0, 0.0, 1.0, 25.75, 29.0)">
    <path d="M-4.45 -14.05 L-4.05 -14.2 Q1.75 -15.75 6.9 -12.75 12.1 -9.75 13.65 -3.95 L13.85 -3.2 Q15.0 2.2 12.2 7.0 9.25 12.15 3.45 13.7 L3.05 13.8 Q-2.55 15.15 -7.55 12.25 -12.7 9.3 -14.25 3.5 L-14.5 2.4 Q-15.5 -2.8 -12.85 -7.5 -9.95 -12.45 -4.45 -14.05" fill="url(#gradient0)" fill-rule="evenodd" stroke="none"/>
    <path d="M-4.9 -17.85 Q2.45 -19.8 9.05 -16.0 15.7 -12.2 17.7 -4.8 L18.0 -3.6 13.85 -3.2 18.0 -3.6 Q19.35 3.15 15.8 9.25 12.0 15.9 4.6 17.85 L4.4 17.9 Q-2.9 19.8 -9.45 16.0 -16.1 12.2 -18.1 4.8 L-18.2 4.4 Q-19.95 -2.8 -16.2 -9.25 -12.35 -15.85 -4.95 -17.85 L-4.9 -17.85 -4.45 -14.05 -4.9 -17.85 M13.85 -3.2 L13.65 -3.95 Q12.1 -9.75 6.9 -12.75 1.75 -15.75 -4.05 -14.2 L-4.45 -14.05 Q-9.95 -12.45 -12.85 -7.5 -15.5 -2.8 -14.5 2.4 L-14.25 3.5 Q-12.7 9.3 -7.55 12.25 -2.55 15.15 3.05 13.8 L4.4 17.9 3.05 13.8 3.45 13.7 Q9.25 12.15 12.2 7.0 15.0 2.2 13.85 -3.2 M-18.2 4.4 L-14.5 2.4 -18.2 4.4" fill="url(#gradient1)" fill-rule="evenodd" stroke="none"/>
    <path d="M13.4 -28.0 L29.75 -11.65 29.75 13.1 19.25 33.55 19.25 68.05 29.75 83.15 29.75 100.0 19.25 111.0 2.75 113.5 -10.2 100.0 -24.75 16.1 -24.75 -13.85 -10.85 -28.0 13.4 -28.0 M18.0 -3.6 L17.7 -4.8 Q15.7 -12.2 9.05 -16.0 2.45 -19.8 -4.9 -17.85 L-4.95 -17.85 Q-12.35 -15.85 -16.2 -9.25 -19.95 -2.8 -18.2 4.4 L-18.1 4.8 Q-16.1 12.2 -9.45 16.0 -2.9 19.8 4.4 17.9 L4.6 17.85 Q12.0 15.9 15.8 9.25 19.35 3.15 18.0 -3.6 M-12.35 24.5 L-16.85 21.05 -12.35 24.5 -5.4 82.15 -12.35 24.5 M-8.15 86.25 L-5.4 82.15 -8.15 86.25" fill="url(#gradient2)" fill-rule="evenodd" stroke="none"/>
    <path d="M18.0 -3.6 L17.7 -4.8 Q15.7 -12.2 9.05 -16.0 2.45 -19.8 -4.9 -17.85 L-4.95 -17.85 Q-12.35 -15.85 -16.2 -9.25 -19.95 -2.8 -18.2 4.4 L-18.1 4.8 Q-16.1 12.2 -9.45 16.0 -2.9 19.8 4.4 17.9 L4.6 17.85 Q12.0 15.9 15.8 9.25 19.35 3.15 18.0 -3.6" fill="none" stroke="#000000" stroke-linecap="round" stroke-linejoin="round" stroke-width="1.0"/>
    <path d="M-4.9 -17.85 L-4.45 -14.05 M13.85 -3.2 L18.0 -3.6 M4.4 17.9 L3.05 13.8 M-14.5 2.4 L-18.2 4.4" fill="none" stroke="#626262" stroke-linecap="round" stroke-linejoin="round" stroke-width="1.0"/>
    <path d="M-12.35 24.5 L-5.4 82.15" fill="none" stroke="#4d4d4d" stroke-linecap="round" stroke-linejoin="round" stroke-width="1.0"/>
    <path d="M-16.85 21.05 L-12.35 24.5 M-5.4 82.15 L-8.15 86.25" fill="none" stroke="#666666" stroke-linecap="round" stroke-linejoin="round" stroke-width="1.0"/>
    <path d="M13.4 -28.0 L-10.85 -28.0 -24.75 -13.85 -24.75 16.1 -10.2 100.0 2.75 113.5 19.25 111.0 29.75 100.0 29.75 83.15 19.25 68.05 19.25 33.55 29.75 13.1 29.75 -11.65 13.4 -28.0 Z" fill="none" stroke="#000000" stroke-linecap="round" stroke-linejoin="round" stroke-width="2.0"/>
    <path d="M15.65 90.9 L15.55 90.55 Q14.85 87.85 12.4 86.45 10.0 85.05 7.3 85.75 L7.1 85.85 6.9 84.05 7.1 85.85 Q4.5 86.6 3.15 88.9 1.95 91.1 2.4 93.55 L2.5 94.05 Q3.25 96.75 5.65 98.15 8.0 99.5 10.6 98.85 L10.8 98.8 Q13.5 98.1 14.85 95.7 16.2 93.45 15.65 90.9 L17.6 90.75 15.65 90.9 M6.9 84.05 Q10.3 83.15 13.4 84.95 16.5 86.7 17.45 90.15 L17.6 90.75 Q18.2 93.9 16.55 96.75 14.8 99.85 11.3 100.75 L11.25 100.75 Q7.8 101.65 4.75 99.9 1.65 98.1 0.7 94.65 L0.65 94.45 Q-0.15 91.1 1.6 88.1 3.4 85.0 6.85 84.05 L6.9 84.05 M2.4 93.55 L0.65 94.45 2.4 93.55 M10.6 98.85 L11.25 100.75 10.6 98.85" fill="url(#gradient3)" fill-rule="evenodd" stroke="none"/>
    <path d="M7.1 85.85 L7.3 85.75 Q10.0 85.05 12.4 86.45 14.85 87.85 15.55 90.55 L15.65 90.9 Q16.2 93.45 14.85 95.7 13.5 98.1 10.8 98.8 L10.6 98.85 Q8.0 99.5 5.65 98.15 3.25 96.75 2.5 94.05 L2.4 93.55 Q1.95 91.1 3.15 88.9 4.5 86.6 7.1 85.85" fill="url(#gradient4)" fill-rule="evenodd" stroke="none"/>
    <path d="M17.6 90.75 L17.45 90.15 Q16.5 86.7 13.4 84.95 10.3 83.15 6.9 84.05 L6.85 84.05 Q3.4 85.0 1.6 88.1 -0.15 91.1 0.65 94.45 L0.7 94.65 Q1.65 98.1 4.75 99.9 7.8 101.65 11.25 100.75 L11.3 100.75 Q14.8 99.85 16.55 96.75 18.2 93.9 17.6 90.75" fill="none" stroke="#000000" stroke-linecap="round" stroke-linejoin="round" stroke-width="1.0"/>
    <path d="M15.65 90.9 L17.6 90.75 M6.9 84.05 L7.1 85.85 M0.65 94.45 L2.4 93.55 M11.25 100.75 L10.6 98.85" fill="none" stroke="#626262" stroke-linecap="round" stroke-linejoin="round" stroke-width="1.0"/>
  </g>
  <defs>
    <radialGradient cx="0" cy="0" gradientTransform="matrix(0.0182, 0.0, 0.0, 0.0182, -0.3, -0.25)" gradientUnits="userSpaceOnUse" id="gradient0" r="819.2" spreadMethod="pad">
      <stop offset="0.2235294117647059" stop-color="#999999"/>
      <stop offset="1.0" stop-color="#6f6f6f"/>
    </radialGradient>
    <radialGradient cx="0" cy="0" gradientTransform="matrix(0.0656, -0.0069, 0.0146, 0.1378, 3.55, 36.55)" gradientUnits="userSpaceOnUse" id="gradient1" r="819.2" spreadMethod="pad">
      <stop offset="0.0" stop-color="#ffffff"/>
      <stop offset="1.0" stop-color="#000000"/>
    </radialGradient>
    <radialGradient cx="0" cy="0" gradientTransform="matrix(0.0946, -0.01, 0.021, 0.1989, 3.55, 36.55)" gradientUnits="userSpaceOnUse" id="gradient2" r="819.2" spreadMethod="pad">
      <stop offset="0.00392156862745098" stop-color="#8c8c8c"/>
      <stop offset="1.0" stop-color="#3c3c3c"/>
    </radialGradient>
    <radialGradient cx="0" cy="0" gradientTransform="matrix(0.0306, -0.0032, 0.0068, 0.0644, 10.85, 109.5)" gradientUnits="userSpaceOnUse" id="gradient3" r="819.2" spreadMethod="pad">
      <stop offset="0.0" stop-color="#ffffff"/>
      <stop offset="1.0" stop-color="#000000"/>
    </radialGradient>
    <radialGradient cx="0" cy="0" gradientTransform="matrix(0.0085, 0.0, 0.0, 0.0085, 9.05, 92.3)" gradientUnits="userSpaceOnUse" id="gradient4" r="819.2" spreadMethod="pad">
      <stop offset="0.2235294117647059" stop-color="#999999"/>
      <stop offset="1.0" stop-color="#6f6f6f"/>
    </radialGradient>
  </defs>
</svg>
