<?xml version="1.0" encoding="UTF-8" standalone="no"?>
<svg xmlns:xlink="http://www.w3.org/1999/xlink" height="36.2px" width="92.75px" xmlns="http://www.w3.org/2000/svg">
  <g transform="matrix(1.0, 0.0, 0.0, 1.0, 42.05, 4.8)">
    <path d="M-7.1 8.25 L-17.55 14.85 -23.0 13.45 -9.35 4.65 -7.1 8.25" fill="url(#gradient0)" fill-rule="evenodd" stroke="none"/>
    <path d="M17.7 0.0 L22.15 -2.8 28.4 4.15 31.0 11.8 30.3 11.9 12.55 14.05 13.8 24.3 25.35 24.3 22.55 30.0 11.25 30.0 7.25 23.3 -0.55 23.3 -4.55 30.0 -9.6 30.0 -9.6 15.6 -6.4 9.35 -0.5 2.5 12.85 2.5 17.7 0.0" fill="url(#gradient1)" fill-rule="evenodd" stroke="none"/>
    <path d="M-17.55 14.85 L-11.3 16.5 -11.3 22.35 -25.25 22.35 -28.4 30.4 -41.05 30.4 -28.4 12.05 -23.0 13.45 -17.55 14.85" fill="url(#gradient2)" fill-rule="evenodd" stroke="none"/>
    <path d="M30.3 11.9 L39.45 10.8 49.7 30.35 35.25 30.35 30.55 24.3 25.35 24.3 13.8 24.3 12.55 14.05 30.3 11.9" fill="url(#gradient3)" fill-rule="evenodd" stroke="none"/>
    <path d="M-9.35 4.65 L-10.25 3.25 -5.25 -3.65 9.85 -3.8 17.7 0.0 12.85 2.5 -0.5 2.5 -6.4 9.35 -7.1 8.25 -9.35 4.65" fill="url(#gradient4)" fill-rule="evenodd" stroke="none"/>
    <path d="M-9.35 4.65 L-10.25 3.25 -5.25 -3.65 9.85 -3.8 17.7 0.0 22.15 -2.8 28.4 4.15 31.0 11.8 30.3 11.9 39.45 10.8 49.7 30.35 35.25 30.35 30.55 24.3 25.35 24.3 22.55 30.0 11.25 30.0 7.25 23.3 -0.55 23.3 -4.55 30.0 -9.6 30.0 -9.6 15.6 -6.4 9.35 -7.1 8.25 -17.55 14.85 -11.3 16.5 -11.3 22.35 -25.25 22.35 -28.4 30.4 -41.05 30.4 -28.4 12.05 -23.0 13.45 -9.35 4.65 -7.1 8.25 M30.3 11.9 L12.55 14.05 13.8 24.3 25.35 24.3 M17.7 0.0 L12.85 2.5 -0.5 2.5 -6.4 9.35 M-23.0 13.45 L-17.55 14.85" fill="none" stroke="#000000" stroke-linecap="round" stroke-linejoin="round" stroke-width="2.0"/>
  </g>
  <defs>
    <radialGradient cx="0" cy="0" gradientTransform="matrix(0.0069, 0.0069, -0.0159, 0.0159, -15.75, 9.25)" gradientUnits="userSpaceOnUse" id="gradient0" r="819.2" spreadMethod="pad">
      <stop offset="0.0" stop-color="#888888"/>
      <stop offset="1.0" stop-color="#2b2b2b"/>
    </radialGradient>
    <radialGradient cx="0" cy="0" gradientTransform="matrix(0.0, 0.0579, -0.0366, 0.0, 15.5, 13.6)" gradientUnits="userSpaceOnUse" id="gradient1" r="819.2" spreadMethod="pad">
      <stop offset="0.0" stop-color="#808080"/>
      <stop offset="1.0" stop-color="#484848"/>
    </radialGradient>
    <radialGradient cx="0" cy="0" gradientTransform="matrix(0.0425, -0.0114, 0.0057, 0.0212, -29.45, 15.95)" gradientUnits="userSpaceOnUse" id="gradient2" r="819.2" spreadMethod="pad">
      <stop offset="0.0" stop-color="#595959"/>
      <stop offset="1.0" stop-color="#2f2f2f"/>
    </radialGradient>
    <radialGradient cx="0" cy="0" gradientTransform="matrix(0.0619, 0.0166, -0.0087, 0.0325, 40.5, 12.5)" gradientUnits="userSpaceOnUse" id="gradient3" r="819.2" spreadMethod="pad">
      <stop offset="0.0" stop-color="#595959"/>
      <stop offset="1.0" stop-color="#2f2f2f"/>
    </radialGradient>
    <radialGradient cx="0" cy="0" gradientTransform="matrix(0.0452, 0.0, 0.0, 0.0199, 6.0, -8.5)" gradientUnits="userSpaceOnUse" id="gradient4" r="819.2" spreadMethod="pad">
      <stop offset="0.0" stop-color="#595959"/>
      <stop offset="1.0" stop-color="#2f2f2f"/>
    </radialGradient>
  </defs>
</svg>
