<?xml version="1.0" encoding="UTF-8" standalone="no"?>
<svg xmlns:xlink="http://www.w3.org/1999/xlink" height="30.5px" width="62.4px" xmlns="http://www.w3.org/2000/svg">
  <g transform="matrix(1.0, 0.0, 0.0, 1.0, 3.2, 22.6)">
    <path d="M11.8 -21.2 Q12.85 -21.3 14.45 -19.75 L17.05 -16.7 19.0 -18.95 Q20.85 -20.9 21.85 -20.9 23.05 -20.9 23.4 -17.35 L23.5 -13.55 23.5 -12.25 Q23.3 -11.2 22.5 -11.2 21.4 -11.2 21.3 -13.95 L21.4 -18.1 21.35 -18.2 Q20.0 -17.35 18.65 -15.35 17.55 -13.7 17.0 -13.7 L15.15 -15.7 12.95 -18.35 Q11.65 -16.2 10.9 -12.55 10.3 -9.8 9.7 -9.8 8.85 -9.8 8.7 -10.8 L8.7 -11.85 Q8.7 -13.9 9.9 -16.6 L11.1 -19.2 10.9 -20.0 Q10.9 -21.1 11.8 -21.2 M-0.1 -2.95 L5.0 -2.95 7.85 -0.8 11.25 -0.45 15.4 -0.75 Q15.8 1.55 17.5 2.8 15.8 1.55 15.4 -0.75 L11.25 -0.45 7.85 -0.8 5.0 -2.95 -0.1 -2.95 1.95 -6.15 7.25 -5.1 5.0 -2.95 7.25 -5.1 20.85 -5.1 30.2 -5.1 Q28.9 1.15 32.95 0.3 28.9 1.15 30.2 -5.1 L32.95 -2.75 32.95 0.3 32.95 2.8 17.5 2.8 6.45 2.8 3.45 2.1 2.65 -0.9 -1.55 -1.6 2.65 -0.9 3.45 2.1 2.25 3.25 0.45 7.4 -2.35 6.6 -1.55 3.8 -2.7 2.35 -1.55 -1.6 -0.1 -2.95 M15.4 -0.75 Q18.75 -1.35 20.85 -5.1 18.75 -1.35 15.4 -0.75 M33.45 -21.4 L34.65 -21.5 35.15 -20.7 35.3 -19.85 35.5 -16.55 Q35.55 -15.1 35.9 -13.1 L36.2 -9.95 36.2 -8.85 Q36.05 -7.9 35.2 -7.9 34.25 -7.9 33.85 -12.8 L33.7 -15.45 33.45 -15.2 Q32.8 -14.6 31.45 -14.6 28.95 -14.6 27.95 -15.75 27.2 -16.6 27.2 -18.6 L27.25 -20.4 Q27.45 -21.1 28.3 -21.0 29.2 -20.9 29.3 -20.3 L29.1 -18.45 Q29.05 -17.3 30.6 -16.65 L32.0 -16.65 32.4 -16.95 32.9 -17.1 33.65 -16.8 33.6 -17.75 33.1 -20.6 Q33.1 -21.1 33.45 -21.4 M39.3 -8.9 L39.95 -11.9 40.7 -16.1 Q40.85 -18.4 41.95 -20.7 43.2 -23.5 44.5 -21.75 45.55 -19.5 47.2 -14.55 L48.65 -10.4 49.7 -7.35 49.45 -6.75 Q49.15 -6.4 48.65 -6.4 47.4 -6.4 45.8 -11.4 L45.4 -12.6 42.45 -12.4 42.4 -12.3 Q41.75 -7.9 40.3 -7.9 39.3 -7.9 39.3 -8.9 M56.95 -20.05 L56.95 -20.1 54.25 -17.65 Q52.1 -15.8 51.2 -15.8 50.2 -15.8 50.2 -16.8 50.2 -17.15 53.2 -19.6 56.45 -22.3 57.95 -22.6 59.2 -21.6 59.2 -16.25 59.2 -9.3 57.9 -9.3 57.2 -9.3 56.95 -9.85 L56.8 -10.4 57.2 -16.25 56.95 -20.05 M44.8 -14.55 L43.4 -19.1 42.7 -14.5 44.8 -14.55 M6.25 1.15 L6.65 0.2 6.25 1.15 M21.15 0.65 L23.9 -1.25 21.15 0.65 M18.25 0.65 L21.0 -1.25 18.25 0.65 M4.75 1.05 L5.25 -0.35 4.75 1.05" fill="#ffffff" fill-rule="evenodd" stroke="none"/>
    <path d="M17.5 2.8 Q15.8 1.55 15.4 -0.75 L11.25 -0.45 7.85 -0.8 5.0 -2.95 -0.1 -2.95 -1.55 -1.6 2.65 -0.9 3.45 2.1 6.45 2.8 17.5 2.8 32.95 2.8 32.95 0.3 Q28.9 1.15 30.2 -5.1 L20.85 -5.1 Q18.75 -1.35 15.4 -0.75 M5.0 -2.95 L7.25 -5.1 1.95 -6.15 -0.1 -2.95 M30.2 -5.1 L32.95 -2.75 32.95 0.3 M7.25 -5.1 L20.85 -5.1 M6.65 0.2 L6.25 1.15 M3.45 2.1 L2.25 3.25 0.45 7.4 -2.35 6.6 -1.55 3.8 -2.7 2.35 -1.55 -1.6 M5.25 -0.35 L4.75 1.05 M21.0 -1.25 L18.25 0.65 M23.9 -1.25 L21.15 0.65" fill="none" stroke="#333333" stroke-linecap="round" stroke-linejoin="round" stroke-width="1.0"/>
  </g>
</svg>
