<?xml version="1.0" encoding="UTF-8" standalone="no"?>
<svg xmlns:xlink="http://www.w3.org/1999/xlink" height="21.0px" width="55.5px" xmlns="http://www.w3.org/2000/svg">
  <g transform="matrix(1.0, 0.0, 0.0, 1.0, 26.65, 11.75)">
    <path d="M-14.95 -8.05 L-14.95 -1.65 -14.95 -1.25 -16.15 0.25 -17.35 1.75 -22.85 1.75 -22.85 -2.65 -26.15 -2.65 -26.15 -5.0 -22.8 -7.9 -20.8 -10.95 -16.75 -10.95 -15.95 -9.65 -14.95 -8.05 M-2.2 3.25 L-0.6 4.75 4.25 4.75 0.25 8.75 -5.75 8.75 -10.65 3.25 -2.2 3.25 M6.35 4.75 L11.6 4.75 10.45 6.3 6.35 6.3 6.35 4.75 M14.65 3.45 L11.55 1.25 15.65 1.25 15.65 -1.6 11.55 -1.6 15.05 -3.85 28.35 -3.85 27.15 -1.6 19.55 -1.6 19.55 1.2 25.95 1.2 24.75 3.45 14.65 3.45" fill="#333333" fill-rule="evenodd" stroke="none"/>
    <path d="M1.8 -7.55 L0.3 -9.05 1.8 -7.55 M-8.25 -9.65 L-6.9 -11.25 1.7 -11.25 5.7 -7.35 11.7 -7.35 15.05 -3.85 11.55 -1.6 11.55 1.25 14.65 3.45 13.4 4.75 11.6 4.75 6.35 4.75 4.25 4.75 -0.6 4.75 -2.2 3.25 -7.3 -1.65 -14.95 -1.65 -14.95 -8.05 -9.6 -8.05 -8.25 -9.65 M3.15 2.5 L0.2 -0.45 3.15 2.5 M6.35 2.5 L3.4 -0.45 6.35 2.5 M-5.35 -9.05 L-6.55 -7.85 -5.35 -9.05 0.3 -9.05 -5.35 -9.05 M0.3 2.5 L-2.65 -0.45 0.3 2.5" fill="#cccccc" fill-rule="evenodd" stroke="none"/>
    <path d="M-8.25 -9.65 L-9.6 -8.05 -14.95 -8.05 -15.95 -9.65 -8.25 -9.65 M-14.95 -1.65 L-7.3 -1.65 -2.2 3.25 -10.65 3.25 -14.45 3.25 -16.15 0.25 -14.95 -1.25 -14.95 -1.65" fill="#7b7b7b" fill-rule="evenodd" stroke="none"/>
    <path d="M15.05 -3.85 L28.35 -3.85 27.15 -1.6 19.55 -1.6 19.55 1.2 25.95 1.2 24.75 3.45 14.65 3.45 M11.55 -1.6 L15.65 -1.6 15.65 1.25 11.55 1.25 M6.35 4.75 L6.35 6.3 10.45 6.3 11.6 4.75 M-10.65 3.25 L-5.75 8.75 0.25 8.75 4.25 4.75 M-15.95 -9.65 L-16.75 -10.95 -20.8 -10.95 -22.8 -7.9 -26.15 -5.0 -26.15 -2.65 -22.85 -2.65 -22.85 1.75 -17.35 1.75 -16.15 0.25" fill="none" stroke="#1a1a1a" stroke-linecap="round" stroke-linejoin="round" stroke-width="1.0"/>
    <path d="M-8.25 -9.65 L-15.95 -9.65 M-10.65 3.25 L-14.45 3.25 -16.15 0.25" fill="none" stroke="#515151" stroke-linecap="round" stroke-linejoin="round" stroke-width="1.0"/>
    <path d="M15.05 -3.85 L11.7 -7.35 5.7 -7.35 1.7 -11.25 -6.9 -11.25 -8.25 -9.65 -9.6 -8.05 -14.95 -8.05 -14.95 -1.65 -7.3 -1.65 -2.2 3.25 -0.6 4.75 4.25 4.75 6.35 4.75 11.6 4.75 13.4 4.75 14.65 3.45 11.55 1.25 11.55 -1.6 15.05 -3.85 M3.4 -0.45 L6.35 2.5 M0.2 -0.45 L3.15 2.5 M-14.95 -1.25 L-14.95 -1.65 M-5.35 -9.05 L0.3 -9.05 M-2.65 -0.45 L0.3 2.5" fill="none" stroke="#6a6a6a" stroke-linecap="round" stroke-linejoin="round" stroke-width="1.0"/>
    <path d="M-16.15 0.25 L-14.95 -1.25 M-15.95 -9.65 L-14.95 -8.05 M-2.2 3.25 L-10.65 3.25" fill="none" stroke="#484848" stroke-linecap="round" stroke-linejoin="round" stroke-width="1.0"/>
    <path d="M0.3 -9.05 L1.8 -7.55 M-6.55 -7.85 L-5.35 -9.05" fill="none" stroke="#919191" stroke-linecap="round" stroke-linejoin="round" stroke-width="1.0"/>
  </g>
</svg>
