<?xml version="1.0" encoding="UTF-8" standalone="no"?>
<svg xmlns:xlink="http://www.w3.org/1999/xlink" height="18.8px" width="41.55px" xmlns="http://www.w3.org/2000/svg">
  <g transform="matrix(1.0, 0.0, 0.0, 1.0, -21.75, 9.55)">
    <path d="M23.35 -6.85 Q24.85 -9.55 27.05 -9.55 29.25 -9.55 30.75 -6.85 32.35 -4.05 32.35 -0.15 32.35 3.65 30.75 6.45 29.25 9.25 27.05 9.25 24.85 9.25 23.35 6.45 21.75 3.65 21.75 -0.15 21.75 -4.05 23.35 -6.85" fill="url(#gradient0)" fill-rule="evenodd" stroke="none"/>
    <path d="M63.3 -0.05 Q63.3 2.65 54.4 4.55 45.5 6.45 32.9 6.45 L28.8 6.45 28.8 -6.55 32.9 -6.7 Q45.5 -6.7 54.4 -4.8 63.3 -2.9 63.3 -0.05" fill="url(#gradient1)" fill-rule="evenodd" stroke="none"/>
  </g>
  <defs>
    <radialGradient cx="0" cy="0" gradientTransform="matrix(0.0066, 0.0, 0.0, 0.0117, 27.05, -0.15)" gradientUnits="userSpaceOnUse" id="gradient0" r="819.2" spreadMethod="pad">
      <stop offset="0.36470588235294116" stop-color="#ffffff"/>
      <stop offset="1.0" stop-color="#00ccff" stop-opacity="0.0"/>
    </radialGradient>
    <radialGradient cx="0" cy="0" gradientTransform="matrix(0.0372, 0.0, 0.0, 0.008, 33.0, -0.2)" gradientUnits="userSpaceOnUse" id="gradient1" r="819.2" spreadMethod="pad">
      <stop offset="0.36470588235294116" stop-color="#ffffff"/>
      <stop offset="1.0" stop-color="#00e6ff" stop-opacity="0.0"/>
    </radialGradient>
  </defs>
</svg>
