<?xml version="1.0" encoding="UTF-8" standalone="no"?>
<svg xmlns:xlink="http://www.w3.org/1999/xlink" height="15.0px" width="33.15px" xmlns="http://www.w3.org/2000/svg">
  <g transform="matrix(1.0, 0.0, 0.0, 1.0, -22.05, 7.75)">
    <path d="M23.35 -5.6 Q24.55 -7.75 26.3 -7.75 28.05 -7.75 29.25 -5.6 30.5 -3.35 30.5 -0.25 30.5 2.8 29.25 5.05 28.05 7.25 26.3 7.25 24.55 7.25 23.35 5.05 22.05 2.8 22.05 -0.25 22.05 -3.35 23.35 -5.6" fill="url(#gradient0)" fill-rule="evenodd" stroke="none"/>
    <path d="M30.95 -5.45 Q41.0 -5.45 48.1 -3.95 55.2 -2.45 55.2 -0.15 55.2 2.0 48.1 3.5 41.0 5.05 30.95 5.05 L27.7 5.05 27.7 -5.35 30.95 -5.45" fill="url(#gradient1)" fill-rule="evenodd" stroke="none"/>
  </g>
  <defs>
    <radialGradient cx="0" cy="0" gradientTransform="matrix(0.0053, 0.0, 0.0, 0.0094, 26.3, -0.25)" gradientUnits="userSpaceOnUse" id="gradient0" r="819.2" spreadMethod="pad">
      <stop offset="0.36470588235294116" stop-color="#ffffff" stop-opacity="0.5411765"/>
      <stop offset="1.0" stop-color="#00ccff" stop-opacity="0.0"/>
    </radialGradient>
    <radialGradient cx="0" cy="0" gradientTransform="matrix(0.0297, 0.0, 0.0, 0.0064, 31.05, -0.25)" gradientUnits="userSpaceOnUse" id="gradient1" r="819.2" spreadMethod="pad">
      <stop offset="0.36470588235294116" stop-color="#ffffff" stop-opacity="0.57254905"/>
      <stop offset="1.0" stop-color="#00e6ff" stop-opacity="0.0"/>
    </radialGradient>
  </defs>
</svg>
