<?xml version="1.0" encoding="UTF-8" standalone="no"?>
<svg xmlns:xlink="http://www.w3.org/1999/xlink" height="150.0px" width="542.9px" xmlns="http://www.w3.org/2000/svg">
  <g transform="matrix(1.0, 0.0, 0.0, 1.0, -61.75, 440.0)">
    <path d="M136.75 -440.0 Q167.8 -440.0 189.75 -418.05 211.75 -396.05 211.75 -365.0 211.75 -333.95 189.75 -312.0 167.8 -290.0 136.75 -290.0 105.7 -290.0 83.7 -312.0 61.75 -333.95 61.75 -365.0 61.75 -396.05 83.7 -418.05 105.7 -440.0 136.75 -440.0" fill="url(#gradient0)" fill-rule="evenodd" stroke="none"/>
    <path d="M303.7 -365.0 Q303.7 -358.4 299.05 -353.7 294.35 -349.0 287.7 -349.0 281.1 -349.0 276.4 -353.7 271.7 -358.4 271.7 -365.0 271.7 -371.6 276.4 -376.3 281.1 -381.0 287.7 -381.0 294.35 -381.0 299.05 -376.3 303.7 -371.6 303.7 -365.0" fill="url(#gradient1)" fill-rule="evenodd" stroke="none"/>
    <path d="M604.65 -365.0 Q604.65 -361.3 602.05 -358.65 599.4 -356.0 595.65 -356.0 591.95 -356.0 589.3 -358.65 586.65 -361.3 586.65 -365.0 586.65 -368.7 589.3 -371.35 591.95 -374.0 595.65 -374.0 599.4 -374.0 602.05 -371.35 604.65 -368.7 604.65 -365.0" fill="url(#gradient2)" fill-rule="evenodd" stroke="none"/>
    <path d="M471.7 -365.0 Q471.7 -362.5 469.95 -360.75 468.2 -359.0 465.7 -359.0 463.25 -359.0 461.45 -360.75 459.7 -362.5 459.7 -365.0 459.7 -367.45 461.45 -369.25 463.25 -371.0 465.7 -371.0 468.2 -371.0 469.95 -369.25 471.7 -367.45 471.7 -365.0" fill="url(#gradient3)" fill-rule="evenodd" stroke="none"/>
    <path d="M399.7 -365.0 Q399.7 -348.9 388.35 -337.45 376.9 -326.0 360.7 -326.0 344.6 -326.0 333.15 -337.45 321.7 -348.9 321.7 -365.0 321.7 -381.1 333.15 -392.55 344.6 -404.0 360.7 -404.0 376.9 -404.0 388.35 -392.55 399.7 -381.1 399.7 -365.0" fill="url(#gradient4)" fill-rule="evenodd" stroke="none"/>
  </g>
  <defs>
    <radialGradient cx="0" cy="0" gradientTransform="matrix(0.0922, 0.0, 0.0, 0.0922, 136.75, -365.0)" gradientUnits="userSpaceOnUse" id="gradient0" r="819.2" spreadMethod="pad">
      <stop offset="0.0" stop-color="#bbebff"/>
      <stop offset="0.13333333333333333" stop-color="#77d7ff" stop-opacity="0.7529412"/>
      <stop offset="0.3607843137254902" stop-color="#33aeff" stop-opacity="0.5019608"/>
      <stop offset="0.5725490196078431" stop-color="#2b95ff" stop-opacity="0.2509804"/>
      <stop offset="0.8941176470588236" stop-color="#2d2dfd" stop-opacity="0.0"/>
      <stop offset="0.9294117647058824" stop-color="#d20202" stop-opacity="0.0"/>
      <stop offset="0.9568627450980393" stop-color="#fe6767" stop-opacity="0.050980393"/>
      <stop offset="1.0" stop-color="#ff0000" stop-opacity="0.0"/>
    </radialGradient>
    <radialGradient cx="0" cy="0" gradientTransform="matrix(0.0197, 0.0, 0.0, 0.0197, 287.7, -365.0)" gradientUnits="userSpaceOnUse" id="gradient1" r="819.2" spreadMethod="pad">
      <stop offset="0.0" stop-color="#fefe67" stop-opacity="0.16078432"/>
      <stop offset="0.32941176470588235" stop-color="#ebe340" stop-opacity="0.03137255"/>
      <stop offset="1.0" stop-color="#ccb700" stop-opacity="0.0"/>
    </radialGradient>
    <radialGradient cx="0" cy="0" gradientTransform="matrix(0.0111, 0.0, 0.0, 0.0111, 595.65, -365.0)" gradientUnits="userSpaceOnUse" id="gradient2" r="819.2" spreadMethod="pad">
      <stop offset="0.0" stop-color="#fefe67" stop-opacity="0.16078432"/>
      <stop offset="0.32941176470588235" stop-color="#ebe340" stop-opacity="0.03137255"/>
      <stop offset="1.0" stop-color="#ccb700" stop-opacity="0.0"/>
    </radialGradient>
    <radialGradient cx="0" cy="0" gradientTransform="matrix(0.0074, 0.0, 0.0, 0.0074, 465.7, -365.0)" gradientUnits="userSpaceOnUse" id="gradient3" r="819.2" spreadMethod="pad">
      <stop offset="0.0" stop-color="#67ccfe" stop-opacity="0.050980393"/>
      <stop offset="1.0" stop-color="#66ccff" stop-opacity="0.101960786"/>
    </radialGradient>
    <radialGradient cx="0" cy="0" gradientTransform="matrix(0.0479, 0.0, 0.0, 0.0479, 360.7, -365.0)" gradientUnits="userSpaceOnUse" id="gradient4" r="819.2" spreadMethod="pad">
      <stop offset="0.0" stop-color="#119f9a" stop-opacity="0.011764706"/>
      <stop offset="0.9294117647058824" stop-color="#2efcfb" stop-opacity="0.023529412"/>
      <stop offset="1.0" stop-color="#009999" stop-opacity="0.0"/>
    </radialGradient>
  </defs>
</svg>
