<?xml version="1.0" encoding="UTF-8" standalone="no"?>
<svg xmlns:xlink="http://www.w3.org/1999/xlink" height="8.0px" width="43.4px" xmlns="http://www.w3.org/2000/svg">
  <g transform="matrix(1.0, 0.0, 0.0, 1.0, 21.45, 3.95)">
    <path d="M20.05 -0.15 L10.15 0.35 5.8 0.5 -2.8 1.05 -9.15 1.8 -9.3 1.8 -13.35 2.5 -16.55 2.5 -17.8 2.25 Q-19.8 1.3 -19.2 -0.65 -18.65 -2.55 -14.35 -2.3 L-12.95 -2.25 -9.3 -1.8 -7.25 -1.55 -2.8 -1.15 5.8 -0.75 20.05 -0.15" fill="#ffffff" fill-rule="evenodd" stroke="none"/>
    <path d="M20.05 -0.15 L5.8 -0.75 -2.8 -1.15 -7.25 -1.55 -9.3 -1.8 -12.95 -2.25 -14.35 -2.3 Q-18.65 -2.55 -19.2 -0.65 -19.8 1.3 -17.8 2.25 L-16.55 2.5 -13.35 2.5 -9.3 1.8 -9.15 1.8 -2.8 1.05 5.8 0.5 10.15 0.35 20.05 -0.15 M5.8 -2.25 L20.3 -1.65 21.05 -1.65 21.2 -1.65 Q21.55 -1.65 21.7 -1.25 L21.95 -0.4 21.95 0.25 Q21.7 0.4 21.7 0.6 L21.2 1.15 20.3 1.25 19.3 1.25 5.8 2.0 -2.2 2.5 -2.8 2.55 -9.3 3.2 -12.2 3.7 -12.95 3.9 Q-15.25 4.15 -17.65 3.95 L-17.8 3.95 Q-21.25 3.7 -21.45 0.35 -21.6 -3.05 -17.3 -3.95 L-17.25 -3.95 -12.95 -3.8 -11.3 -3.55 -9.3 -3.2 -2.8 -2.7 5.8 -2.25" fill="url(#gradient0)" fill-rule="evenodd" stroke="none"/>
  </g>
  <defs>
    <linearGradient gradientTransform="matrix(0.0265, 0.0, 0.0, 0.0049, 0.25, 0.05)" gradientUnits="userSpaceOnUse" id="gradient0" spreadMethod="pad" x1="-819.2" x2="819.2">
      <stop offset="0.17254901960784313" stop-color="#ffffff"/>
      <stop offset="0.4745098039215686" stop-color="#ffff00" stop-opacity="0.6"/>
      <stop offset="1.0" stop-color="#ff0000" stop-opacity="0.3019608"/>
    </linearGradient>
  </defs>
</svg>
