<?xml version="1.0" encoding="UTF-8" standalone="no"?>
<svg xmlns:xlink="http://www.w3.org/1999/xlink" height="123.2px" width="155.1px" xmlns="http://www.w3.org/2000/svg">
  <g transform="matrix(1.0, 0.0, 0.0, 1.0, 46.75, 85.5)">
    <path d="M66.05 -2.85 Q67.45 -1.45 67.45 0.55 67.45 2.55 66.05 3.95 64.65 5.35 62.65 5.35 60.65 5.35 59.25 3.95 57.85 2.55 57.85 0.55 57.85 -1.45 59.25 -2.85 60.65 -4.25 62.65 -4.25 64.65 -4.25 66.05 -2.85" fill="url(#gradient0)" fill-rule="evenodd" stroke="none"/>
    <path d="M57.55 -67.25 L62.9 -64.75 52.45 -64.75 46.0 -61.6 37.2 -53.4 34.5 -56.0 57.55 -67.25 M48.4 -42.5 L55.75 -42.5 59.75 -47.7 71.0 -45.25 73.75 -54.0 79.8 -49.5 83.8 -42.9 52.0 -39.0 48.4 -42.5" fill="url(#gradient1)" fill-rule="evenodd" stroke="none"/>
    <path d="M1.25 -79.0 L1.25 -82.0 29.45 -85.0 62.1 -69.5 57.55 -67.25 34.5 -56.0 37.2 -53.4 37.15 -53.4 38.6 -52.05 48.4 -42.5 52.0 -39.0 83.8 -42.9 89.6 -43.6 101.05 -24.75 98.15 -22.5 95.25 -20.25 98.75 -18.35 102.25 -16.5 107.85 -3.0 83.1 37.2 51.55 37.2 43.7 30.0 36.0 23.0 -24.0 23.0 -33.8 23.0 -46.25 6.1 -41.55 -66.0 -36.15 -66.0 -23.5 -66.0 -20.25 -80.5 -18.75 -85.0 -3.25 -85.0 -2.55 -80.55 -0.55 -68.0 -4.25 -61.75 1.25 -68.0 1.25 -79.0 M11.7 -47.85 L33.2 -20.1 19.45 11.65 26.95 12.15 39.85 -18.45 77.2 -22.1 90.55 -8.1 93.45 -9.35 78.7 -27.85 38.2 -25.1 15.45 -53.35 -10.8 -53.35 -11.15 -47.85 11.7 -47.85 M66.05 -2.85 Q64.65 -4.25 62.65 -4.25 60.65 -4.25 59.25 -2.85 57.85 -1.45 57.85 0.55 57.85 2.55 59.25 3.95 60.65 5.35 62.65 5.35 64.65 5.35 66.05 3.95 67.45 2.55 67.45 0.55 67.45 -1.45 66.05 -2.85 M87.1 5.45 L82.7 7.15 79.05 12.55 72.5 6.25 69.75 12.5 72.4 22.25 78.7 27.9 92.7 7.15 88.7 8.75 87.1 5.45 91.5 3.75 87.1 5.45 M72.4 22.25 L68.7 27.9 72.4 22.25 M64.35 14.7 L66.2 17.4 59.2 27.9 59.2 31.0 59.2 27.9 66.2 17.4 64.35 14.7 62.5 12.0 64.35 14.7 67.0 10.5 64.35 14.7 M-24.55 -57.1 L-36.3 -57.35 -24.55 -57.1 -27.05 -34.85 -24.55 -57.1 M-38.05 -25.35 L-27.05 -34.85 -38.05 -25.35 M-31.55 -13.1 L-31.05 -0.35 -23.3 6.4 -31.05 -0.35 -31.55 -13.1 M-28.05 -20.6 L-38.05 -12.6 -28.05 -20.6 -28.05 -3.6 -17.8 4.9 -28.05 -3.6 -28.05 -20.6 M-26.3 17.65 L-17.8 4.9 -26.3 17.65 M-30.3 -37.6 L-29.3 -52.6 -30.3 -37.6" fill="url(#gradient2)" fill-rule="evenodd" stroke="none"/>
    <path d="M11.7 -47.85 L-11.15 -47.85 -10.8 -53.35 15.45 -53.35 38.2 -25.1 78.7 -27.85 93.45 -9.35 90.55 -8.1 77.2 -22.1 39.85 -18.45 26.95 12.15 19.45 11.65 33.2 -20.1 11.7 -47.85" fill="url(#gradient3)" fill-rule="evenodd" stroke="none"/>
    <path d="M43.7 30.0 L-17.0 30.0 -24.0 23.0 36.0 23.0 43.7 30.0" fill="url(#gradient4)" fill-rule="evenodd" stroke="none"/>
    <path d="M-36.15 -66.0 L-34.35 -79.0 -20.25 -80.5 -23.5 -66.0 -36.15 -66.0" fill="url(#gradient5)" fill-rule="evenodd" stroke="none"/>
    <path d="M98.15 -22.5 L98.75 -18.35 95.25 -20.25 98.15 -22.5 M-2.55 -80.55 L1.25 -79.0 1.25 -68.0 -4.25 -61.75 -0.55 -68.0 -2.55 -80.55 M87.1 5.45 L88.7 8.75 92.7 7.15 78.7 27.9 72.4 22.25 69.75 12.5 72.5 6.25 79.05 12.55 82.7 7.15 87.1 5.45" fill="#000000" fill-rule="evenodd" stroke="none"/>
    <path d="M1.25 -79.0 L1.25 -82.0 29.45 -85.0 62.1 -69.5 57.55 -67.25 62.9 -64.75 52.45 -64.75 46.0 -61.6 37.2 -53.4 38.6 -52.05 48.4 -42.5 55.75 -42.5 59.75 -47.7 71.0 -45.25 73.75 -54.0 79.8 -49.5 83.8 -42.9 89.6 -43.6 101.05 -24.75 98.15 -22.5 98.75 -18.35 102.25 -16.5 107.85 -3.0 83.1 37.2 51.55 37.2 43.7 30.0 -17.0 30.0 -24.0 23.0 -33.8 23.0 -46.25 6.1 -41.55 -66.0 -36.15 -66.0 -34.35 -79.0 -20.25 -80.5 -18.75 -85.0 -3.25 -85.0 -2.55 -80.55 1.25 -79.0 1.25 -68.0 -4.25 -61.75 -0.55 -68.0 -2.55 -80.55 M37.2 -53.4 L34.5 -56.0 57.55 -67.25 M66.05 -2.85 Q67.45 -1.45 67.45 0.55 67.45 2.55 66.05 3.95 64.65 5.35 62.65 5.35 60.65 5.35 59.25 3.95 57.85 2.55 57.85 0.55 57.85 -1.45 59.25 -2.85 60.65 -4.25 62.65 -4.25 64.65 -4.25 66.05 -2.85 M48.4 -42.5 L52.0 -39.0 83.8 -42.9 M98.75 -18.35 L95.25 -20.25 98.15 -22.5 M87.1 5.45 L82.7 7.15 79.05 12.55 72.5 6.25 69.75 12.5 72.4 22.25 78.7 27.9 92.7 7.15 88.7 8.75 87.1 5.45 91.5 3.75 M62.5 12.0 L64.35 14.7 67.0 10.5 M59.2 31.0 L59.2 27.9 66.2 17.4 64.35 14.7 M68.7 27.9 L72.4 22.25 M-24.0 23.0 L36.0 23.0 43.7 30.0 M-24.55 -57.1 L-27.05 -34.85 M-36.15 -66.0 L-23.5 -66.0 -20.25 -80.5 M-28.05 -20.6 L-28.05 -3.6 -17.8 4.9" fill="none" stroke="#000000" stroke-linecap="round" stroke-linejoin="round" stroke-width="1.0"/>
    <path d="M-36.3 -57.35 L-24.55 -57.1 M-27.05 -34.85 L-38.05 -25.35 M-38.05 -12.6 L-28.05 -20.6 M-17.8 4.9 L-26.3 17.65" fill="none" stroke="#262626" stroke-linecap="round" stroke-linejoin="round" stroke-width="1.0"/>
    <path d="M-23.3 6.4 L-31.05 -0.35 -31.55 -13.1 M-29.3 -52.6 L-30.3 -37.6" fill="none" stroke="#1a1a1a" stroke-linecap="round" stroke-linejoin="round" stroke-width="1.0"/>
  </g>
  <defs>
    <radialGradient cx="0" cy="0" gradientTransform="matrix(0.0059, 0.0, 0.0, 0.0059, 62.65, 0.55)" gradientUnits="userSpaceOnUse" id="gradient0" r="819.2" spreadMethod="pad">
      <stop offset="0.43137254901960786" stop-color="#000000"/>
      <stop offset="1.0" stop-color="#2f2f2f"/>
    </radialGradient>
    <radialGradient cx="0" cy="0" gradientTransform="matrix(0.0471, 0.0, 0.0, 0.0471, 73.0, -53.5)" gradientUnits="userSpaceOnUse" id="gradient1" r="819.2" spreadMethod="pad">
      <stop offset="0.0" stop-color="#8e0202" stop-opacity="0.7019608"/>
      <stop offset="1.0" stop-color="#330000"/>
    </radialGradient>
    <radialGradient cx="0" cy="0" gradientTransform="matrix(0.1217, 0.0, 0.0, 0.1217, 31.0, -52.0)" gradientUnits="userSpaceOnUse" id="gradient2" r="819.2" spreadMethod="pad">
      <stop offset="0.2235294117647059" stop-color="#444444"/>
      <stop offset="1.0" stop-color="#262626"/>
    </radialGradient>
    <radialGradient cx="0" cy="0" gradientTransform="matrix(0.1217, 0.0, 0.0, 0.1217, 25.0, -40.5)" gradientUnits="userSpaceOnUse" id="gradient3" r="819.2" spreadMethod="pad">
      <stop offset="0.2235294117647059" stop-color="#333333"/>
      <stop offset="1.0" stop-color="#000000"/>
    </radialGradient>
    <radialGradient cx="0" cy="0" gradientTransform="matrix(0.0764, 0.0, 0.0, 0.0764, 24.5, -16.5)" gradientUnits="userSpaceOnUse" id="gradient4" r="819.2" spreadMethod="pad">
      <stop offset="0.0" stop-color="#151515"/>
      <stop offset="1.0" stop-color="#111111"/>
    </radialGradient>
    <radialGradient cx="0" cy="0" gradientTransform="matrix(0.0473, 0.0, 0.0, 0.0473, -31.0, -104.0)" gradientUnits="userSpaceOnUse" id="gradient5" r="819.2" spreadMethod="pad">
      <stop offset="0.0" stop-color="#151515"/>
      <stop offset="1.0" stop-color="#111111"/>
    </radialGradient>
  </defs>
</svg>
