<?xml version="1.0" encoding="UTF-8" standalone="no"?>
<svg xmlns:xlink="http://www.w3.org/1999/xlink" height="142.05px" width="50.5px" xmlns="http://www.w3.org/2000/svg">
  <g transform="matrix(1.0, 0.0, 0.0, 1.0, 25.25, 19.5)">
    <path d="M-17.25 109.55 L-10.25 87.75 -7.0 91.5 -11.75 109.55 -17.25 109.55 M-11.75 31.05 L-3.5 75.0 -8.5 73.25 -17.25 25.55 -11.75 31.05" fill="url(#gradient0)" fill-rule="evenodd" stroke="none"/>
    <path d="M-17.25 25.55 L-24.75 18.05 -24.75 -2.5 -11.75 -19.0 11.25 -19.0 24.75 -3.25 24.75 56.65 17.1 71.05 17.1 114.5 10.75 122.05 -17.25 122.05 -17.25 109.55 -11.75 109.55 -0.75 109.55 -0.75 85.0 1.05 83.3 2.9 81.5 10.75 82.5 4.75 80.5 0.95 79.1 -0.75 78.5 -0.75 46.75 1.05 46.9 12.9 41.25 1.25 43.5 -0.75 42.05 -11.75 31.05 -17.25 25.55" fill="url(#gradient1)" fill-rule="evenodd" stroke="none"/>
    <path d="M1.05 83.3 L0.95 79.1 4.75 80.5 10.75 82.5 2.9 81.5 1.05 83.3 M1.05 46.9 L1.25 43.5 12.9 41.25 1.05 46.9" fill="#000000" fill-rule="evenodd" stroke="none"/>
    <path d="M-17.25 25.55 L-24.75 18.05 -24.75 -2.5 -11.75 -19.0 11.25 -19.0 24.75 -3.25 24.75 56.65 17.1 71.05 17.1 114.5 10.75 122.05 -17.25 122.05 -17.25 109.55 -10.25 87.75 -7.0 91.5 -11.75 109.55 -0.75 109.55 -0.75 85.0 1.05 83.3 0.95 79.1 -0.75 78.5 -0.75 46.75 1.05 46.9 1.25 43.5 -0.75 42.05 -11.75 31.05 -3.5 75.0 -8.5 73.25 -17.25 25.55 -11.75 31.05 M1.05 46.9 L12.9 41.25 1.25 43.5 M1.05 83.3 L2.9 81.5 10.75 82.5 4.75 80.5 0.95 79.1 M-17.25 109.55 L-11.75 109.55" fill="none" stroke="#000000" stroke-linecap="round" stroke-linejoin="round" stroke-width="1.0"/>
  </g>
  <defs>
    <linearGradient gradientTransform="matrix(0.0034, 0.0, 0.0, 0.0513, -14.5, 67.55)" gradientUnits="userSpaceOnUse" id="gradient0" spreadMethod="pad" x1="-819.2" x2="819.2">
      <stop offset="0.0" stop-color="#404040"/>
      <stop offset="1.0" stop-color="#222222"/>
    </linearGradient>
    <radialGradient cx="0" cy="0" gradientTransform="matrix(0.0978, 0.0, 0.0, 0.2343, -0.05, 1.75)" gradientUnits="userSpaceOnUse" id="gradient1" r="819.2" spreadMethod="pad">
      <stop offset="0.0" stop-color="#484848"/>
      <stop offset="1.0" stop-color="#111111"/>
    </radialGradient>
  </defs>
</svg>
