<?xml version="1.0" encoding="UTF-8" standalone="no"?>
<svg xmlns:xlink="http://www.w3.org/1999/xlink" height="33.65px" width="156.5px" xmlns="http://www.w3.org/2000/svg">
  <g transform="matrix(1.0, 0.0, 0.0, 1.0, -69.1, 17.25)">
    <path d="M72.0 -12.45 Q74.65 -17.25 78.6 -17.25 82.55 -17.25 85.25 -12.45 88.1 -7.4 88.1 -0.4 88.1 6.4 85.25 11.4 82.55 16.4 78.6 16.4 74.65 16.4 72.0 11.4 69.1 6.4 69.1 -0.4 69.1 -7.4 72.0 -12.45" fill="url(#gradient0)" fill-rule="evenodd" stroke="none"/>
    <path d="M98.8 -12.15 Q151.35 -12.15 188.45 -8.75 225.6 -5.35 225.6 -0.25 225.6 4.6 188.45 8.0 151.35 11.4 98.8 11.4 L81.7 11.4 81.7 -11.9 98.8 -12.15" fill="url(#gradient1)" fill-rule="evenodd" stroke="none"/>
  </g>
  <defs>
    <radialGradient cx="0" cy="0" gradientTransform="matrix(0.0118, 0.0, 0.0, 0.0211, 78.6, -0.4)" gradientUnits="userSpaceOnUse" id="gradient0" r="819.2" spreadMethod="pad">
      <stop offset="0.36470588235294116" stop-color="#ffffff" stop-opacity="0.5411765"/>
      <stop offset="1.0" stop-color="#ffe600" stop-opacity="0.0"/>
    </radialGradient>
    <radialGradient cx="0" cy="0" gradientTransform="matrix(0.155, 0.0, 0.0, 0.0144, 99.25, -0.5)" gradientUnits="userSpaceOnUse" id="gradient1" r="819.2" spreadMethod="pad">
      <stop offset="0.36470588235294116" stop-color="#ffffff" stop-opacity="0.57254905"/>
      <stop offset="1.0" stop-color="#ffe600" stop-opacity="0.0"/>
    </radialGradient>
  </defs>
</svg>
