<?xml version="1.0" encoding="UTF-8" standalone="no"?>
<svg xmlns:xlink="http://www.w3.org/1999/xlink" height="114.8px" width="235.9px" xmlns="http://www.w3.org/2000/svg">
  <g transform="matrix(1.0, 0.0, 0.0, 1.0, 119.45, 61.9)">
    <path d="M-60.15 17.7 L-65.45 17.7 -71.35 17.7 -76.75 17.7 -82.45 17.7 -87.85 17.7 -93.55 17.7 -93.55 5.1 -87.85 5.1 -82.45 5.1 -76.75 5.1 -71.35 5.1 -65.45 5.1 -60.15 5.1 -60.15 17.7 M-65.45 5.1 L-65.45 17.7 -65.45 5.1 M-71.35 17.7 L-71.35 5.1 -71.35 17.7 M-76.75 5.1 L-76.75 17.7 -76.75 5.1 M-87.85 5.1 L-87.85 17.7 -87.85 5.1 M-82.45 17.7 L-82.45 5.1 -82.45 17.7" fill="url(#gradient0)" fill-rule="evenodd" stroke="none"/>
    <path d="M-72.75 22.0 L-67.35 22.0 -61.45 22.0 -56.15 22.0 -56.15 34.6 -61.45 34.6 -67.35 34.6 -72.75 34.6 -78.45 34.6 -83.85 34.6 -89.55 34.6 -89.55 22.0 -83.85 22.0 -78.45 22.0 -72.75 22.0 -72.75 34.6 -72.75 22.0 M-78.45 22.0 L-78.45 34.6 -78.45 22.0 M-61.45 34.6 L-61.45 22.0 -61.45 34.6 M-67.35 34.6 L-67.35 22.0 -67.35 34.6 M-83.85 22.0 L-83.85 34.6 -83.85 22.0" fill="url(#gradient1)" fill-rule="evenodd" stroke="none"/>
    <path d="M-91.85 -11.2 L-86.45 -11.2 -80.75 -11.2 -75.35 -11.2 -69.45 -11.2 -64.15 -11.2 -64.15 1.4 -69.45 1.4 -75.35 1.4 -80.75 1.4 -86.45 1.4 -91.85 1.4 -97.55 1.4 -97.55 -11.2 -91.85 -11.2 -91.85 1.4 -91.85 -11.2 M-75.35 1.4 L-75.35 -11.2 -75.35 1.4 M-69.45 1.4 L-69.45 -11.2 -69.45 1.4 M-86.45 -11.2 L-86.45 1.4 -86.45 -11.2 M-80.75 1.4 L-80.75 -11.2 -80.75 1.4" fill="url(#gradient2)" fill-rule="evenodd" stroke="none"/>
    <path d="M-91.85 -11.2 L-86.45 -11.2 -80.75 -11.2 -75.35 -11.2 -69.45 -11.2 -64.15 -11.2 -64.15 1.4 -69.45 1.4 -75.35 1.4 -80.75 1.4 -86.45 1.4 -91.85 1.4 -97.55 1.4 -97.55 -11.2 -91.85 -11.2 -91.85 1.4 M-60.15 17.7 L-65.45 17.7 -71.35 17.7 -76.75 17.7 -82.45 17.7 -87.85 17.7 -93.55 17.7 -93.55 5.1 -87.85 5.1 -82.45 5.1 -76.75 5.1 -71.35 5.1 -65.45 5.1 -60.15 5.1 -60.15 17.7 M-72.75 22.0 L-67.35 22.0 -61.45 22.0 -56.15 22.0 -56.15 34.6 -61.45 34.6 -67.35 34.6 -72.75 34.6 -78.45 34.6 -83.85 34.6 -89.55 34.6 -89.55 22.0 -83.85 22.0 -78.45 22.0 -72.75 22.0 -72.75 34.6 M-76.75 17.7 L-76.75 5.1 M-71.35 5.1 L-71.35 17.7 M-65.45 17.7 L-65.45 5.1 M-67.35 22.0 L-67.35 34.6 M-61.45 22.0 L-61.45 34.6 M-78.45 34.6 L-78.45 22.0 M-82.45 5.1 L-82.45 17.7 M-87.85 17.7 L-87.85 5.1 M-83.85 34.6 L-83.85 22.0 M-80.75 -11.2 L-80.75 1.4 M-86.45 1.4 L-86.45 -11.2 M-69.45 -11.2 L-69.45 1.4 M-75.35 -11.2 L-75.35 1.4" fill="none" stroke="#000000" stroke-linecap="round" stroke-linejoin="round" stroke-width="2.0"/>
    <path d="M49.25 2.0 L67.05 2.3 80.55 6.0 Q68.75 9.4 62.65 22.1 54.75 37.9 48.15 45.4 L12.95 45.4 Q24.25 41.9 14.85 21.9 -17.35 15.2 -26.65 -6.8 10.45 3.1 47.65 2.0 L49.25 2.0 M62.65 11.6 L65.15 8.6 62.65 11.6 M32.35 35.9 L30.05 35.9 30.05 42.5 30.05 35.9 27.75 35.9 30.05 35.9 32.35 35.9 M38.95 40.4 L38.95 42.6 35.45 42.6 35.45 35.6 38.95 35.6 35.45 35.6 35.45 42.6 38.95 42.6 38.95 40.4 M26.65 13.6 L10.85 13.6 7.55 9.4 10.85 13.6 26.65 13.6 M58.25 11.1 L62.45 6.4 58.25 11.1 M42.25 42.5 L46.25 42.5 46.25 39.3 42.25 39.3 42.25 35.7 46.25 35.7 42.25 35.7 42.25 39.3 46.25 39.3 46.25 42.5 42.25 42.5" fill="url(#gradient3)" fill-rule="evenodd" stroke="none"/>
    <path d="M25.05 -22.4 L32.45 -23.4 Q49.25 -14.3 67.05 2.3 L49.25 2.0 Q38.65 -15.8 25.05 -22.4" fill="url(#gradient4)" fill-rule="evenodd" stroke="none"/>
    <path d="M25.05 -22.4 Q38.65 -15.8 49.25 2.0 L47.65 2.0 Q10.45 3.1 -26.65 -6.8 -31.45 -9.0 -34.85 -12.1 -41.75 -17.5 -43.85 -25.9 3.35 -20.5 25.05 -22.4 M35.75 -3.7 L30.95 -2.7 21.85 -0.8 30.95 -2.7 35.75 -3.7 M30.95 -2.7 L41.15 0.0 30.95 -2.7" fill="url(#gradient5)" fill-rule="evenodd" stroke="none"/>
    <path d="M80.55 6.0 L87.85 -1.3 Q104.35 13.6 115.45 35.8 L98.35 33.2 Q79.35 34.5 79.35 49.5 67.95 55.8 48.15 45.4 54.75 37.9 62.65 22.1 68.75 9.4 80.55 6.0" fill="url(#gradient6)" fill-rule="evenodd" stroke="none"/>
    <path d="M32.45 -23.4 L25.05 -22.4 Q3.35 -20.5 -43.85 -25.9 -44.65 -29.0 -44.65 -32.5 L-34.85 -32.5 Q-5.65 -32.5 32.45 -23.4" fill="url(#gradient7)" fill-rule="evenodd" stroke="none"/>
    <path d="M-44.65 -32.5 Q-44.65 -29.0 -43.85 -25.9 -41.75 -17.5 -34.85 -12.1 -31.45 -9.0 -26.65 -6.8 -17.35 15.2 14.85 21.9 24.25 41.9 12.95 45.4 -12.55 55.1 -36.45 46.0 -40.75 29.1 -53.65 29.5 L-74.65 29.5 Q-71.75 5.9 -76.75 -8.0 -62.85 -8.4 -48.65 1.6 -44.15 -26.9 -54.75 -31.8 L-44.65 -32.5 M-35.55 11.4 Q-35.55 13.2 -34.25 14.5 -32.95 15.8 -31.15 15.8 -29.35 15.8 -28.05 14.5 -26.75 13.2 -26.75 11.4 -26.75 9.6 -28.05 8.3 -29.35 7.0 -31.15 7.0 -32.95 7.0 -34.25 8.3 -35.55 9.6 -35.55 11.4 M-17.15 46.2 L-17.15 38.3 -17.15 46.2 M-8.95 42.5 L-8.95 36.8 -8.95 42.5 M-13.15 44.7 L-13.15 37.5 -13.15 44.7" fill="url(#gradient8)" fill-rule="evenodd" stroke="none"/>
    <path d="M-35.55 11.4 Q-35.55 9.6 -34.25 8.3 -32.95 7.0 -31.15 7.0 -29.35 7.0 -28.05 8.3 -26.75 9.6 -26.75 11.4 -26.75 13.2 -28.05 14.5 -29.35 15.8 -31.15 15.8 -32.95 15.8 -34.25 14.5 -35.55 13.2 -35.55 11.4" fill="url(#gradient9)" fill-rule="evenodd" stroke="none"/>
    <path d="M-64.65 -31.2 L-54.75 -31.8 Q-44.15 -26.9 -48.65 1.6 -62.85 -8.4 -76.75 -8.0 -73.25 -13.4 -73.85 -19.8 -64.75 -24.0 -64.65 -31.2 M-64.85 -19.6 L-67.15 -15.8 -64.85 -19.6 -62.65 -23.5 -64.85 -19.6 -60.25 -17.6 -64.85 -19.6" fill="url(#gradient10)" fill-rule="evenodd" stroke="none"/>
    <path d="M-76.75 -8.0 Q-112.75 -42.9 -118.45 -60.9 -100.55 -42.7 -64.65 -31.2 -64.75 -24.0 -73.85 -19.8 -73.25 -13.4 -76.75 -8.0" fill="url(#gradient11)" fill-rule="evenodd" stroke="none"/>
    <path d="M32.45 -23.4 L25.05 -22.4 Q38.65 -15.8 49.25 2.0 L67.05 2.3 Q49.25 -14.3 32.45 -23.4 -5.65 -32.5 -34.85 -32.5 L-44.65 -32.5 Q-44.65 -29.0 -43.85 -25.9 3.35 -20.5 25.05 -22.4 M21.85 -0.8 L30.95 -2.7 35.75 -3.7 M80.55 6.0 L87.85 -1.3 Q104.35 13.6 115.45 35.8 L98.35 33.2 Q79.35 34.5 79.35 49.5 67.95 55.8 48.15 45.4 L12.95 45.4 Q-12.55 55.1 -36.45 46.0 -40.75 29.1 -53.65 29.5 L-74.65 29.5 Q-71.75 5.9 -76.75 -8.0 -112.75 -42.9 -118.45 -60.9 -100.55 -42.7 -64.65 -31.2 L-54.75 -31.8 -44.65 -32.5 M48.15 45.4 Q54.75 37.9 62.65 22.1 68.75 9.4 80.55 6.0 L67.05 2.3 M65.15 8.6 L62.65 11.6 M49.25 2.0 L47.65 2.0 Q10.45 3.1 -26.65 -6.8 -17.35 15.2 14.85 21.9 24.25 41.9 12.95 45.4 M46.25 35.7 L42.25 35.7 42.25 39.3 46.25 39.3 46.25 42.5 42.25 42.5 M62.45 6.4 L58.25 11.1 M7.55 9.4 L10.85 13.6 26.65 13.6 M38.95 35.6 L35.45 35.6 35.45 42.6 38.95 42.6 38.95 40.4 M30.05 42.5 L30.05 35.9 27.75 35.9 M30.05 35.9 L32.35 35.9 M41.15 0.0 L30.95 -2.7 M-62.65 -23.5 L-64.85 -19.6 -60.25 -17.6 M-67.15 -15.8 L-64.85 -19.6 M-64.65 -31.2 Q-64.75 -24.0 -73.85 -19.8 -73.25 -13.4 -76.75 -8.0 -62.85 -8.4 -48.65 1.6 -44.15 -26.9 -54.75 -31.8 M-43.85 -25.9 Q-41.75 -17.5 -34.85 -12.1 -31.45 -9.0 -26.65 -6.8 M-35.55 11.4 Q-35.55 9.6 -34.25 8.3 -32.95 7.0 -31.15 7.0 -29.35 7.0 -28.05 8.3 -26.75 9.6 -26.75 11.4 -26.75 13.2 -28.05 14.5 -29.35 15.8 -31.15 15.8 -32.95 15.8 -34.25 14.5 -35.55 13.2 -35.55 11.4 M-13.15 37.5 L-13.15 44.7 M-8.95 36.8 L-8.95 42.5 M-17.15 38.3 L-17.15 46.2" fill="none" stroke="#000000" stroke-linecap="round" stroke-linejoin="round" stroke-width="2.0"/>
  </g>
  <defs>
    <linearGradient gradientTransform="matrix(0.0, 0.0073, -0.0204, 0.0, -76.85, 11.5)" gradientUnits="userSpaceOnUse" id="gradient0" spreadMethod="pad" x1="-819.2" x2="819.2">
      <stop offset="0.0" stop-color="#9d9d9d"/>
      <stop offset="0.33725490196078434" stop-color="#555555"/>
      <stop offset="1.0" stop-color="#777777"/>
    </linearGradient>
    <linearGradient gradientTransform="matrix(0.0, 0.0073, -0.0204, 0.0, -72.85, 28.4)" gradientUnits="userSpaceOnUse" id="gradient1" spreadMethod="pad" x1="-819.2" x2="819.2">
      <stop offset="0.0" stop-color="#9d9d9d"/>
      <stop offset="0.33725490196078434" stop-color="#555555"/>
      <stop offset="1.0" stop-color="#777777"/>
    </linearGradient>
    <linearGradient gradientTransform="matrix(0.0, 0.0073, -0.0204, 0.0, -80.85, -4.8)" gradientUnits="userSpaceOnUse" id="gradient2" spreadMethod="pad" x1="-819.2" x2="819.2">
      <stop offset="0.0" stop-color="#9d9d9d"/>
      <stop offset="0.33725490196078434" stop-color="#555555"/>
      <stop offset="1.0" stop-color="#777777"/>
    </linearGradient>
    <radialGradient cx="0" cy="0" gradientTransform="matrix(0.0, 0.0739, -0.1393, 0.0, 29.55, -2.4)" gradientUnits="userSpaceOnUse" id="gradient3" r="819.2" spreadMethod="pad">
      <stop offset="0.0" stop-color="#6a6a6a"/>
      <stop offset="1.0" stop-color="#000000"/>
    </radialGradient>
    <radialGradient cx="0" cy="0" gradientTransform="matrix(0.0232, -0.0286, 0.0417, 0.0339, 24.95, 1.7)" gradientUnits="userSpaceOnUse" id="gradient4" r="819.2" spreadMethod="pad">
      <stop offset="0.0" stop-color="#ffffff"/>
      <stop offset="1.0" stop-color="#626262"/>
    </radialGradient>
    <radialGradient cx="0" cy="0" gradientTransform="matrix(0.0114, -0.0429, 0.0963, 0.0256, 15.65, 6.9)" gradientUnits="userSpaceOnUse" id="gradient5" r="819.2" spreadMethod="pad">
      <stop offset="0.0" stop-color="#ffffff"/>
      <stop offset="0.7725490196078432" stop-color="#bfd9d3"/>
      <stop offset="1.0" stop-color="#fef5b4"/>
    </radialGradient>
    <radialGradient cx="0" cy="0" gradientTransform="matrix(0.0454, -0.0454, 0.0703, 0.0703, 45.55, -15.3)" gradientUnits="userSpaceOnUse" id="gradient6" r="819.2" spreadMethod="pad">
      <stop offset="0.5019607843137255" stop-color="#ffffff"/>
      <stop offset="1.0" stop-color="#333333"/>
    </radialGradient>
    <radialGradient cx="0" cy="0" gradientTransform="matrix(-0.002, 0.0202, -0.0833, -0.0085, -18.45, -30.9)" gradientUnits="userSpaceOnUse" id="gradient7" r="819.2" spreadMethod="pad">
      <stop offset="0.0" stop-color="#5e5e5e"/>
      <stop offset="1.0" stop-color="#222222"/>
    </radialGradient>
    <radialGradient cx="0" cy="0" gradientTransform="matrix(0.1069, 0.0, 0.0, 0.1069, -6.45, -30.6)" gradientUnits="userSpaceOnUse" id="gradient8" r="819.2" spreadMethod="pad">
      <stop offset="0.5215686274509804" stop-color="#ffffff"/>
      <stop offset="0.8313725490196079" stop-color="#5a5a5a"/>
      <stop offset="1.0" stop-color="#373737"/>
    </radialGradient>
    <radialGradient cx="0" cy="0" gradientTransform="matrix(0.1069, 0.0, 0.0, 0.1069, -6.45, -30.6)" gradientUnits="userSpaceOnUse" id="gradient9" r="819.2" spreadMethod="pad">
      <stop offset="0.0" stop-color="#ffffff"/>
      <stop offset="1.0" stop-color="#000000"/>
    </radialGradient>
    <radialGradient cx="0" cy="0" gradientTransform="matrix(0.0351, -0.0351, 0.0417, 0.0417, -42.45, 3.1)" gradientUnits="userSpaceOnUse" id="gradient10" r="819.2" spreadMethod="pad">
      <stop offset="0.0" stop-color="#7b7b7b"/>
      <stop offset="0.6313725490196078" stop-color="#393939"/>
      <stop offset="1.0" stop-color="#5e5e5e"/>
    </radialGradient>
    <radialGradient cx="0" cy="0" fx="-3.2" fy="0" gradientTransform="matrix(0.0372, -0.0443, 0.105, 0.0883, -80.45, -52.9)" gradientUnits="userSpaceOnUse" id="gradient11" r="819.2" spreadMethod="pad">
      <stop offset="0.0" stop-color="#565656"/>
      <stop offset="1.0" stop-color="#000000"/>
    </radialGradient>
  </defs>
</svg>
