<?xml version="1.0" encoding="UTF-8" standalone="no"?>
<svg xmlns:xlink="http://www.w3.org/1999/xlink" height="18.0px" width="52.9px" xmlns="http://www.w3.org/2000/svg">
  <g transform="matrix(1.0, 0.0, 0.0, 1.0, 23.75, 8.25)">
    <path d="M17.55 0.25 L16.65 -1.15 15.85 -2.45 15.05 -3.85 28.15 -3.85 28.15 -2.45 28.15 -1.15 28.15 0.25 17.55 0.25 M-14.95 -7.25 L-14.95 -1.25 -17.35 1.75 -22.75 1.75 -22.75 -3.65 -14.95 -7.25 M-9.75 4.75 L4.25 4.75 0.25 8.75 -5.75 8.75 -9.75 4.75 M15.85 -2.45 L28.15 -2.45 15.85 -2.45 M16.65 -1.15 L28.15 -1.15 16.65 -1.15" fill="#333333" fill-rule="evenodd" stroke="none"/>
    <path d="M15.05 -3.85 L15.85 -2.45 16.65 -1.15 17.55 0.25 20.15 4.75 4.25 4.75 -9.75 4.75 -19.85 4.75 -17.35 1.75 -14.95 -1.25 -14.95 -7.25 13.05 -7.25 15.05 -3.85 M-0.55 -2.05 L-4.55 1.95 -0.55 -2.05 M-4.55 -2.25 L-8.55 1.75 -4.55 -2.25 M-8.65 -2.25 L-12.65 1.75 -8.65 -2.25" fill="#cccccc" fill-rule="evenodd" stroke="none"/>
    <path d="M17.55 0.25 L16.65 -1.15 15.85 -2.45 15.05 -3.85 13.05 -7.25 -14.95 -7.25 -14.95 -1.25 -17.35 1.75 -19.85 4.75 -9.75 4.75 4.25 4.75 20.15 4.75 17.55 0.25 28.15 0.25 28.15 -1.15 28.15 -2.45 28.15 -3.85 15.05 -3.85 M4.25 4.75 L0.25 8.75 -5.75 8.75 -9.75 4.75 M-17.35 1.75 L-22.75 1.75 -22.75 -3.65 -14.95 -7.25 M-12.65 1.75 L-8.65 -2.25 M-8.55 1.75 L-4.55 -2.25 M-4.55 1.95 L-0.55 -2.05" fill="none" stroke="#000000" stroke-linecap="round" stroke-linejoin="round" stroke-width="2.0"/>
    <path d="M28.15 -1.15 L16.65 -1.15 M28.15 -2.45 L15.85 -2.45" fill="none" stroke="#000000" stroke-linecap="round" stroke-linejoin="round" stroke-width="2.0"/>
  </g>
</svg>
